Lora Devanarari v10-Regular.ufo
<glyph name="plus" format="1">
  <advance width="515"/>
  <unicode hex="002B"/>
  <outline>
    <contour>
      <point x="225" y="543" type="line"/>
      <point x="225" y="346" type="line"/>
      <point x="35" y="347" type="line"/>
      <point x="35" y="287" type="line"/>
      <point x="225" y="288" type="line"/>
      <point x="225" y="82" type="line"/>
      <point x="290" y="82" type="line"/>
      <point x="290" y="288" type="line"/>
      <point x="480" y="289" type="line"/>
      <point x="480" y="345" type="line"/>
      <point x="290" y="346" type="line"/>
      <point x="290" y="543" type="line"/>
    </contour>
  </outline>
</glyph>
<glyph name="slash" format="1">
  <advance width="690"/>
  <unicode hex="002F"/>
  <outline>
    <contour>
      <point x="21" y="-235" type="line"/>
      <point x="79" y="-271" type="line"/>
      <point x="670" y="719" type="line"/>
      <point x="605" y="760" type="line"/>
    </contour>
  </outline>
</glyph>
<glyph name="nine" format="1">
  <advance width="578"/>
  <unicode hex="0039"/>
  <outline>
    <contour>
      <point x="140" y="716"/>
      <point x="48" y="615"/>
      <point x="48" y="485" type="curve" smooth="yes"/>
      <point x="48" y="384"/>
      <point x="97" y="262"/>
      <point x="257" y="262" type="curve" smooth="yes"/>
      <point x="335" y="262"/>
      <point x="392" y="301"/>
      <point x="425" y="346" type="curve"/>
      <point x="426" y="231"/>
      <point x="404" y="22"/>
      <point x="252" y="22" type="curve" smooth="yes"/>
      <point x="188" y="22"/>
      <point x="159" y="47"/>
      <point x="150" y="76" type="curve"/>
      <point x="159" y="89"/>
      <point x="164" y="104"/>
      <point x="164" y="117" type="curve" smooth="yes"/>
      <point x="164" y="134"/>
      <point x="151" y="161"/>
      <point x="119" y="160" type="curve" smooth="yes"/>
      <point x="90" y="158"/>
      <point x="75" y="136"/>
      <point x="75" y="107" type="curve" smooth="yes"/>
      <point x="75" y="55"/>
      <point x="126" y="-17"/>
      <point x="257" y="-16" type="curve" smooth="yes"/>
      <point x="485" y="-15"/>
      <point x="519" y="213"/>
      <point x="519" y="359" type="curve" smooth="yes"/>
      <point x="519" y="561"/>
      <point x="472" y="716"/>
      <point x="284" y="716" type="curve" smooth="yes"/>
    </contour>
    <contour>
      <point x="385" y="678"/>
      <point x="417" y="542"/>
      <point x="424" y="417" type="curve"/>
      <point x="405" y="359"/>
      <point x="341" y="307"/>
      <point x="278" y="307" type="curve" smooth="yes"/>
      <point x="166" y="307"/>
      <point x="147" y="432"/>
      <point x="147" y="507" type="curve" smooth="yes"/>
      <point x="147" y="595"/>
      <point x="191" y="678"/>
      <point x="277" y="678" type="curve" smooth="yes"/>
    </contour>
  </outline>
</glyph>
<glyph name="G" format="1">
  <advance width="761"/>
  <unicode hex="0047"/>
  <outline>
    <contour>
      <point x="162" y="716"/>
      <point x="47" y="523"/>
      <point x="47" y="335" type="curve" smooth="yes"/>
      <point x="47" y="116"/>
      <point x="186" y="-16"/>
      <point x="387" y="-16" type="curve" smooth="yes"/>
      <point x="431" y="-16"/>
      <point x="492" y="-6"/>
      <point x="533" y="10" type="curve" smooth="yes"/>
      <point x="581" y="29"/>
      <point x="619" y="36"/>
      <point x="641" y="36" type="curve" smooth="yes"/>
      <point x="668" y="36" type="line"/>
      <point x="668" y="189" type="line" smooth="yes"/>
      <point x="668" y="216"/>
      <point x="665" y="308"/>
      <point x="740" y="308" type="curve"/>
      <point x="740" y="341" type="line"/>
      <point x="514" y="341" type="line"/>
      <point x="514" y="297" type="line"/>
      <point x="584" y="301" type="line"/>
      <point x="584" y="82" type="line"/>
      <point x="532" y="47"/>
      <point x="466" y="32"/>
      <point x="413" y="32" type="curve" smooth="yes"/>
      <point x="255" y="32"/>
      <point x="145" y="169"/>
      <point x="145" y="358" type="curve" smooth="yes"/>
      <point x="145" y="544"/>
      <point x="260" y="676"/>
      <point x="402" y="676" type="curve" smooth="yes"/>
      <point x="518" y="676"/>
      <point x="608" y="605"/>
      <point x="617" y="480" type="curve"/>
      <point x="653" y="480" type="line"/>
      <point x="653" y="709" type="line"/>
      <point x="598" y="709" type="line"/>
      <point x="602" y="661" type="line"/>
      <point x="546" y="695"/>
      <point x="467" y="716"/>
      <point x="395" y="716" type="curve" smooth="yes"/>
    </contour>
    <contour>
      <point x="396" y="700" type="move" name="top"/>
    </contour>
    <contour>
      <point x="427" y="0" type="move" name="bottom"/>
    </contour>
  </outline>
</glyph>
<glyph name="M" format="1">
  <advance width="918"/>
  <unicode hex="004D"/>
  <outline>
    <contour>
      <point x="704" y="700" type="line"/>
      <point x="642" y="543"/>
      <point x="577" y="397"/>
      <point x="519" y="251" type="curve" smooth="yes"/>
      <point x="505" y="215"/>
      <point x="483" y="158"/>
      <point x="468" y="122" type="curve"/>
      <point x="466" y="122" type="line"/>
      <point x="381" y="316"/>
      <point x="308" y="491"/>
      <point x="216" y="700" type="curve"/>
      <point x="63" y="700" type="line"/>
      <point x="63" y="657" type="line"/>
      <point x="135" y="660" type="line"/>
      <point x="113" y="125" type="line" smooth="yes"/>
      <point x="111" y="76"/>
      <point x="106" y="34"/>
      <point x="44" y="33" type="curve"/>
      <point x="44" y="0" type="line"/>
      <point x="235" y="0" type="line"/>
      <point x="235" y="44" type="line"/>
      <point x="160" y="40" type="line"/>
      <point x="163" y="65"/>
      <point x="163" y="95"/>
      <point x="164" y="125" type="curve" smooth="yes"/>
      <point x="166" y="260"/>
      <point x="172" y="447"/>
      <point x="175" y="543" type="curve" smooth="yes"/>
      <point x="176" y="587" type="line"/>
      <point x="254" y="379"/>
      <point x="345" y="186"/>
      <point x="432" y="-10" type="curve"/>
      <point x="462" y="-10" type="line"/>
      <point x="687" y="546" type="line" smooth="yes"/>
      <point x="691" y="558"/>
      <point x="696" y="568"/>
      <point x="700" y="578" type="curve"/>
      <point x="726" y="152" type="line" smooth="yes"/>
      <point x="730" y="76"/>
      <point x="722" y="35"/>
      <point x="660" y="33" type="curve"/>
      <point x="660" y="0" type="line"/>
      <point x="884" y="0" type="line"/>
      <point x="884" y="44" type="line"/>
      <point x="811" y="41" type="line"/>
      <point x="811" y="58"/>
      <point x="811" y="80"/>
      <point x="809" y="103" type="curve" smooth="yes"/>
      <point x="783" y="558" type="line" smooth="yes"/>
      <point x="778" y="640"/>
      <point x="802" y="668"/>
      <point x="852" y="667" type="curve"/>
      <point x="852" y="700" type="line"/>
    </contour>
  </outline>
</glyph>
<glyph name="O" format="1">
  <advance width="794"/>
  <unicode hex="004F"/>
  <outline>
    <contour>
      <point x="158" y="716"/>
      <point x="46" y="518"/>
      <point x="46" y="350" type="curve" smooth="yes"/>
      <point x="46" y="176"/>
      <point x="148" y="-16"/>
      <point x="402" y="-16" type="curve" smooth="yes"/>
      <point x="638" y="-16"/>
      <point x="750" y="184"/>
      <point x="750" y="350" type="curve" smooth="yes"/>
      <point x="750" y="517"/>
      <point x="638" y="716"/>
      <point x="394" y="716" type="curve" smooth="yes"/>
    </contour>
    <contour>
      <point x="557" y="676"/>
      <point x="650" y="495"/>
      <point x="650" y="331" type="curve" smooth="yes"/>
      <point x="650" y="184"/>
      <point x="568" y="25"/>
      <point x="404" y="25" type="curve" smooth="yes"/>
      <point x="225" y="25"/>
      <point x="144" y="220"/>
      <point x="144" y="368" type="curve" smooth="yes"/>
      <point x="144" y="516"/>
      <point x="226" y="676"/>
      <point x="391" y="676" type="curve" smooth="yes"/>
    </contour>
    <contour>
      <point x="389" y="700" type="move" name="top"/>
    </contour>
  </outline>
</glyph>
<glyph name="T" format="1">
  <advance width="640"/>
  <unicode hex="0054"/>
  <outline>
    <contour>
      <point x="28" y="700" type="line"/>
      <point x="22" y="489" type="line"/>
      <point x="59" y="489" type="line"/>
      <point x="59" y="607"/>
      <point x="90" y="662"/>
      <point x="174" y="662" type="curve" smooth="yes"/>
      <point x="277" y="663" type="line"/>
      <point x="276" y="156" type="line" smooth="yes"/>
      <point x="276" y="88"/>
      <point x="283" y="36"/>
      <point x="208" y="33" type="curve"/>
      <point x="208" y="0" type="line"/>
      <point x="443" y="0" type="line"/>
      <point x="443" y="44" type="line"/>
      <point x="360" y="40" type="line"/>
      <point x="362" y="57"/>
      <point x="363" y="83"/>
      <point x="363" y="119" type="curve" smooth="yes"/>
      <point x="364" y="664" type="line"/>
      <point x="449" y="664" type="line" smooth="yes"/>
      <point x="552" y="665"/>
      <point x="577" y="607"/>
      <point x="579" y="489" type="curve"/>
      <point x="617" y="489" type="line"/>
      <point x="611" y="700" type="line"/>
    </contour>
    <contour>
      <point x="320" y="350" type="move" name="center"/>
    </contour>
    <contour>
      <point x="321" y="0" type="move" name="bottom"/>
    </contour>
    <contour>
      <point x="320" y="700" type="move" name="top"/>
    </contour>
  </outline>
</glyph>
<glyph name="W" format="1">
  <advance width="995"/>
  <unicode hex="0057"/>
  <outline>
    <contour>
      <point x="495" y="702" type="line"/>
      <point x="478" y="642"/>
      <point x="418" y="467"/>
      <point x="362" y="289" type="curve" smooth="yes"/>
      <point x="353" y="262"/>
      <point x="334" y="202"/>
      <point x="321" y="157" type="curve"/>
      <point x="319" y="157" type="line"/>
      <point x="299" y="220"/>
      <point x="280" y="265"/>
      <point x="261" y="325" type="curve" smooth="yes"/>
      <point x="235" y="406"/>
      <point x="208" y="470"/>
      <point x="185" y="558" type="curve" smooth="yes"/>
      <point x="163" y="638"/>
      <point x="172" y="663"/>
      <point x="250" y="667" type="curve"/>
      <point x="250" y="700" type="line"/>
      <point x="7" y="700" type="line"/>
      <point x="7" y="656" type="line"/>
      <point x="63" y="658" type="line"/>
      <point x="69" y="628"/>
      <point x="82" y="592"/>
      <point x="105" y="522" type="curve" smooth="yes"/>
      <point x="284" y="-10" type="line"/>
      <point x="313" y="-10" type="line"/>
      <point x="489" y="525" type="line"/>
      <point x="676" y="-10" type="line"/>
      <point x="706" y="-10" type="line"/>
      <point x="769" y="163"/>
      <point x="825" y="338"/>
      <point x="886" y="519" type="curve" smooth="yes"/>
      <point x="928" y="642"/>
      <point x="942" y="659"/>
      <point x="1010" y="667" type="curve"/>
      <point x="1010" y="700" type="line"/>
      <point x="807" y="700" type="line"/>
      <point x="807" y="656" type="line"/>
      <point x="887" y="659" type="line"/>
      <point x="874" y="636"/>
      <point x="864" y="608"/>
      <point x="856" y="586" type="curve" smooth="yes"/>
      <point x="835" y="524"/>
      <point x="822" y="472"/>
      <point x="753" y="274" type="curve" smooth="yes"/>
      <point x="738" y="229"/>
      <point x="724" y="184"/>
      <point x="712" y="145" type="curve"/>
      <point x="709" y="145" type="line"/>
      <point x="691" y="208"/>
      <point x="669" y="265"/>
      <point x="651" y="325" type="curve" smooth="yes"/>
      <point x="625" y="406"/>
      <point x="552" y="614"/>
      <point x="527" y="702" type="curve"/>
    </contour>
    <contour>
      <point x="513" y="700" type="move" name="top"/>
    </contour>
  </outline>
</glyph>
<glyph name="Y" format="1">
  <advance width="634"/>
  <unicode hex="0059"/>
  <outline>
    <contour>
      <point x="440" y="700" type="line"/>
      <point x="440" y="656" type="line"/>
      <point x="519" y="659" type="line"/>
      <point x="500" y="638"/>
      <point x="481" y="602"/>
      <point x="471" y="583" type="curve" smooth="yes"/>
      <point x="428" y="502"/>
      <point x="390" y="431"/>
      <point x="343" y="340" type="curve"/>
      <point x="341" y="340" type="line"/>
      <point x="284" y="420"/>
      <point x="249" y="479"/>
      <point x="199" y="558" type="curve" smooth="yes"/>
      <point x="159" y="622"/>
      <point x="160" y="667"/>
      <point x="252" y="667" type="curve"/>
      <point x="252" y="700" type="line"/>
      <point x="-6" y="700" type="line"/>
      <point x="-6" y="656" type="line"/>
      <point x="56" y="658" type="line"/>
      <point x="61" y="633"/>
      <point x="76" y="598"/>
      <point x="110" y="545" type="curve" smooth="yes"/>
      <point x="284" y="270" type="line"/>
      <point x="283" y="156" type="line" smooth="yes"/>
      <point x="283" y="88"/>
      <point x="290" y="36"/>
      <point x="215" y="33" type="curve"/>
      <point x="215" y="0" type="line"/>
      <point x="450" y="0" type="line"/>
      <point x="450" y="44" type="line"/>
      <point x="367" y="40" type="line"/>
      <point x="369" y="57"/>
      <point x="370" y="83"/>
      <point x="370" y="119" type="curve" smooth="yes"/>
      <point x="369" y="120"/>
      <point x="370" y="251"/>
      <point x="371" y="300" type="curve"/>
      <point x="410" y="374"/>
      <point x="451" y="452"/>
      <point x="497" y="538" type="curve" smooth="yes"/>
      <point x="543" y="623"/>
      <point x="578" y="663"/>
      <point x="644" y="667" type="curve"/>
      <point x="644" y="700" type="line"/>
    </contour>
    <contour>
      <point x="331" y="700" type="move" name="top"/>
    </contour>
  </outline>
</glyph>
<glyph name="m" format="1">
  <advance width="894"/>
  <unicode hex="006D"/>
  <outline>
    <contour>
      <point x="580" y="516"/>
      <point x="516" y="486"/>
      <point x="471" y="449" type="curve"/>
      <point x="446" y="490"/>
      <point x="401" y="516"/>
      <point x="334" y="516" type="curve" smooth="yes"/>
      <point x="282" y="516"/>
      <point x="227" y="491"/>
      <point x="187" y="457" type="curve"/>
      <point x="186" y="480"/>
      <point x="185" y="497"/>
      <point x="183" y="510" type="curve"/>
      <point x="154" y="510" type="line"/>
      <point x="139" y="496"/>
      <point x="124" y="483"/>
      <point x="36" y="483" type="curve"/>
      <point x="36" y="441" type="line"/>
      <point x="107" y="445" type="line"/>
      <point x="103" y="422"/>
      <point x="103" y="401"/>
      <point x="103" y="380" type="curve" smooth="yes"/>
      <point x="103" y="152" type="line" smooth="yes"/>
      <point x="103" y="80"/>
      <point x="105" y="30"/>
      <point x="44" y="30" type="curve"/>
      <point x="44" y="0" type="line"/>
      <point x="248" y="0" type="line"/>
      <point x="248" y="41" type="line"/>
      <point x="185" y="38" type="line"/>
      <point x="189" y="61"/>
      <point x="189" y="79"/>
      <point x="189" y="106" type="curve" smooth="yes"/>
      <point x="189" y="363" type="line" smooth="yes"/>
      <point x="189" y="383"/>
      <point x="188" y="401"/>
      <point x="188" y="417" type="curve"/>
      <point x="216" y="445"/>
      <point x="258" y="465"/>
      <point x="300" y="465" type="curve" smooth="yes"/>
      <point x="379" y="466"/>
      <point x="411" y="406"/>
      <point x="410" y="292" type="curve" smooth="yes"/>
      <point x="409" y="152" type="line" smooth="yes"/>
      <point x="408" y="80"/>
      <point x="411" y="30"/>
      <point x="350" y="30" type="curve"/>
      <point x="350" y="0" type="line"/>
      <point x="554" y="0" type="line"/>
      <point x="554" y="41" type="line"/>
      <point x="491" y="38" type="line"/>
      <point x="495" y="61"/>
      <point x="495" y="79"/>
      <point x="495" y="106" type="curve" smooth="yes"/>
      <point x="497" y="341" type="line" smooth="yes"/>
      <point x="497" y="367"/>
      <point x="494" y="392"/>
      <point x="487" y="414" type="curve"/>
      <point x="517" y="442"/>
      <point x="561" y="463"/>
      <point x="603" y="463" type="curve" smooth="yes"/>
      <point x="682" y="464"/>
      <point x="717" y="406"/>
      <point x="717" y="292" type="curve" smooth="yes"/>
      <point x="717" y="152" type="line" smooth="yes"/>
      <point x="717" y="80"/>
      <point x="719" y="30"/>
      <point x="658" y="30" type="curve"/>
      <point x="658" y="0" type="line"/>
      <point x="862" y="0" type="line"/>
      <point x="862" y="41" type="line"/>
      <point x="799" y="38" type="line"/>
      <point x="803" y="61"/>
      <point x="803" y="79"/>
      <point x="803" y="106" type="curve" smooth="yes"/>
      <point x="804" y="292" type="line" smooth="yes"/>
      <point x="807" y="450"/>
      <point x="753" y="516"/>
      <point x="637" y="516" type="curve" smooth="yes"/>
    </contour>
  </outline>
</glyph>
<glyph name="q" format="1">
  <advance width="576"/>
  <unicode hex="0071"/>
  <outline>
    <contour>
      <point x="157" y="516"/>
      <point x="42" y="406"/>
      <point x="42" y="239" type="curve" smooth="yes"/>
      <point x="42" y="84"/>
      <point x="141" y="-16"/>
      <point x="266" y="-16" type="curve" smooth="yes"/>
      <point x="330" y="-16"/>
      <point x="381" y="7"/>
      <point x="416" y="47" type="curve"/>
      <point x="416" y="-103" type="line" smooth="yes"/>
      <point x="416" y="-175"/>
      <point x="418" y="-225"/>
      <point x="357" y="-225" type="curve"/>
      <point x="357" y="-255" type="line"/>
      <point x="561" y="-255" type="line"/>
      <point x="561" y="-214" type="line"/>
      <point x="498" y="-217" type="line"/>
      <point x="502" y="-194"/>
      <point x="502" y="-176"/>
      <point x="502" y="-149" type="curve" smooth="yes"/>
      <point x="501" y="510" type="line"/>
      <point x="473" y="510" type="line"/>
      <point x="438" y="470"/>
      <point x="380" y="516"/>
      <point x="299" y="516" type="curve" smooth="yes"/>
    </contour>
    <contour>
      <point x="387" y="479"/>
      <point x="416" y="439"/>
      <point x="416" y="359" type="curve" smooth="yes"/>
      <point x="416" y="97" type="line"/>
      <point x="389" y="59"/>
      <point x="346" y="33"/>
      <point x="302" y="33" type="curve" smooth="yes"/>
      <point x="203" y="33"/>
      <point x="145" y="135"/>
      <point x="145" y="263" type="curve" smooth="yes"/>
      <point x="145" y="392"/>
      <point x="204" y="479"/>
      <point x="301" y="479" type="curve" smooth="yes"/>
    </contour>
  </outline>
</glyph>
<glyph name="u" format="1">
  <advance width="597"/>
  <unicode hex="0075"/>
  <outline>
    <contour>
      <point x="472" y="510" type="line"/>
      <point x="457" y="496"/>
      <point x="436" y="483"/>
      <point x="379" y="483" type="curve" smooth="yes"/>
      <point x="348" y="483" type="line"/>
      <point x="348" y="442" type="line"/>
      <point x="420" y="445" type="line"/>
      <point x="416" y="422"/>
      <point x="415" y="401"/>
      <point x="415" y="369" type="curve" smooth="yes"/>
      <point x="415" y="112" type="line"/>
      <point x="387" y="71"/>
      <point x="337" y="36"/>
      <point x="287" y="35" type="curve" smooth="yes"/>
      <point x="208" y="34"/>
      <point x="179" y="90"/>
      <point x="179" y="205" type="curve" smooth="yes"/>
      <point x="179" y="510" type="line"/>
      <point x="150" y="510" type="line"/>
      <point x="135" y="496"/>
      <point x="114" y="483"/>
      <point x="57" y="483" type="curve" smooth="yes"/>
      <point x="26" y="483" type="line"/>
      <point x="26" y="442" type="line"/>
      <point x="95" y="445" type="line"/>
      <point x="91" y="422"/>
      <point x="91" y="401"/>
      <point x="91" y="380" type="curve" smooth="yes"/>
      <point x="91" y="202" type="line" smooth="yes"/>
      <point x="91" y="37"/>
      <point x="146" y="-16"/>
      <point x="255" y="-16" type="curve" smooth="yes"/>
      <point x="313" y="-16"/>
      <point x="377" y="19"/>
      <point x="418" y="60" type="curve"/>
      <point x="419" y="42"/>
      <point x="421" y="23"/>
      <point x="425" y="0" type="curve"/>
      <point x="568" y="0" type="line"/>
      <point x="568" y="42" type="line"/>
      <point x="496" y="38" type="line"/>
      <point x="499" y="65"/>
      <point x="500" y="111"/>
      <point x="500" y="132" type="curve" smooth="yes"/>
      <point x="501" y="510" type="line"/>
    </contour>
    <contour>
      <point x="567" y="0" type="move" name="ogonek"/>
    </contour>
    <contour>
      <point x="286" y="500" type="move" name="top"/>
    </contour>
  </outline>
</glyph>
<glyph name="uni00B5" format="1">
  <advance width="614"/>
  <unicode hex="00B5"/>
  <outline>
    <contour>
      <point x="406" y="500" type="line"/>
      <point x="406" y="106" type="line"/>
      <point x="380" y="67"/>
      <point x="335" y="35"/>
      <point x="286" y="35" type="curve" smooth="yes"/>
      <point x="199" y="35"/>
      <point x="179" y="122"/>
      <point x="179" y="236" type="curve" smooth="yes"/>
      <point x="179" y="500" type="line"/>
      <point x="95" y="500" type="line"/>
      <point x="94" y="-173" type="line" smooth="yes"/>
      <point x="94" y="-227"/>
      <point x="108" y="-260"/>
      <point x="146" y="-260" type="curve" smooth="yes"/>
      <point x="176" y="-260"/>
      <point x="191" y="-231"/>
      <point x="191" y="-206" type="curve" smooth="yes"/>
      <point x="191" y="-159"/>
      <point x="164" y="-154"/>
      <point x="143" y="65" type="curve"/>
      <point x="169" y="15"/>
      <point x="207" y="-16"/>
      <point x="256" y="-16" type="curve" smooth="yes"/>
      <point x="313" y="-16"/>
      <point x="373" y="17"/>
      <point x="411" y="56" type="curve"/>
      <point x="418" y="24"/>
      <point x="438" y="-6"/>
      <point x="487" y="-6" type="curve" smooth="yes"/>
      <point x="533" y="-6"/>
      <point x="571" y="26"/>
      <point x="588" y="50" type="curve"/>
      <point x="577" y="65" type="line"/>
      <point x="559" y="52"/>
      <point x="547" y="48"/>
      <point x="535" y="48" type="curve" smooth="yes"/>
      <point x="507" y="48"/>
      <point x="490" y="72"/>
      <point x="490" y="141" type="curve" smooth="yes"/>
      <point x="491" y="500" type="line"/>
    </contour>
  </outline>
</glyph>
<glyph name="ordmasculine" format="1">
  <advance width="464"/>
  <unicode hex="00BA"/>
  <outline>
    <contour>
      <point x="67" y="365"/>
      <point x="142" y="312"/>
      <point x="234" y="312" type="curve" smooth="yes"/>
      <point x="324" y="312"/>
      <point x="395" y="409"/>
      <point x="395" y="516" type="curve" smooth="yes"/>
      <point x="395" y="638"/>
      <point x="320" y="693"/>
      <point x="232" y="693" type="curve" smooth="yes"/>
      <point x="134" y="693"/>
      <point x="67" y="594"/>
      <point x="67" y="488" type="curve" smooth="yes"/>
    </contour>
    <contour>
      <point x="168" y="367"/>
      <point x="132" y="459"/>
      <point x="132" y="534" type="curve" smooth="yes"/>
      <point x="132" y="567"/>
      <point x="142" y="606"/>
      <point x="158" y="623" type="curve" smooth="yes"/>
      <point x="166" y="631"/>
      <point x="181" y="638"/>
      <point x="203" y="638" type="curve" smooth="yes"/>
      <point x="291" y="638"/>
      <point x="330" y="550"/>
      <point x="330" y="471" type="curve" smooth="yes"/>
      <point x="330" y="442"/>
      <point x="321" y="397"/>
      <point x="304" y="382" type="curve" smooth="yes"/>
      <point x="292" y="371"/>
      <point x="273" y="367"/>
      <point x="259" y="367" type="curve" smooth="yes"/>
    </contour>
    <contour>
      <point x="150" y="203"/>
      <point x="276" y="205"/>
      <point x="385" y="212" type="curve"/>
      <point x="398" y="260" type="line"/>
      <point x="84" y="260" type="line"/>
      <point x="72" y="203" type="line"/>
    </contour>
  </outline>
</glyph>
<glyph name="Icircumflex" format="1">
  <advance width="335"/>
  <unicode hex="00CE"/>
  <outline>
    <contour>
      <point x="175" y="931" type="line"/>
      <point x="-9" y="789" type="line"/>
      <point x="11" y="757" type="line"/>
      <point x="171" y="844" type="line"/>
      <point x="173" y="844" type="line"/>
      <point x="329" y="756" type="line"/>
      <point x="351" y="790" type="line"/>
      <point x="177" y="931" type="line"/>
    </contour>
    <component base="I"/>
  </outline>
</glyph>
<glyph name="multiply" format="1">
  <advance width="552"/>
  <unicode hex="00D7"/>
  <outline>
    <contour>
      <point x="277" y="355" type="line"/>
      <point x="103" y="529" type="line"/>
      <point x="56" y="484" type="line"/>
      <point x="231" y="310" type="line"/>
      <point x="54" y="136" type="line"/>
      <point x="97" y="93" type="line"/>
      <point x="274" y="268" type="line"/>
      <point x="455" y="89" type="line"/>
      <point x="500" y="134" type="line"/>
      <point x="319" y="313" type="line"/>
      <point x="500" y="491" type="line"/>
      <point x="459" y="534" type="line"/>
    </contour>
  </outline>
</glyph>
<glyph name="caron" format="1">
  <advance width="400"/>
  <unicode hex="02C7"/>
  <outline>
    <contour>
      <point x="201" y="659" type="line"/>
      <point x="199" y="659" type="line"/>
      <point x="72" y="768" type="line"/>
      <point x="45" y="736" type="line"/>
      <point x="194" y="573" type="line"/>
      <point x="196" y="573" type="line"/>
      <point x="355" y="741" type="line"/>
      <point x="330" y="770" type="line"/>
    </contour>
    <contour>
      <point x="200" y="500" type="move" name="_top"/>
    </contour>
  </outline>
</glyph>
<glyph name="pi" format="1">
  <advance width="644"/>
  <unicode hex="03C0"/>
  <outline>
    <contour>
      <point x="577" y="393" type="line"/>
      <point x="602" y="464" type="line"/>
      <point x="61" y="464" type="line"/>
      <point x="33" y="393" type="line"/>
    </contour>
    <contour>
      <point x="226" y="421" type="line"/>
      <point x="156" y="421" type="line"/>
      <point x="105" y="-10" type="line"/>
      <point x="206" y="9" type="line"/>
    </contour>
    <contour>
      <point x="384" y="409" type="line"/>
      <point x="382" y="392"/>
      <point x="364" y="112"/>
      <point x="364" y="89" type="curve" smooth="yes"/>
      <point x="364" y="48"/>
      <point x="370" y="-10"/>
      <point x="422" y="-10" type="curve" smooth="yes"/>
      <point x="452" y="-10"/>
      <point x="497" y="0"/>
      <point x="563" y="21" type="curve"/>
      <point x="567" y="47" type="line"/>
      <point x="476" y="47"/>
      <point x="452" y="54"/>
      <point x="452" y="98" type="curve" smooth="yes"/>
      <point x="452" y="409" type="line"/>
    </contour>
  </outline>
</glyph>
<glyph name="candrabindudeva" format="1">
  <advance width="409"/>
  <unicode hex="0901"/>
  <note>
    dCandrabindu
  </note>
  <outline>
    <component base="ecandravowelsigndeva" yOffset="5"/>
    <component base="anusvaradeva" xOffset="73" yOffset="117"/>
    <contour>
      <point x="205" y="570" type="move" name="_top"/>
    </contour>
  </outline>
</glyph>
<glyph name="anusvaradeva" format="1">
  <advance width="234"/>
  <unicode hex="0902"/>
  <outline>
    <contour>
      <point x="131" y="777"/>
      <point x="95" y="776"/>
      <point x="75" y="756" type="curve" smooth="yes"/>
      <point x="54" y="735"/>
      <point x="54" y="700"/>
      <point x="78" y="676" type="curve" smooth="yes"/>
      <point x="102" y="652"/>
      <point x="137" y="652"/>
      <point x="158" y="673" type="curve" smooth="yes"/>
      <point x="178" y="693"/>
      <point x="181" y="727"/>
      <point x="155" y="753" type="curve" smooth="yes"/>
    </contour>
    <contour>
      <point x="106" y="580" type="move" name="_top"/>
    </contour>
  </outline>
</glyph>
<glyph name="adeva" format="1">
  <advance width="770"/>
  <unicode hex="0905"/>
  <outline>
    <contour>
      <point x="512" y="255"/>
      <point x="431" y="215"/>
      <point x="335" y="290" type="curve"/>
      <point x="367" y="228" type="line"/>
      <point x="442" y="177"/>
      <point x="519" y="180"/>
      <point x="580" y="240" type="curve"/>
      <point x="561" y="318" type="line"/>
    </contour>
    <contour>
      <point x="117" y="468" type="line"/>
      <point x="161" y="499"/>
      <point x="210" y="520"/>
      <point x="259" y="520" type="curve" smooth="yes"/>
      <point x="302" y="520"/>
      <point x="335" y="504"/>
      <point x="335" y="451" type="curve" smooth="yes"/>
      <point x="335" y="380"/>
      <point x="277" y="363"/>
      <point x="210" y="351" type="curve" smooth="yes"/>
      <point x="142" y="339" type="line"/>
      <point x="159" y="276" type="line"/>
      <point x="211" y="283" type="line" smooth="yes"/>
      <point x="297" y="295"/>
      <point x="382" y="347"/>
      <point x="382" y="440" type="curve" smooth="yes"/>
      <point x="382" y="533"/>
      <point x="316" y="589"/>
      <point x="234" y="589" type="curve" smooth="yes"/>
      <point x="186" y="589"/>
      <point x="128" y="570"/>
      <point x="81" y="537" type="curve"/>
    </contour>
    <contour>
      <point x="415" y="570" type="line"/>
      <point x="443" y="506" type="line"/>
      <point x="545" y="506" type="line"/>
      <point x="545" y="0" type="line"/>
      <point x="624" y="0" type="line"/>
      <point x="624" y="506" type="line"/>
      <point x="755" y="506" type="line"/>
      <point x="727" y="570" type="line"/>
    </contour>
    <contour>
      <point x="68" y="93"/>
      <point x="147" y="8"/>
      <point x="259" y="8" type="curve" smooth="yes"/>
      <point x="358" y="8"/>
      <point x="413" y="74"/>
      <point x="413" y="146" type="curve" smooth="yes"/>
      <point x="413" y="236"/>
      <point x="324" y="339"/>
      <point x="188" y="339" type="curve"/>
      <point x="188" y="313" type="line"/>
      <point x="274" y="313"/>
      <point x="329" y="238"/>
      <point x="329" y="169" type="curve" smooth="yes"/>
      <point x="329" y="110"/>
      <point x="290" y="73"/>
      <point x="232" y="73" type="curve" smooth="yes"/>
      <point x="151" y="73"/>
      <point x="87" y="147"/>
      <point x="44" y="228" type="curve"/>
      <point x="10" y="211" type="line"/>
    </contour>
    <contour>
      <point x="706" y="664" type="move" name="mark0"/>
    </contour>
  </outline>
</glyph>
<glyph name="iideva" format="1">
  <advance width="599"/>
  <unicode hex="0908"/>
  <note>
    dIi
  </note>
  <outline>
    <component base="ideva"/>
    <component base="uni0930094D" xOffset="279"/>
    <contour>
      <point x="395" y="537" type="move" name="top"/>
    </contour>
  </outline>
</glyph>
<glyph name="uudeva" format="1">
  <advance width="685"/>
  <unicode hex="090A"/>
  <outline>
    <contour>
      <point x="25" y="570" type="line"/>
      <point x="53" y="506" type="line"/>
      <point x="650" y="506" type="line"/>
      <point x="622" y="570" type="line"/>
    </contour>
    <contour>
      <point x="118" y="93"/>
      <point x="197" y="8"/>
      <point x="309" y="8" type="curve" smooth="yes"/>
      <point x="408" y="8"/>
      <point x="463" y="74"/>
      <point x="463" y="146" type="curve" smooth="yes"/>
      <point x="463" y="236"/>
      <point x="374" y="339"/>
      <point x="238" y="339" type="curve"/>
      <point x="238" y="313" type="line"/>
      <point x="324" y="313"/>
      <point x="379" y="238"/>
      <point x="379" y="169" type="curve" smooth="yes"/>
      <point x="379" y="110"/>
      <point x="340" y="73"/>
      <point x="282" y="73" type="curve" smooth="yes"/>
      <point x="201" y="73"/>
      <point x="137" y="147"/>
      <point x="94" y="228" type="curve"/>
      <point x="60" y="211" type="line"/>
    </contour>
    <contour>
      <point x="311" y="546" type="line"/>
      <point x="388" y="458"/>
      <point x="395" y="373"/>
      <point x="182" y="337" type="curve"/>
      <point x="200" y="274" type="line"/>
      <point x="257" y="283" type="line" smooth="yes"/>
      <point x="428" y="309"/>
      <point x="460" y="461"/>
      <point x="339" y="560" type="curve"/>
    </contour>
    <contour>
      <point x="450" y="343"/>
      <point x="381" y="277" type="curve"/>
      <point x="435" y="216" type="line"/>
      <point x="490" y="294"/>
      <point x="552" y="311"/>
      <point x="579" y="291" type="curve" smooth="yes"/>
      <point x="604" y="271"/>
      <point x="596" y="218"/>
      <point x="517" y="153" type="curve"/>
      <point x="571" y="95" type="line"/>
      <point x="661" y="185"/>
      <point x="673" y="283"/>
      <point x="606" y="324" type="curve" smooth="yes"/>
      <point x="539" y="367"/>
    </contour>
    <contour>
      <point x="425" y="664" type="move" name="mark0"/>
    </contour>
  </outline>
</glyph>
<glyph name="edeva" format="1">
  <advance width="617"/>
  <unicode hex="090F"/>
  <note>
    dE
  </note>
  <outline>
    <contour>
      <point x="602" y="506" type="line"/>
      <point x="574" y="570" type="line"/>
      <point x="15" y="570" type="line"/>
      <point x="43" y="506" type="line"/>
    </contour>
    <contour>
      <point x="419" y="522" type="line"/>
      <point x="419" y="315" type="line" smooth="yes"/>
      <point x="419" y="250"/>
      <point x="406" y="225"/>
      <point x="362" y="199" type="curve"/>
      <point x="393" y="159" type="line"/>
      <point x="459" y="198"/>
      <point x="498" y="242"/>
      <point x="498" y="328" type="curve" smooth="yes"/>
      <point x="498" y="522" type="line"/>
    </contour>
    <contour>
      <point x="121" y="522" type="line"/>
      <point x="121" y="291" type="line" smooth="yes"/>
      <point x="121" y="224"/>
      <point x="144" y="187"/>
      <point x="193" y="154" type="curve" smooth="yes"/>
      <point x="372" y="34" type="line" smooth="yes"/>
      <point x="412" y="7"/>
      <point x="406" y="-31"/>
      <point x="340" y="-102" type="curve"/>
      <point x="410" y="-153" type="line"/>
      <point x="479" y="-74"/>
      <point x="505" y="-2"/>
      <point x="433" y="45" type="curve" smooth="yes"/>
      <point x="259" y="159" type="line" smooth="yes"/>
      <point x="216" y="187"/>
      <point x="200" y="208"/>
      <point x="200" y="260" type="curve" smooth="yes"/>
      <point x="200" y="522" type="line"/>
    </contour>
    <contour>
      <point x="305" y="566" type="move" name="top"/>
    </contour>
    <contour>
      <point x="40" y="0" type="move" name="bottom"/>
    </contour>
  </outline>
</glyph>
<glyph name="ocandradeva" format="1">
  <advance width="1027"/>
  <unicode hex="0911"/>
  <note>
    dCandraO
  </note>
  <outline>
    <component base="aadeva"/>
    <component base="ecandravowelsigndeva" xOffset="627" yOffset="-1"/>
    <contour>
      <point x="823" y="672" type="move" name="top"/>
    </contour>
  </outline>
</glyph>
<glyph name="cadeva" format="1">
  <advance width="684"/>
  <unicode hex="091A"/>
  <note>
    dCa
  </note>
  <outline>
    <contour>
      <point x="249" y="371"/>
      <point x="156" y="303"/>
      <point x="156" y="219" type="curve" smooth="yes"/>
      <point x="156" y="142"/>
      <point x="233" y="82"/>
      <point x="330" y="82" type="curve" smooth="yes"/>
      <point x="390" y="82"/>
      <point x="424" y="105"/>
      <point x="472" y="136" type="curve"/>
      <point x="472" y="266" type="line"/>
      <point x="424" y="168"/>
      <point x="359" y="133"/>
      <point x="301" y="133" type="curve" smooth="yes"/>
      <point x="250" y="133"/>
      <point x="232" y="161"/>
      <point x="232" y="196" type="curve" smooth="yes"/>
      <point x="232" y="256"/>
      <point x="285" y="338"/>
      <point x="398" y="338" type="curve"/>
      <point x="398" y="371" type="line"/>
    </contour>
    <contour>
      <point x="100" y="402" type="line"/>
      <point x="128" y="338" type="line"/>
      <point x="416" y="338" type="line"/>
      <point x="389" y="402" type="line"/>
    </contour>
    <contour>
      <point x="15" y="570" type="line"/>
      <point x="43" y="506" type="line"/>
      <point x="463" y="506" type="line"/>
      <point x="463" y="0" type="line"/>
      <point x="542" y="0" type="line"/>
      <point x="542" y="506" type="line"/>
      <point x="669" y="506" type="line"/>
      <point x="641" y="570" type="line"/>
    </contour>
    <contour>
      <point x="156" y="0" type="move" name="nukta"/>
    </contour>
    <contour>
      <point x="501" y="0" type="move" name="bottom"/>
    </contour>
    <contour>
      <point x="501" y="570" type="move" name="top"/>
    </contour>
  </outline>
</glyph>
<glyph name="jadeva" format="1">
  <advance width="757"/>
  <unicode hex="091C"/>
  <note>
    dJa
  </note>
  <outline>
    <contour>
      <point x="714" y="570" type="line"/>
      <point x="15" y="570" type="line"/>
      <point x="43" y="506" type="line"/>
      <point x="539" y="506" type="line"/>
      <point x="539" y="401" type="line"/>
      <point x="217" y="401" type="line"/>
      <point x="224" y="358" type="line"/>
      <point x="317" y="346"/>
      <point x="370" y="265"/>
      <point x="370" y="202" type="curve" smooth="yes"/>
      <point x="370" y="160"/>
      <point x="347" y="126"/>
      <point x="298" y="126" type="curve" smooth="yes"/>
      <point x="229" y="126"/>
      <point x="168" y="181"/>
      <point x="91" y="327" type="curve"/>
      <point x="55" y="314" type="line"/>
      <point x="126" y="143"/>
      <point x="194" y="42"/>
      <point x="320" y="42" type="curve" smooth="yes"/>
      <point x="409" y="42"/>
      <point x="450" y="98"/>
      <point x="450" y="164" type="curve" smooth="yes"/>
      <point x="450" y="220"/>
      <point x="421" y="284"/>
      <point x="367" y="328" type="curve"/>
      <point x="539" y="328" type="line"/>
      <point x="539" y="0" type="line"/>
      <point x="618" y="0" type="line"/>
      <point x="618" y="506" type="line"/>
      <point x="742" y="506" type="line"/>
    </contour>
    <contour>
      <point x="444" y="-34" type="move" name="nukta"/>
    </contour>
    <contour>
      <point x="577" y="0" type="move" name="bottom"/>
    </contour>
    <contour>
      <point x="577" y="570" type="move" name="top"/>
    </contour>
  </outline>
</glyph>
<glyph name="jhadeva" format="1">
  <advance width="826"/>
  <unicode hex="091D"/>
  <note>
    dJha
  </note>
  <outline>
    <contour>
      <point x="424" y="215" type="line"/>
      <point x="442" y="164" type="line"/>
      <point x="619" y="146" type="line"/>
      <point x="619" y="215" type="line"/>
    </contour>
    <contour>
      <point x="602" y="539" type="line"/>
      <point x="602" y="0" type="line"/>
      <point x="681" y="0" type="line"/>
      <point x="681" y="539" type="line"/>
    </contour>
    <contour>
      <point x="15" y="570" type="line"/>
      <point x="43" y="506" type="line"/>
      <point x="378" y="506" type="line"/>
      <point x="378" y="347" type="line"/>
      <point x="457" y="347" type="line"/>
      <point x="457" y="506" type="line"/>
      <point x="811" y="506" type="line"/>
      <point x="783" y="570" type="line"/>
    </contour>
    <contour>
      <point x="223" y="419" type="line"/>
      <point x="160.747" y="419"/>
      <point x="113" y="370.215"/>
      <point x="113" y="300" type="curve"/>
      <point x="113" y="202.326"/>
      <point x="205.907" y="136.984"/>
      <point x="279.324" y="149.053" type="curve"/>
      <point x="299.065" y="153.012"/>
      <point x="319.098" y="162.027"/>
      <point x="337.632" y="168.205" type="curve"/>
      <point x="403.982" y="190.988"/>
      <point x="423" y="181.931"/>
      <point x="423" y="130" type="curve" smooth="yes"/>
      <point x="423" y="57"/>
      <point x="368" y="25"/>
      <point x="286" y="25" type="curve" smooth="yes"/>
      <point x="245" y="25"/>
      <point x="198" y="34"/>
      <point x="148" y="59" type="curve"/>
      <point x="118" y="41" type="line"/>
      <point x="166" y="-19"/>
      <point x="243" y="-48"/>
      <point x="316" y="-48" type="curve" smooth="yes"/>
      <point x="406" y="-48"/>
      <point x="490" y="-11"/>
      <point x="490" y="87" type="curve" smooth="yes"/>
      <point x="490" y="162.578"/>
      <point x="433.552" y="257"/>
      <point x="359" y="257" type="curve"/>
      <point x="298.78" y="257"/>
      <point x="236.91" y="198.124"/>
      <point x="200.099" y="222.342" type="curve"/>
      <point x="186.752" y="231.556"/>
      <point x="176" y="246.788"/>
      <point x="176" y="276" type="curve"/>
      <point x="176" y="318.996"/>
      <point x="199.337" y="347"/>
      <point x="266" y="347" type="curve"/>
      <point x="455" y="347" type="line"/>
      <point x="389.216" y="419" type="line"/>
    </contour>
    <contour>
      <point x="193" y="110"/>
      <point x="163" y="133"/>
      <point x="131" y="133" type="curve" smooth="yes"/>
      <point x="101" y="133"/>
      <point x="73" y="116"/>
      <point x="73" y="74" type="curve" smooth="yes"/>
      <point x="73" y="6"/>
      <point x="138" y="-92"/>
      <point x="202" y="-186" type="curve"/>
      <point x="265" y="-132" type="line"/>
      <point x="213" y="-89"/>
      <point x="184" y="-58"/>
      <point x="153" y="3" type="curve"/>
      <point x="176" y="16"/>
      <point x="193" y="33"/>
      <point x="193" y="68" type="curve" smooth="yes"/>
    </contour>
    <contour>
      <point x="77" y="-59" type="move" name="nukta"/>
    </contour>
    <contour>
      <point x="642" y="0" type="move" name="bottom"/>
    </contour>
    <contour>
      <point x="642" y="570" type="move" name="top"/>
    </contour>
  </outline>
</glyph>
<glyph name="ttadeva" format="1">
  <advance width="619"/>
  <unicode hex="091F"/>
  <note>
    dTta
  </note>
  <outline>
    <contour>
      <point x="225" y="56"/>
      <point x="174" y="105"/>
      <point x="174" y="187" type="curve" smooth="yes"/>
      <point x="174" y="273"/>
      <point x="228" y="323"/>
      <point x="309" y="323" type="curve" smooth="yes"/>
      <point x="460" y="323" type="line"/>
      <point x="460" y="506" type="line"/>
      <point x="604" y="506" type="line"/>
      <point x="576" y="570" type="line"/>
      <point x="15" y="570" type="line"/>
      <point x="43" y="506" type="line"/>
      <point x="381" y="506" type="line"/>
      <point x="381" y="396" type="line"/>
      <point x="310" y="396" type="line" smooth="yes"/>
      <point x="198" y="396"/>
      <point x="103" y="337"/>
      <point x="103" y="224" type="curve" smooth="yes"/>
      <point x="103" y="110"/>
      <point x="198" y="-6"/>
      <point x="346" y="-6" type="curve" smooth="yes"/>
      <point x="412" y="-6"/>
      <point x="464" y="19"/>
      <point x="527" y="79" type="curve"/>
      <point x="472" y="147" type="line"/>
      <point x="405" y="74"/>
      <point x="356" y="56"/>
      <point x="306" y="56" type="curve" smooth="yes"/>
    </contour>
    <contour>
      <point x="42" y="29" type="move" name="nukta"/>
    </contour>
    <contour>
      <point x="350" y="9" type="move" name="bottom"/>
    </contour>
    <contour>
      <point x="418" y="570" type="move" name="top"/>
    </contour>
  </outline>
</glyph>
<glyph name="ddadeva" format="1">
  <advance width="599"/>
  <unicode hex="0921"/>
  <note>
    dDda
  </note>
  <outline>
    <contour>
      <point x="77" y="193" type="line"/>
      <point x="131" y="80"/>
      <point x="212" y="-15"/>
      <point x="345" y="-15" type="curve" smooth="yes"/>
      <point x="465" y="-15"/>
      <point x="500" y="63"/>
      <point x="499" y="141" type="curve" smooth="yes"/>
      <point x="498" y="228"/>
      <point x="425" y="289"/>
      <point x="373" y="289" type="curve" smooth="yes"/>
      <point x="319" y="289"/>
      <point x="279" y="260"/>
      <point x="241" y="260" type="curve" smooth="yes"/>
      <point x="218" y="260"/>
      <point x="198" y="278"/>
      <point x="198" y="306" type="curve" smooth="yes"/>
      <point x="198" y="359"/>
      <point x="220" y="381"/>
      <point x="272" y="381" type="curve" smooth="yes"/>
      <point x="460" y="381" type="line"/>
      <point x="384" y="445" type="line"/>
      <point x="243" y="445" type="line" smooth="yes"/>
      <point x="183" y="445"/>
      <point x="137" y="410"/>
      <point x="139" y="349" type="curve" smooth="yes"/>
      <point x="142" y="259"/>
      <point x="211" y="193"/>
      <point x="263" y="193" type="curve" smooth="yes"/>
      <point x="309" y="193"/>
      <point x="362" y="221"/>
      <point x="403" y="220" type="curve" smooth="yes"/>
      <point x="434" y="220"/>
      <point x="453" y="193"/>
      <point x="453" y="156" type="curve" smooth="yes"/>
      <point x="453" y="111"/>
      <point x="413" y="61"/>
      <point x="318" y="61" type="curve" smooth="yes"/>
      <point x="246" y="61"/>
      <point x="178" y="90"/>
      <point x="109" y="215" type="curve"/>
    </contour>
    <contour>
      <point x="460" y="506" type="line"/>
      <point x="584" y="506" type="line"/>
      <point x="556" y="570" type="line"/>
      <point x="15" y="570" type="line"/>
      <point x="43" y="506" type="line"/>
      <point x="381" y="506" type="line"/>
      <point x="381" y="405" type="line"/>
      <point x="460" y="381" type="line"/>
    </contour>
    <contour>
      <point x="32" y="24" type="move" name="nukta"/>
    </contour>
    <contour>
      <point x="345" y="0" type="move" name="bottom"/>
    </contour>
    <contour>
      <point x="422" y="570" type="move" name="top"/>
    </contour>
  </outline>
</glyph>
<glyph name="tadeva" format="1">
  <advance width="637"/>
  <unicode hex="0924"/>
  <note>
    dTa
  </note>
  <outline>
    <contour>
      <point x="472" y="333" type="line"/>
      <point x="445" y="397" type="line"/>
      <point x="265" y="397" type="line" smooth="yes"/>
      <point x="167" y="397"/>
      <point x="104" y="359"/>
      <point x="104" y="263" type="curve" smooth="yes"/>
      <point x="104" y="177"/>
      <point x="155" y="82"/>
      <point x="280" y="-7" type="curve"/>
      <point x="307" y="18" type="line"/>
      <point x="229" y="79"/>
      <point x="185" y="167"/>
      <point x="185" y="237" type="curve" smooth="yes"/>
      <point x="185" y="294"/>
      <point x="213" y="333"/>
      <point x="276" y="333" type="curve" smooth="yes"/>
    </contour>
    <contour>
      <point x="498" y="506" type="line"/>
      <point x="622" y="506" type="line"/>
      <point x="594" y="570" type="line"/>
      <point x="15" y="570" type="line"/>
      <point x="43" y="506" type="line"/>
      <point x="419" y="506" type="line"/>
      <point x="419" y="0" type="line"/>
      <point x="498" y="0" type="line"/>
    </contour>
    <contour>
      <point x="57" y="0" type="move" name="nukta"/>
    </contour>
    <contour>
      <point x="455" y="0" type="move" name="bottom"/>
    </contour>
    <contour>
      <point x="455" y="580" type="move" name="top"/>
    </contour>
  </outline>
</glyph>
<glyph name="thadeva" format="1">
  <advance width="633"/>
  <unicode hex="0925"/>
  <note>
    dTha
  </note>
  <outline>
    <contour>
      <point x="197" y="331" type="line"/>
      <point x="144" y="374"/>
      <point x="120" y="418"/>
      <point x="120" y="474" type="curve" smooth="yes"/>
      <point x="120" y="518"/>
      <point x="139" y="538"/>
      <point x="171" y="538" type="curve" smooth="yes"/>
      <point x="198" y="538"/>
      <point x="227" y="523"/>
      <point x="227" y="455" type="curve" smooth="yes"/>
      <point x="227" y="355"/>
      <point x="172" y="324"/>
      <point x="69" y="293" type="curve"/>
      <point x="72" y="255" type="line"/>
      <point x="129" y="148"/>
      <point x="199" y="76"/>
      <point x="415" y="130" type="curve"/>
      <point x="415" y="0" type="line"/>
      <point x="494" y="0" type="line"/>
      <point x="494" y="506" type="line"/>
      <point x="618" y="506" type="line"/>
      <point x="590" y="570" type="line"/>
      <point x="296" y="570" type="line"/>
      <point x="324" y="506" type="line"/>
      <point x="415" y="506" type="line"/>
      <point x="415" y="219" type="line"/>
      <point x="376" y="193"/>
      <point x="327" y="180"/>
      <point x="281" y="180" type="curve" smooth="yes"/>
      <point x="221" y="180"/>
      <point x="165" y="202"/>
      <point x="132" y="246" type="curve"/>
      <point x="223" y="275"/>
      <point x="298" y="333"/>
      <point x="298" y="415" type="curve" smooth="yes"/>
      <point x="298" y="492"/>
      <point x="232" y="584"/>
      <point x="139" y="584" type="curve" smooth="yes"/>
      <point x="76" y="584"/>
      <point x="40" y="547"/>
      <point x="40" y="488" type="curve" smooth="yes"/>
      <point x="40" y="419"/>
      <point x="91" y="355"/>
      <point x="172" y="315" type="curve"/>
    </contour>
    <contour>
      <point x="188" y="0" type="move" name="nukta"/>
    </contour>
    <contour>
      <point x="457" y="0" type="move" name="bottom"/>
    </contour>
    <contour>
      <point x="457" y="570" type="move" name="top"/>
    </contour>
  </outline>
</glyph>
<glyph name="dadeva" format="1">
  <advance width="604"/>
  <unicode hex="0926"/>
  <note>
    dDa
  </note>
  <outline>
    <contour>
      <point x="509" y="154"/>
      <point x="479" y="176"/>
      <point x="447" y="176" type="curve" smooth="yes"/>
      <point x="410" y="176"/>
      <point x="378" y="145"/>
      <point x="404" y="66" type="curve" smooth="yes"/>
      <point x="423" y="7"/>
      <point x="472" y="-75"/>
      <point x="518" y="-143" type="curve"/>
      <point x="581" y="-89" type="line"/>
      <point x="529" y="-46"/>
      <point x="497" y="-13"/>
      <point x="466" y="38" type="curve"/>
      <point x="488" y="53"/>
      <point x="509" y="76"/>
      <point x="509" y="111" type="curve" smooth="yes"/>
    </contour>
    <contour>
      <point x="428" y="124" type="line"/>
      <point x="382" y="87"/>
      <point x="344" y="76"/>
      <point x="306" y="76" type="curve" smooth="yes"/>
      <point x="225" y="77"/>
      <point x="174" y="126"/>
      <point x="174" y="206" type="curve" smooth="yes"/>
      <point x="174" y="289"/>
      <point x="228" y="323"/>
      <point x="309" y="323" type="curve" smooth="yes"/>
      <point x="460" y="323" type="line"/>
      <point x="460" y="506" type="line"/>
      <point x="604" y="506" type="line"/>
      <point x="576" y="570" type="line"/>
      <point x="15" y="570" type="line"/>
      <point x="43" y="506" type="line"/>
      <point x="381" y="506" type="line"/>
      <point x="381" y="396" type="line"/>
      <point x="310" y="396" type="line" smooth="yes"/>
      <point x="198" y="396"/>
      <point x="113" y="340"/>
      <point x="113" y="234" type="curve" smooth="yes"/>
      <point x="113" y="130"/>
      <point x="198" y="14"/>
      <point x="346" y="14" type="curve" smooth="yes"/>
      <point x="392" y="14"/>
      <point x="431" y="26"/>
      <point x="471" y="53" type="curve"/>
    </contour>
    <contour>
      <point x="92" y="0" type="move" name="nukta"/>
    </contour>
    <contour>
      <point x="375" y="-35" type="move" name="bottom"/>
    </contour>
    <contour>
      <point x="419" y="570" type="move" name="top"/>
    </contour>
  </outline>
</glyph>
<glyph name="nadeva" format="1">
  <advance width="614"/>
  <unicode hex="0928"/>
  <note>
    dNa
  </note>
  <outline>
    <contour>
      <point x="599" y="506" type="line"/>
      <point x="571" y="570" type="line"/>
      <point x="15" y="570" type="line"/>
      <point x="43" y="506" type="line"/>
      <point x="393" y="506" type="line"/>
      <point x="393" y="346" type="line"/>
      <point x="156" y="346" type="line"/>
      <point x="157" y="282" type="line"/>
      <point x="393" y="282" type="line"/>
      <point x="393" y="0" type="line"/>
      <point x="472" y="0" type="line"/>
      <point x="472" y="506" type="line"/>
    </contour>
    <component base="deva_knot" xOffset="46" yOffset="23"/>
    <contour>
      <point x="122" y="0" type="move" name="nukta"/>
    </contour>
    <contour>
      <point x="429" y="0" type="move" name="bottom"/>
    </contour>
    <contour>
      <point x="429" y="570" type="move" name="top"/>
    </contour>
  </outline>
</glyph>
<glyph name="padeva" format="1">
  <advance width="611"/>
  <unicode hex="092A"/>
  <note>
    dPa
  </note>
  <outline>
    <contour>
      <point x="438" y="345" type="line"/>
      <point x="401" y="246"/>
      <point x="334" y="199"/>
      <point x="264" y="199" type="curve" smooth="yes"/>
      <point x="226" y="199"/>
      <point x="199" y="228"/>
      <point x="199" y="275" type="curve" smooth="yes"/>
      <point x="199" y="526" type="line"/>
      <point x="120" y="526" type="line"/>
      <point x="120" y="385" type="line" smooth="yes"/>
      <point x="120" y="239"/>
      <point x="181" y="147"/>
      <point x="300" y="147" type="curve" smooth="yes"/>
      <point x="366" y="147"/>
      <point x="431" y="179"/>
      <point x="471" y="236" type="curve"/>
    </contour>
    <contour>
      <point x="15" y="570" type="line"/>
      <point x="43" y="506" type="line"/>
      <point x="411" y="506" type="line"/>
      <point x="411" y="0" type="line"/>
      <point x="490" y="0" type="line"/>
      <point x="490" y="506" type="line"/>
      <point x="596" y="506" type="line"/>
      <point x="568" y="570" type="line"/>
    </contour>
    <contour>
      <point x="105" y="68" type="move" name="nukta"/>
    </contour>
    <contour>
      <point x="454" y="0" type="move" name="bottom"/>
    </contour>
    <contour>
      <point x="454" y="570" type="move" name="top"/>
    </contour>
  </outline>
</glyph>
<glyph name="uni092C" format="1">
  <advance width="645"/>
  <unicode hex="092C"/>
  <note>
    dBa
  </note>
  <outline>
    <contour>
      <point x="131" y="370" type="line"/>
      <point x="105" y="334" type="line"/>
      <point x="411" y="146" type="line"/>
      <point x="436" y="182" type="line"/>
    </contour>
    <component base="vadeva"/>
    <contour>
      <point x="105" y="0" type="move" name="nukta"/>
    </contour>
    <contour>
      <point x="456" y="0" type="move" name="bottom"/>
    </contour>
    <contour>
      <point x="456" y="570" type="move" name="top"/>
    </contour>
  </outline>
</glyph>
<glyph name="bhadeva" format="1">
  <advance width="655"/>
  <unicode hex="092D"/>
  <note>
    dBha
  </note>
  <outline>
    <contour>
      <point x="221" y="413" type="line" smooth="yes"/>
      <point x="153" y="424"/>
      <point x="113" y="462"/>
      <point x="113" y="504" type="curve"/>
      <point x="113" y="531"/>
      <point x="124" y="547"/>
      <point x="150" y="547" type="curve" smooth="yes"/>
      <point x="217" y="547"/>
      <point x="198" y="406"/>
      <point x="187" y="240" type="curve"/>
      <point x="457" y="240" type="line"/>
      <point x="457" y="0" type="line"/>
      <point x="536" y="0" type="line"/>
      <point x="536" y="506" type="line"/>
      <point x="640" y="506" type="line"/>
      <point x="612" y="570" type="line"/>
      <point x="323" y="570" type="line"/>
      <point x="351" y="506" type="line"/>
      <point x="457" y="506" type="line"/>
      <point x="457" y="304" type="line"/>
      <point x="276" y="304" type="line"/>
      <point x="279" y="356" type="line" smooth="yes"/>
      <point x="284" y="502"/>
      <point x="226" y="592"/>
      <point x="124" y="592" type="curve" smooth="yes"/>
      <point x="73" y="592"/>
      <point x="40" y="560"/>
      <point x="40" y="511" type="curve" smooth="yes"/>
      <point x="40" y="432"/>
      <point x="128" y="377"/>
      <point x="217" y="370" type="curve"/>
    </contour>
    <contour>
      <point x="251" y="156"/>
      <point x="270" y="177"/>
      <point x="271" y="215" type="curve" smooth="yes"/>
      <point x="273" y="268" type="line"/>
      <point x="235" y="304" type="line"/>
      <point x="175" y="304" type="line" smooth="yes"/>
      <point x="142" y="304"/>
      <point x="125" y="287"/>
      <point x="125" y="260" type="curve" smooth="yes"/>
      <point x="125" y="214"/>
      <point x="193" y="156"/>
      <point x="223" y="156" type="curve" smooth="yes"/>
    </contour>
    <contour>
      <point x="202" y="0" type="move" name="nukta"/>
    </contour>
    <contour>
      <point x="495" y="0" type="move" name="bottom"/>
    </contour>
    <contour>
      <point x="495" y="570" type="move" name="top"/>
    </contour>
  </outline>
</glyph>
<glyph name="radeva" format="1">
  <advance width="468"/>
  <unicode hex="0930"/>
  <note>
    dRa
  </note>
  <outline>
    <contour>
      <point x="15" y="570" type="line"/>
      <point x="43" y="506" type="line"/>
      <point x="453" y="506" type="line"/>
      <point x="425" y="570" type="line"/>
    </contour>
    <contour>
      <point x="414" y="56" type="line"/>
      <point x="305" y="35"/>
      <point x="200" y="95"/>
      <point x="164" y="198" type="curve"/>
      <point x="279" y="191"/>
      <point x="345" y="333"/>
      <point x="286" y="513" type="curve"/>
      <point x="225" y="513" type="line"/>
      <point x="262" y="418"/>
      <point x="257" y="342"/>
      <point x="213" y="295" type="curve"/>
      <point x="194" y="321"/>
      <point x="178" y="337"/>
      <point x="142" y="337" type="curve" smooth="yes"/>
      <point x="107" y="337"/>
      <point x="83" y="313"/>
      <point x="83" y="278" type="curve" smooth="yes"/>
      <point x="83" y="179"/>
      <point x="184" y="-26"/>
      <point x="393" y="-27" type="curve"/>
    </contour>
    <contour>
      <point x="100" y="-20" type="move" name="nukta"/>
    </contour>
    <contour>
      <point x="363" y="0" type="move" name="bottom"/>
    </contour>
    <contour>
      <point x="250" y="570" type="move" name="top"/>
    </contour>
  </outline>
</glyph>
<glyph name="lladeva" format="1">
  <advance width="796"/>
  <unicode hex="0933"/>
  <note>
    dLla
  </note>
  <outline>
    <contour>
      <point x="15" y="570" type="line"/>
      <point x="43" y="506" type="line"/>
      <point x="551" y="506" type="line"/>
      <point x="551" y="380" type="line"/>
      <point x="630" y="350" type="line"/>
      <point x="630" y="506" type="line"/>
      <point x="781" y="506" type="line"/>
      <point x="753" y="570" type="line"/>
    </contour>
    <contour>
      <point x="395" y="307" type="line"/>
      <point x="337" y="366"/>
      <point x="279" y="410"/>
      <point x="207" y="410" type="curve" smooth="yes"/>
      <point x="126" y="410"/>
      <point x="59" y="357"/>
      <point x="59" y="263" type="curve" smooth="yes"/>
      <point x="59" y="165"/>
      <point x="126" y="73"/>
      <point x="233" y="73" type="curve" smooth="yes"/>
      <point x="307" y="73"/>
      <point x="362" y="104"/>
      <point x="424" y="216" type="curve" smooth="yes"/>
      <point x="466" y="296"/>
      <point x="520" y="333"/>
      <point x="572" y="333" type="curve" smooth="yes"/>
      <point x="616" y="333"/>
      <point x="648" y="303"/>
      <point x="648" y="248" type="curve" smooth="yes"/>
      <point x="648" y="184"/>
      <point x="608" y="147"/>
      <point x="538" y="147" type="curve" smooth="yes"/>
      <point x="495" y="147"/>
      <point x="444" y="158"/>
      <point x="380" y="214" type="curve"/>
      <point x="356" y="183" type="line"/>
      <point x="427" y="109"/>
      <point x="486" y="70"/>
      <point x="553" y="71" type="curve" smooth="yes"/>
      <point x="620" y="71"/>
      <point x="701" y="111"/>
      <point x="701" y="219" type="curve" smooth="yes"/>
      <point x="701" y="333"/>
      <point x="621" y="407"/>
      <point x="534" y="407" type="curve" smooth="yes"/>
      <point x="479" y="407"/>
      <point x="414" y="367"/>
      <point x="364" y="267" type="curve" smooth="yes"/>
      <point x="311" y="161"/>
      <point x="259" y="140"/>
      <point x="207" y="140" type="curve" smooth="yes"/>
      <point x="163" y="140"/>
      <point x="111" y="167"/>
      <point x="111" y="233" type="curve" smooth="yes"/>
      <point x="111" y="285"/>
      <point x="148" y="335"/>
      <point x="218" y="335" type="curve" smooth="yes"/>
      <point x="271" y="335"/>
      <point x="308" y="325"/>
      <point x="386" y="262" type="curve"/>
    </contour>
    <contour>
      <point x="387" y="26" type="move" name="nukta"/>
    </contour>
    <contour>
      <point x="559" y="29" type="move" name="bottom"/>
    </contour>
    <contour>
      <point x="591" y="570" type="move" name="top"/>
    </contour>
  </outline>
</glyph>
<glyph name="hadeva" format="1">
  <advance width="599"/>
  <unicode hex="0939"/>
  <note>
    dHa
  </note>
  <outline>
    <contour>
      <point x="234" y="237" type="line"/>
      <point x="209" y="261"/>
      <point x="196" y="288"/>
      <point x="196" y="311" type="curve" smooth="yes"/>
      <point x="196" y="340"/>
      <point x="218" y="362"/>
      <point x="262" y="362" type="curve" smooth="yes"/>
      <point x="460" y="362" type="line"/>
      <point x="460" y="506" type="line"/>
      <point x="584" y="506" type="line"/>
      <point x="556" y="570" type="line"/>
      <point x="15" y="570" type="line"/>
      <point x="43" y="506" type="line"/>
      <point x="381" y="506" type="line"/>
      <point x="381" y="426" type="line"/>
      <point x="233" y="426" type="line" smooth="yes"/>
      <point x="149" y="426"/>
      <point x="106" y="386"/>
      <point x="106" y="337" type="curve" smooth="yes"/>
      <point x="106" y="296"/>
      <point x="134" y="250"/>
      <point x="192" y="212" type="curve"/>
    </contour>
    <contour>
      <point x="509" y="84"/>
      <point x="509" y="123" type="curve" smooth="yes"/>
      <point x="509" y="228"/>
      <point x="412" y="282"/>
      <point x="315" y="282" type="curve" smooth="yes"/>
      <point x="219" y="282"/>
      <point x="123" y="229"/>
      <point x="123" y="118" type="curve" smooth="yes"/>
      <point x="123" y="14"/>
      <point x="223" y="-104"/>
      <point x="428" y="-132" type="curve"/>
      <point x="439" y="-94" type="line"/>
      <point x="263" y="-60"/>
      <point x="212" y="14"/>
      <point x="209" y="85" type="curve" smooth="yes"/>
      <point x="206" y="167"/>
      <point x="270" y="201"/>
      <point x="343" y="201" type="curve" smooth="yes"/>
      <point x="417" y="201"/>
      <point x="454" y="167"/>
      <point x="454" y="132" type="curve" smooth="yes"/>
      <point x="454" y="108"/>
      <point x="437" y="83"/>
      <point x="402" y="68" type="curve"/>
      <point x="446" y="19" type="line"/>
      <point x="490" y="47"/>
    </contour>
    <contour>
      <point x="22" y="-98" type="move" name="nukta"/>
    </contour>
    <contour>
      <point x="355" y="-88" type="move" name="bottom"/>
    </contour>
    <contour>
      <point x="419" y="570" type="move" name="top"/>
    </contour>
  </outline>
</glyph>
<glyph name="uni093A" format="1">
  <advance width="179"/>
  <unicode hex="093A"/>
  <outline>
    <contour>
      <point x="129" y="709" type="line"/>
      <point x="50" y="709" type="line"/>
      <point x="50" y="533" type="line"/>
      <point x="129" y="533" type="line"/>
    </contour>
  </outline>
</glyph>
<glyph name="nuktadeva" format="1">
  <advance width="253"/>
  <unicode hex="093C"/>
  <outline>
    <component base="anusvaradeva" xOffset="8" yOffset="-861"/>
    <contour>
      <point x="129" y="-146" type="move" name="_nukta"/>
    </contour>
  </outline>
</glyph>
<glyph name="uni093E" format="1">
  <advance width="370"/>
  <unicode hex="093E"/>
  <outline>
    <contour>
      <point x="15" y="570" type="line"/>
      <point x="43" y="506" type="line"/>
      <point x="145" y="506" type="line"/>
      <point x="145" y="0" type="line"/>
      <point x="224" y="0" type="line"/>
      <point x="224" y="506" type="line"/>
      <point x="355" y="506" type="line"/>
      <point x="327" y="570" type="line"/>
    </contour>
    <contour>
      <point x="185" y="0" type="move" name="bottom"/>
    </contour>
    <contour>
      <point x="185" y="569" type="move" name="top"/>
    </contour>
  </outline>
</glyph>
<glyph name="uni093F" format="1">
  <advance width="288"/>
  <unicode hex="093F"/>
  <note>
    dMatraI
  </note>
  <outline>
    <contour>
      <point x="157" y="547" type="line"/>
      <point x="129" y="597"/>
      <point x="112" y="638"/>
      <point x="112" y="682" type="curve" smooth="yes"/>
      <point x="112" y="747"/>
      <point x="160" y="775"/>
      <point x="225" y="775" type="curve" smooth="yes"/>
      <point x="326" y="775"/>
      <point x="467" y="709"/>
      <point x="534" y="614" type="curve"/>
      <point x="570" y="626" type="line"/>
      <point x="482" y="761"/>
      <point x="319" y="840"/>
      <point x="195" y="841" type="curve" smooth="yes"/>
      <point x="103" y="841"/>
      <point x="32" y="798"/>
      <point x="32" y="702" type="curve" smooth="yes"/>
      <point x="32" y="648"/>
      <point x="72" y="588"/>
      <point x="110" y="538" type="curve"/>
    </contour>
    <contour>
      <point x="-41" y="570" type="line"/>
      <point x="-13" y="506" type="line"/>
      <point x="89" y="506" type="line"/>
      <point x="89" y="0" type="line"/>
      <point x="168" y="0" type="line"/>
      <point x="168" y="506" type="line"/>
      <point x="299" y="506" type="line"/>
      <point x="271" y="570" type="line"/>
    </contour>
    <contour>
      <point x="570" y="626" type="move" name="imatra"/>
    </contour>
    <contour>
      <point x="546" y="618" type="move" name="top"/>
    </contour>
  </outline>
</glyph>
<glyph name="uvowelsigndeva" format="1">
  <advance width="250"/>
  <unicode hex="0941"/>
  <note>
    dMatraU
  </note>
  <outline>
    <contour>
      <point x="122" y="-50"/>
      <point x="186" y="-58"/>
      <point x="201" y="-105" type="curve" smooth="yes"/>
      <point x="217" y="-153"/>
      <point x="168" y="-203"/>
      <point x="95" y="-203" type="curve" smooth="yes"/>
      <point x="48" y="-203"/>
      <point x="-13" y="-178"/>
      <point x="-51" y="-136" type="curve"/>
      <point x="-83" y="-164" type="line"/>
      <point x="-35" y="-227"/>
      <point x="25" y="-274"/>
      <point x="108" y="-274" type="curve" smooth="yes"/>
      <point x="200" y="-274"/>
      <point x="251" y="-220"/>
      <point x="251" y="-136" type="curve" smooth="yes"/>
      <point x="251" y="3"/>
      <point x="119" y="31"/>
      <point x="24" y="-34" type="curve"/>
      <point x="58" y="-91" type="line"/>
    </contour>
    <contour>
      <point x="125" y="0" type="move" name="_bottom"/>
    </contour>
  </outline>
</glyph>
<glyph name="uuvowelsigndeva" format="1">
  <advance width="250"/>
  <unicode hex="0942"/>
  <note>
    dMatraUu
  </note>
  <outline>
    <contour>
      <point x="116" y="-215"/>
      <point x="52" y="-207"/>
      <point x="37" y="-160" type="curve" smooth="yes"/>
      <point x="21" y="-112"/>
      <point x="70" y="-72"/>
      <point x="143" y="-72" type="curve" smooth="yes"/>
      <point x="202" y="-72"/>
      <point x="283" y="-114"/>
      <point x="329" y="-207" type="curve"/>
      <point x="361" y="-181" type="line"/>
      <point x="304" y="-76"/>
      <point x="229" y="-1"/>
      <point x="130" y="-1" type="curve" smooth="yes"/>
      <point x="8" y="-1"/>
      <point x="-42" y="-93"/>
      <point x="-7" y="-178" type="curve" smooth="yes"/>
      <point x="32" y="-272"/>
      <point x="131" y="-287"/>
      <point x="214" y="-231" type="curve"/>
      <point x="180" y="-174" type="line"/>
    </contour>
    <contour>
      <point x="125" y="0" type="move" name="_bottom"/>
    </contour>
  </outline>
</glyph>
<glyph name="ecandravowelsigndeva" format="1">
  <advance width="409"/>
  <unicode hex="0945"/>
  <outline>
    <contour>
      <point x="94" y="688"/>
      <point x="160" y="642"/>
      <point x="225" y="642" type="curve" smooth="yes"/>
      <point x="275" y="642"/>
      <point x="324" y="670"/>
      <point x="359" y="734" type="curve"/>
      <point x="305" y="786" type="line"/>
      <point x="270" y="737"/>
      <point x="233" y="714"/>
      <point x="196" y="713" type="curve" smooth="yes"/>
      <point x="156" y="713"/>
      <point x="118" y="739"/>
      <point x="84" y="789" type="curve"/>
      <point x="50" y="761" type="line"/>
    </contour>
    <contour>
      <point x="215" y="570" type="move" name="_top"/>
    </contour>
  </outline>
</glyph>
<glyph name="evowelsigndeva" format="1">
  <advance width="501"/>
  <unicode hex="0947"/>
  <outline>
    <contour>
      <point x="448" y="555" type="line"/>
      <point x="364" y="787"/>
      <point x="215" y="868"/>
      <point x="47" y="815" type="curve"/>
      <point x="79" y="744" type="line"/>
      <point x="231" y="780"/>
      <point x="318" y="715"/>
      <point x="402" y="555" type="curve"/>
    </contour>
    <contour>
      <point x="428" y="555" type="move" name="_top"/>
    </contour>
  </outline>
</glyph>
<glyph name="aivowelsigndeva" format="1">
  <advance width="444"/>
  <unicode hex="0948"/>
  <outline>
    <contour>
      <point x="394" y="555" type="line"/>
      <point x="399" y="818"/>
      <point x="222" y="889"/>
      <point x="69" y="822" type="curve"/>
      <point x="102" y="753" type="line"/>
      <point x="216" y="804"/>
      <point x="305" y="755"/>
      <point x="345" y="642" type="curve"/>
      <point x="293" y="640" type="line"/>
      <point x="367" y="608" type="line"/>
      <point x="319" y="713"/>
      <point x="189" y="770"/>
      <point x="50" y="691" type="curve"/>
      <point x="86" y="622" type="line"/>
      <point x="183" y="678"/>
      <point x="281" y="688"/>
      <point x="353" y="555" type="curve"/>
    </contour>
    <contour>
      <point x="371" y="555" type="move" name="_top"/>
    </contour>
  </outline>
</glyph>
<glyph name="viramadeva" format="1">
  <advance width="250"/>
  <unicode hex="094D"/>
  <note>
    dHalant
  </note>
  <outline>
    <contour>
      <point x="53" y="-127" type="line"/>
      <point x="166" y="-149"/>
      <point x="227" y="-194"/>
      <point x="276" y="-276" type="curve"/>
      <point x="310" y="-254" type="line"/>
      <point x="263" y="-144"/>
      <point x="185" y="-81"/>
      <point x="68" y="-62" type="curve"/>
    </contour>
    <contour>
      <point x="125" y="0" type="move" name="_bottom"/>
    </contour>
  </outline>
</glyph>
<glyph name="awVowel-deva" format="1">
  <advance width="273"/>
  <unicode hex="094F"/>
  <outline>
    <contour>
      <point x="110" y="-19" type="line"/>
      <point x="186" y="-50" type="line"/>
      <point x="186" y="514" type="line"/>
      <point x="303" y="514" type="line"/>
      <point x="278" y="580" type="line"/>
      <point x="-27" y="580" type="line"/>
      <point x="0" y="514" type="line"/>
      <point x="110" y="514" type="line"/>
    </contour>
    <contour>
      <point x="167" y="578" type="line"/>
      <point x="167" y="670"/>
      <point x="137" y="736"/>
      <point x="78" y="761" type="curve" smooth="yes"/>
      <point x="17" y="787"/>
      <point x="-62" y="787"/>
      <point x="-114" y="810" type="curve" smooth="yes"/>
      <point x="-148" y="825"/>
      <point x="-162" y="844"/>
      <point x="-192" y="911" type="curve"/>
      <point x="-214" y="883" type="line"/>
      <point x="-210" y="822"/>
      <point x="-197" y="773"/>
      <point x="-128" y="741" type="curve" smooth="yes"/>
      <point x="-73" y="715"/>
      <point x="8" y="721"/>
      <point x="60" y="704" type="curve" smooth="yes"/>
      <point x="126" y="681"/>
      <point x="133" y="632"/>
      <point x="149" y="563" type="curve"/>
    </contour>
    <contour>
      <point x="172" y="540" type="line"/>
      <point x="148" y="619"/>
      <point x="103" y="677"/>
      <point x="38" y="685" type="curve" smooth="yes"/>
      <point x="-27" y="693"/>
      <point x="-103" y="671"/>
      <point x="-159" y="679" type="curve" smooth="yes"/>
      <point x="-194" y="683"/>
      <point x="-218" y="701"/>
      <point x="-262" y="753" type="curve"/>
      <point x="-275" y="725" type="line"/>
      <point x="-262" y="676"/>
      <point x="-224" y="626"/>
      <point x="-152" y="614" type="curve" smooth="yes"/>
      <point x="-91" y="603"/>
      <point x="-10" y="625"/>
      <point x="42" y="623" type="curve" smooth="yes"/>
      <point x="97" y="620"/>
      <point x="121" y="598"/>
      <point x="161" y="515" type="curve"/>
    </contour>
  </outline>
</glyph>
<glyph name="anudattadeva" format="1">
  <advance width="0"/>
  <unicode hex="0952"/>
  <note>
    dAnudatta
  </note>
  <outline>
    <contour>
      <point x="-341" y="-123" type="line"/>
      <point x="-341" y="-177" type="line"/>
      <point x="-66" y="-177" type="line"/>
      <point x="-66" y="-123" type="line"/>
    </contour>
  </outline>
</glyph>
<glyph name="gravedeva" format="1">
  <advance width="0"/>
  <unicode hex="0953"/>
  <note>
    dGraveaccent
  </note>
  <outline>
    <contour>
      <point x="-158" y="670" type="line"/>
      <point x="-354" y="865" type="line"/>
      <point x="-405" y="825" type="line"/>
      <point x="-195" y="631" type="line"/>
    </contour>
  </outline>
</glyph>
<glyph name="acutedeva" format="1">
  <advance width="0"/>
  <unicode hex="0954"/>
  <note>
    dAcuteaccent
  </note>
  <outline>
    <contour>
      <point x="-158" y="825" type="line"/>
      <point x="-208" y="865" type="line"/>
      <point x="-405" y="670" type="line"/>
      <point x="-368" y="631" type="line"/>
    </contour>
  </outline>
</glyph>
<glyph name="rrvocalicdeva" format="1">
  <advance width="906"/>
  <unicode hex="0960"/>
  <note>
    dVocalicRr
  </note>
  <outline>
    <contour>
      <point x="535" y="255"/>
      <point x="593" y="290"/>
      <point x="618" y="317" type="curve"/>
      <point x="682" y="292"/>
      <point x="723" y="324"/>
      <point x="723" y="364" type="curve" smooth="yes"/>
      <point x="723" y="403"/>
      <point x="697" y="426"/>
      <point x="663" y="426" type="curve" smooth="yes"/>
      <point x="623" y="426"/>
      <point x="597" y="395"/>
      <point x="590" y="348" type="curve"/>
      <point x="559" y="323"/>
      <point x="520" y="310"/>
      <point x="478" y="310" type="curve"/>
      <point x="478" y="506" type="line"/>
      <point x="872" y="506" type="line"/>
      <point x="844" y="570" type="line"/>
      <point x="15" y="570" type="line"/>
      <point x="43" y="506" type="line"/>
      <point x="399" y="506" type="line"/>
      <point x="399" y="244" type="line"/>
      <point x="117" y="55" type="line"/>
      <point x="175" y="-6" type="line"/>
      <point x="399" y="156" type="line"/>
      <point x="399" y="0" type="line"/>
      <point x="478" y="0" type="line"/>
      <point x="478" y="254" type="line"/>
    </contour>
    <contour>
      <point x="602" y="337" type="line"/>
      <point x="553" y="289"/>
      <point x="546" y="237"/>
      <point x="566" y="208" type="curve" smooth="yes"/>
      <point x="585" y="179"/>
      <point x="641" y="164"/>
      <point x="691" y="179" type="curve"/>
      <point x="674" y="213" type="line"/>
      <point x="602" y="158"/>
      <point x="601" y="80"/>
      <point x="637" y="34" type="curve" smooth="yes"/>
      <point x="686" y="-30"/>
      <point x="780" y="-26"/>
      <point x="891" y="59" type="curve"/>
      <point x="846" y="128" type="line"/>
      <point x="759" y="59"/>
      <point x="701" y="43"/>
      <point x="681" y="68" type="curve" smooth="yes"/>
      <point x="657" y="109"/>
      <point x="691" y="158"/>
      <point x="795" y="203" type="curve"/>
      <point x="748" y="274" type="line"/>
      <point x="688" y="225"/>
      <point x="634" y="212"/>
      <point x="620" y="237" type="curve" smooth="yes"/>
      <point x="607" y="260"/>
      <point x="621" y="291"/>
      <point x="657" y="319" type="curve"/>
    </contour>
    <contour>
      <point x="329" y="387"/>
      <point x="237" y="430"/>
      <point x="157" y="430" type="curve" smooth="yes"/>
      <point x="117" y="430"/>
      <point x="79" y="418"/>
      <point x="43" y="396" type="curve"/>
      <point x="76" y="325" type="line"/>
      <point x="106" y="339"/>
      <point x="141" y="348"/>
      <point x="182" y="348" type="curve" smooth="yes"/>
      <point x="249" y="348"/>
      <point x="330" y="325"/>
      <point x="425" y="266" type="curve"/>
      <point x="449" y="300" type="line"/>
    </contour>
    <contour>
      <point x="381" y="580" type="move" name="top"/>
    </contour>
    <contour>
      <point x="381" y="0" type="move" name="bottom"/>
    </contour>
  </outline>
</glyph>
<glyph name="fourdeva" format="1">
  <advance width="517"/>
  <unicode hex="096A"/>
  <note>
    dFour
  </note>
  <outline>
    <contour>
      <point x="51" y="634" type="line"/>
      <point x="87" y="567"/>
      <point x="144" y="501"/>
      <point x="196" y="445" type="curve" smooth="yes"/>
      <point x="307" y="342"/>
      <point x="343" y="263"/>
      <point x="343" y="193" type="curve" smooth="yes"/>
      <point x="343" y="96"/>
      <point x="280" y="48"/>
      <point x="222" y="48" type="curve" smooth="yes"/>
      <point x="200" y="48"/>
      <point x="179" y="55"/>
      <point x="162" y="69" type="curve" smooth="yes"/>
      <point x="142" y="86"/>
      <point x="129" y="113"/>
      <point x="129" y="149" type="curve" smooth="yes"/>
      <point x="129" y="238"/>
      <point x="205" y="321"/>
      <point x="298" y="399" type="curve" smooth="yes"/>
      <point x="366" y="457"/>
      <point x="446" y="531"/>
      <point x="497" y="599" type="curve"/>
      <point x="435" y="666" type="line"/>
      <point x="389" y="593"/>
      <point x="314" y="518"/>
      <point x="241" y="453" type="curve" smooth="yes"/>
      <point x="141" y="364"/>
      <point x="56" y="268"/>
      <point x="56" y="162" type="curve" smooth="yes"/>
      <point x="56" y="104"/>
      <point x="83" y="63"/>
      <point x="127" y="35" type="curve" smooth="yes"/>
      <point x="159" y="15"/>
      <point x="197" y="5"/>
      <point x="236" y="5" type="curve" smooth="yes"/>
      <point x="329" y="5"/>
      <point x="423" y="65"/>
      <point x="423" y="189" type="curve" smooth="yes"/>
      <point x="423" y="271"/>
      <point x="374" y="364"/>
      <point x="257" y="492" type="curve" smooth="yes"/>
      <point x="204" y="553"/>
      <point x="160" y="607"/>
      <point x="124" y="679" type="curve"/>
    </contour>
  </outline>
</glyph>
<glyph name="fivedeva" format="1">
  <advance width="530"/>
  <unicode hex="096B"/>
  <note>
    dFive
  </note>
  <outline>
    <contour>
      <point x="364" y="151"/>
      <point x="398" y="46"/>
      <point x="442" y="-40" type="curve"/>
      <point x="515" y="7" type="line"/>
      <point x="473" y="60"/>
      <point x="419" y="161"/>
      <point x="385" y="282" type="curve"/>
      <point x="340" y="277" type="line"/>
    </contour>
    <contour>
      <point x="428" y="366"/>
      <point x="400" y="397"/>
      <point x="360" y="397" type="curve" smooth="yes"/>
      <point x="324" y="397"/>
      <point x="301" y="374"/>
      <point x="301" y="344" type="curve" smooth="yes"/>
      <point x="301" y="313"/>
      <point x="316" y="294"/>
      <point x="338" y="280" type="curve"/>
      <point x="314" y="228"/>
      <point x="267" y="202"/>
      <point x="213" y="202" type="curve" smooth="yes"/>
      <point x="148" y="202"/>
      <point x="116" y="242"/>
      <point x="116" y="319" type="curve" smooth="yes"/>
      <point x="116" y="404"/>
      <point x="153" y="514"/>
      <point x="210" y="590" type="curve"/>
      <point x="143" y="648" type="line"/>
      <point x="77" y="554"/>
      <point x="45" y="448"/>
      <point x="45" y="359" type="curve" smooth="yes"/>
      <point x="45" y="243"/>
      <point x="116" y="153"/>
      <point x="248" y="153" type="curve" smooth="yes"/>
      <point x="341" y="153"/>
      <point x="428" y="213"/>
      <point x="428" y="328" type="curve" smooth="yes"/>
    </contour>
  </outline>
</glyph>
<glyph name="sevendeva" format="1">
  <advance width="562"/>
  <unicode hex="096D"/>
  <note>
    dSeven
  </note>
  <outline>
    <contour>
      <point x="487" y="359" type="line"/>
      <point x="379" y="326"/>
      <point x="306" y="377"/>
      <point x="307" y="456" type="curve" smooth="yes"/>
      <point x="306" y="491"/>
      <point x="326" y="520"/>
      <point x="364" y="520" type="curve" smooth="yes"/>
      <point x="428" y="520"/>
      <point x="444" y="413"/>
      <point x="444" y="305" type="curve" smooth="yes"/>
      <point x="444" y="179"/>
      <point x="370" y="82"/>
      <point x="277" y="82" type="curve" smooth="yes"/>
      <point x="158" y="82"/>
      <point x="77" y="208"/>
      <point x="148" y="544" type="curve" smooth="yes"/>
      <point x="55" y="561" type="line"/>
      <point x="-4" y="220"/>
      <point x="110" y="19"/>
      <point x="326" y="19" type="curve" smooth="yes"/>
      <point x="462" y="19"/>
      <point x="534" y="150"/>
      <point x="534" y="283" type="curve" smooth="yes"/>
      <point x="534" y="423"/>
      <point x="470" y="574"/>
      <point x="339" y="574" type="curve" smooth="yes"/>
      <point x="273" y="574"/>
      <point x="214" y="536"/>
      <point x="214" y="467" type="curve" smooth="yes"/>
      <point x="214" y="334"/>
      <point x="381" y="255"/>
      <point x="488" y="302" type="curve"/>
    </contour>
  </outline>
</glyph>
<glyph name="uni097A" format="1">
  <advance width="617"/>
  <unicode hex="097A"/>
  <outline>
    <contour>
      <point x="175" y="511" type="line"/>
      <point x="429" y="170" type="line"/>
      <point x="462" y="197" type="line" smooth="yes"/>
      <point x="210" y="541" type="line"/>
    </contour>
    <component base="uni092F"/>
  </outline>
</glyph>
<glyph name="uni097B" format="1">
  <advance width="614"/>
  <unicode hex="097B"/>
  <note>
    dGga
  </note>
  <outline>
    <contour>
      <point x="15" y="0" type="line"/>
      <point x="43" y="-64" type="line"/>
      <point x="472" y="-64" type="line"/>
      <point x="472" y="0" type="line"/>
    </contour>
    <component base="gadeva"/>
  </outline>
</glyph>
<glyph name="uni097C" format="1">
  <advance width="757"/>
  <unicode hex="097C"/>
  <note>
    dJja
  </note>
  <outline>
    <contour>
      <point x="34" y="0" type="line"/>
      <point x="62" y="-64" type="line"/>
      <point x="618" y="-64" type="line"/>
      <point x="618" y="0" type="line"/>
    </contour>
    <component base="jadeva"/>
  </outline>
</glyph>
<glyph name="uni097F" format="1">
  <advance width="645"/>
  <unicode hex="097F"/>
  <note>
    dBba
  </note>
  <outline>
    <contour>
      <point x="427" y="174" type="line"/>
      <point x="144" y="372" type="line"/>
      <point x="107" y="342" type="line"/>
      <point x="401" y="137" type="line"/>
    </contour>
    <contour>
      <point x="34" y="0" type="line"/>
      <point x="62" y="-64" type="line"/>
      <point x="499" y="-64" type="line"/>
      <point x="499" y="0" type="line"/>
    </contour>
    <component base="vadeva"/>
  </outline>
</glyph>
<glyph name="fraction" format="1">
  <advance width="476"/>
  <unicode hex="2044"/>
  <outline>
    <contour>
      <point x="-18" y="10" type="line"/>
      <point x="20" y="-16" type="line"/>
      <point x="493" y="685" type="line"/>
      <point x="449" y="716" type="line"/>
    </contour>
  </outline>
</glyph>
<glyph name="uni20BA" format="1">
  <advance width="538"/>
  <unicode hex="20BA"/>
  <outline>
    <contour>
      <point x="506" y="333"/>
      <point x="484" y="365"/>
      <point x="441" y="365" type="curve" smooth="yes"/>
      <point x="407" y="365"/>
      <point x="389" y="342"/>
      <point x="389" y="316" type="curve" smooth="yes"/>
      <point x="389" y="289"/>
      <point x="411" y="270"/>
      <point x="439" y="268" type="curve"/>
      <point x="442" y="133"/>
      <point x="352" y="37"/>
      <point x="223" y="37" type="curve"/>
      <point x="225" y="54"/>
      <point x="226" y="79"/>
      <point x="226" y="115" type="curve" smooth="yes"/>
      <point x="226" y="387" type="line"/>
      <point x="420" y="457" type="line"/>
      <point x="420" y="505" type="line"/>
      <point x="226" y="435" type="line"/>
      <point x="226" y="476" type="line"/>
      <point x="420" y="545" type="line"/>
      <point x="420" y="593" type="line"/>
      <point x="226" y="523" type="line"/>
      <point x="226" y="544" type="line" smooth="yes"/>
      <point x="226" y="615"/>
      <point x="220" y="664"/>
      <point x="295" y="667" type="curve"/>
      <point x="295" y="700" type="line"/>
      <point x="70" y="700" type="line"/>
      <point x="70" y="656" type="line"/>
      <point x="142" y="660" type="line"/>
      <point x="140" y="640"/>
      <point x="139" y="615"/>
      <point x="139" y="588" type="curve" smooth="yes"/>
      <point x="139" y="492" type="line"/>
      <point x="5" y="444" type="line"/>
      <point x="5" y="396" type="line"/>
      <point x="139" y="444" type="line"/>
      <point x="139" y="404" type="line"/>
      <point x="5" y="356" type="line"/>
      <point x="5" y="308" type="line"/>
      <point x="139" y="356" type="line"/>
      <point x="139" y="156" type="line" smooth="yes"/>
      <point x="139" y="85"/>
      <point x="145" y="36"/>
      <point x="70" y="33" type="curve"/>
      <point x="70" y="0" type="line"/>
      <point x="200" y="0" type="line" smooth="yes"/>
      <point x="403" y="0"/>
      <point x="506" y="151"/>
      <point x="506" y="283" type="curve" smooth="yes"/>
    </contour>
  </outline>
</glyph>
<glyph name="uni2215" format="1">
  <advance width="375"/>
  <unicode hex="2215"/>
  <outline>
    <contour>
      <point x="-16" y="-35" type="line"/>
      <point x="25" y="-54" type="line"/>
      <point x="370" y="718" type="line"/>
      <point x="321" y="742" type="line"/>
    </contour>
  </outline>
</glyph>
<glyph name="lessequal" format="1">
  <advance width="579"/>
  <unicode hex="2264"/>
  <outline>
    <contour>
      <point x="58" y="0" type="line"/>
      <point x="503" y="0" type="line"/>
      <point x="503" y="52" type="line"/>
      <point x="58" y="56" type="line"/>
    </contour>
    <component base="less" xOffset="24" yOffset="18"/>
  </outline>
</glyph>
<glyph name="greaterequal" format="1">
  <advance width="579"/>
  <unicode hex="2265"/>
  <outline>
    <contour>
      <point x="77" y="52" type="line"/>
      <point x="77" y="0" type="line"/>
      <point x="522" y="0" type="line"/>
      <point x="522" y="56" type="line"/>
    </contour>
    <component base="less" xOffset="556" yOffset="649" xScale="-1" yScale="-1"/>
  </outline>
</glyph>
<glyph name="acute.001" format="1">
  <advance width="252"/>
  <outline>
    <component base="grave" xOffset="252" xScale="-1"/>
    <contour>
      <point x="125" y="500" type="move" name="_top"/>
    </contour>
  </outline>
</glyph>
<glyph name="aivowelsigndeva_uni0930094D_anu" format="1">
  <advance width="588"/>
  <outline>
    <component base="anusvaradeva" xOffset="360" yOffset="16" xScale="0.89" yScale="0.89"/>
    <component base="aivowelsigndeva_uni0930094D"/>
    <contour>
      <point x="370" y="555" type="move" name="_top"/>
    </contour>
  </outline>
</glyph>
<glyph name="anusvaradeva.001" format="1">
  <advance width="250"/>
  <note>
    dAnusvara
  </note>
  <outline>
    <component base="nuktadeva" xOffset="24" yOffset="908"/>
    <contour>
      <point x="125" y="580" type="move" name="_top"/>
    </contour>
  </outline>
</glyph>
<glyph name="uni092C094D_radeva" format="1">
  <advance width="645"/>
  <note>
    dBRa
  </note>
  <outline>
    <contour>
      <point x="429" y="224" type="line"/>
      <point x="141" y="7" type="line"/>
      <point x="199" y="-54" type="line"/>
      <point x="429" y="145" type="line"/>
    </contour>
    <component base="uni092C"/>
    <contour>
      <point x="463" y="570" type="move" name="top"/>
    </contour>
    <contour>
      <point x="463" y="0" type="move" name="bottom"/>
    </contour>
  </outline>
</glyph>
<glyph name="uni092D094D" format="1">
  <advance width="519"/>
  <outline>
    <contour>
      <point x="451" y="264" type="line"/>
      <point x="276" y="264" type="line"/>
      <point x="278" y="452"/>
      <point x="234" y="592"/>
      <point x="124" y="592" type="curve" smooth="yes"/>
      <point x="73" y="592"/>
      <point x="40" y="560"/>
      <point x="40" y="511" type="curve" smooth="yes"/>
      <point x="40" y="414"/>
      <point x="128" y="350"/>
      <point x="217" y="340" type="curve"/>
      <point x="221" y="373" type="line"/>
      <point x="153" y="388"/>
      <point x="113" y="435"/>
      <point x="113" y="497" type="curve" smooth="yes"/>
      <point x="113" y="524"/>
      <point x="124" y="547"/>
      <point x="150" y="547" type="curve" smooth="yes"/>
      <point x="217" y="547"/>
      <point x="198" y="345"/>
      <point x="187" y="200" type="curve"/>
      <point x="479" y="200" type="line"/>
    </contour>
    <contour>
      <point x="456" y="506" type="line"/>
      <point x="428" y="570" type="line"/>
      <point x="313" y="570" type="line"/>
      <point x="341" y="506" type="line"/>
    </contour>
    <component base="deva_knot" xOffset="83" yOffset="-59"/>
  </outline>
</glyph>
<glyph name="uni092D094D0932.loclMAR" format="1">
  <advance width="637"/>
  <note>
    dBhLa.MAR
  </note>
  <outline>
    <contour>
      <point x="355" y="54"/>
      <point x="299" y="94"/>
      <point x="223" y="94" type="curve" smooth="yes"/>
      <point x="125" y="94"/>
      <point x="94" y="25"/>
      <point x="94" y="-33" type="curve" smooth="yes"/>
      <point x="94" y="-130"/>
      <point x="183" y="-229"/>
      <point x="290" y="-282" type="curve"/>
      <point x="311" y="-244" type="line"/>
      <point x="233" y="-190"/>
      <point x="179" y="-118"/>
      <point x="179" y="-42" type="curve" smooth="yes"/>
      <point x="179" y="14"/>
      <point x="208" y="34"/>
      <point x="254" y="34" type="curve" smooth="yes"/>
      <point x="297" y="34"/>
      <point x="341" y="15"/>
      <point x="384" y="-17" type="curve"/>
      <point x="410" y="7" type="line"/>
    </contour>
    <contour>
      <point x="690" y="-99"/>
      <point x="627" y="84"/>
      <point x="492" y="84" type="curve" smooth="yes"/>
      <point x="408" y="84"/>
      <point x="334" y="34"/>
      <point x="301" y="-68" type="curve"/>
      <point x="371" y="-97" type="line"/>
      <point x="405" y="-3"/>
      <point x="461" y="30"/>
      <point x="512" y="30" type="curve" smooth="yes"/>
      <point x="584" y="30"/>
      <point x="594" y="-74"/>
      <point x="463" y="-178" type="curve"/>
      <point x="515" y="-241" type="line"/>
    </contour>
    <contour>
      <point x="221" y="413" type="line" smooth="yes"/>
      <point x="153" y="424"/>
      <point x="113" y="462"/>
      <point x="113" y="504" type="curve"/>
      <point x="113" y="531"/>
      <point x="124" y="547"/>
      <point x="150" y="547" type="curve" smooth="yes"/>
      <point x="217" y="547"/>
      <point x="198" y="406"/>
      <point x="187" y="240" type="curve"/>
      <point x="437" y="240" type="line"/>
      <point x="437" y="50" type="line"/>
      <point x="516" y="50" type="line"/>
      <point x="516" y="506" type="line"/>
      <point x="620" y="506" type="line"/>
      <point x="592" y="570" type="line"/>
      <point x="303" y="570" type="line"/>
      <point x="331" y="506" type="line"/>
      <point x="437" y="506" type="line"/>
      <point x="437" y="304" type="line"/>
      <point x="276" y="304" type="line"/>
      <point x="279" y="356" type="line" smooth="yes"/>
      <point x="284" y="502"/>
      <point x="226" y="592"/>
      <point x="124" y="592" type="curve" smooth="yes"/>
      <point x="73" y="592"/>
      <point x="40" y="560"/>
      <point x="40" y="511" type="curve" smooth="yes"/>
      <point x="40" y="432"/>
      <point x="128" y="377"/>
      <point x="217" y="370" type="curve"/>
    </contour>
    <contour>
      <point x="251" y="156"/>
      <point x="270" y="177"/>
      <point x="271" y="215" type="curve" smooth="yes"/>
      <point x="273" y="268" type="line"/>
      <point x="235" y="304" type="line"/>
      <point x="175" y="304" type="line" smooth="yes"/>
      <point x="142" y="304"/>
      <point x="125" y="287"/>
      <point x="125" y="260" type="curve" smooth="yes"/>
      <point x="125" y="214"/>
      <point x="193" y="156"/>
      <point x="223" y="156" type="curve" smooth="yes"/>
    </contour>
    <contour>
      <point x="475" y="570" type="move" name="top"/>
    </contour>
    <contour>
      <point x="515" y="-200" type="move" name="bottom"/>
    </contour>
  </outline>
</glyph>
<glyph name="uni092D094D0930094D" format="1">
  <advance width="390"/>
  <note>
    dBhR.half
  </note>
  <outline>
    <contour>
      <point x="216" y="17" type="line"/>
      <point x="262" y="-26" type="line"/>
      <point x="479" y="200" type="line"/>
      <point x="441" y="238" type="line"/>
    </contour>
    <component base="uni092D094D"/>
  </outline>
</glyph>
<glyph name="uni091A094D" format="1">
  <advance width="492"/>
  <outline>
    <contour>
      <point x="176" y="341"/>
      <point x="147" y="293"/>
      <point x="147" y="237" type="curve" smooth="yes"/>
      <point x="147" y="142"/>
      <point x="226" y="72"/>
      <point x="330" y="72" type="curve" smooth="yes"/>
      <point x="373" y="72"/>
      <point x="443" y="82"/>
      <point x="536" y="180" type="curve"/>
      <point x="477" y="253" type="line"/>
      <point x="430" y="163"/>
      <point x="357" y="117"/>
      <point x="303" y="117" type="curve" smooth="yes"/>
      <point x="260" y="117"/>
      <point x="229" y="145"/>
      <point x="229" y="202" type="curve" smooth="yes"/>
      <point x="229" y="264"/>
      <point x="276" y="338"/>
      <point x="379" y="338" type="curve"/>
      <point x="239" y="371" type="line"/>
    </contour>
    <contour>
      <point x="15" y="402" type="line"/>
      <point x="43" y="338" type="line"/>
      <point x="406" y="338" type="line"/>
      <point x="379" y="402" type="line"/>
    </contour>
    <contour>
      <point x="15" y="570" type="line"/>
      <point x="43" y="506" type="line"/>
      <point x="449" y="506" type="line"/>
      <point x="421" y="570" type="line"/>
    </contour>
  </outline>
</glyph>
<glyph name="uni091A094D0932.loclMAR" format="1">
  <advance width="684"/>
  <note>
    dCLa.MAR
  </note>
  <outline>
    <contour>
      <point x="341" y="54"/>
      <point x="285" y="94"/>
      <point x="209" y="94" type="curve" smooth="yes"/>
      <point x="111" y="94"/>
      <point x="80" y="25"/>
      <point x="80" y="-33" type="curve" smooth="yes"/>
      <point x="80" y="-130"/>
      <point x="169" y="-229"/>
      <point x="276" y="-282" type="curve"/>
      <point x="297" y="-244" type="line"/>
      <point x="219" y="-190"/>
      <point x="165" y="-118"/>
      <point x="165" y="-42" type="curve" smooth="yes"/>
      <point x="165" y="14"/>
      <point x="194" y="34"/>
      <point x="240" y="34" type="curve" smooth="yes"/>
      <point x="283" y="34"/>
      <point x="327" y="15"/>
      <point x="370" y="-17" type="curve"/>
      <point x="396" y="7" type="line"/>
    </contour>
    <contour>
      <point x="676" y="-99"/>
      <point x="613" y="74"/>
      <point x="478" y="74" type="curve" smooth="yes"/>
      <point x="394" y="74"/>
      <point x="320" y="34"/>
      <point x="287" y="-68" type="curve"/>
      <point x="357" y="-97" type="line"/>
      <point x="391" y="-3"/>
      <point x="447" y="30"/>
      <point x="498" y="30" type="curve" smooth="yes"/>
      <point x="570" y="30"/>
      <point x="580" y="-74"/>
      <point x="449" y="-178" type="curve"/>
      <point x="501" y="-241" type="line"/>
    </contour>
    <contour>
      <point x="249" y="422"/>
      <point x="156" y="344"/>
      <point x="156" y="269" type="curve" smooth="yes"/>
      <point x="156" y="191"/>
      <point x="223" y="142"/>
      <point x="320" y="142" type="curve" smooth="yes"/>
      <point x="370" y="142"/>
      <point x="424" y="165"/>
      <point x="472" y="206" type="curve"/>
      <point x="472" y="336" type="line"/>
      <point x="434" y="238"/>
      <point x="351" y="187"/>
      <point x="293" y="187" type="curve" smooth="yes"/>
      <point x="258" y="187"/>
      <point x="232" y="206"/>
      <point x="232" y="246" type="curve" smooth="yes"/>
      <point x="232" y="316"/>
      <point x="285" y="389"/>
      <point x="398" y="388" type="curve"/>
      <point x="398" y="421" type="line"/>
    </contour>
    <contour>
      <point x="100" y="452" type="line"/>
      <point x="128" y="388" type="line"/>
      <point x="416" y="388" type="line"/>
      <point x="389" y="452" type="line"/>
    </contour>
    <contour>
      <point x="15" y="570" type="line"/>
      <point x="43" y="506" type="line"/>
      <point x="463" y="506" type="line"/>
      <point x="463" y="48" type="line"/>
      <point x="542" y="48" type="line"/>
      <point x="542" y="506" type="line"/>
      <point x="669" y="506" type="line"/>
      <point x="641" y="570" type="line"/>
    </contour>
    <contour>
      <point x="501" y="570" type="move" name="top"/>
    </contour>
  </outline>
</glyph>
<glyph name="candrabindudeva.imatra" format="1">
  <advance width="250"/>
  <note>
    dCandrabindu
  </note>
  <outline>
    <component base="ecandravowelsigndeva" xOffset="-53" yOffset="5"/>
    <component base="anusvaradeva" xOffset="18" yOffset="103"/>
    <contour>
      <point x="135" y="575" type="move" name="_imatra"/>
    </contour>
    <contour>
      <point x="94" y="529" type="move" name="_top"/>
    </contour>
  </outline>
</glyph>
<glyph name="uni0926094D092C094D_radeva" format="1">
  <advance width="644"/>
  <note>
    dDBRa
  </note>
  <outline>
    <contour>
      <point x="236" y="-208" type="line"/>
      <point x="314" y="-255" type="line"/>
      <point x="458" y="-44" type="line"/>
      <point x="429" y="17" type="line"/>
    </contour>
    <component base="uni0926094D092C"/>
  </outline>
</glyph>
<glyph name="uni0926094D092C_uvowelsigndeva" format="1">
  <advance width="551"/>
  <outline>
    <component base="uni0926094D092C"/>
    <component base="uvowelsigndeva" xOffset="468" yOffset="-59"/>
    <contour>
      <point x="422" y="570" type="move" name="top"/>
    </contour>
    <contour>
      <point x="482" y="-94" type="move" name="bottom"/>
    </contour>
  </outline>
</glyph>
<glyph name="uni0926094D092C_uuvowelsigndeva" format="1">
  <advance width="634"/>
  <outline>
    <contour>
      <point x="562" y="-251"/>
      <point x="505" y="-254"/>
      <point x="490" y="-212" type="curve" smooth="yes"/>
      <point x="474" y="-168"/>
      <point x="523" y="-126"/>
      <point x="596" y="-126" type="curve" smooth="yes"/>
      <point x="643" y="-126"/>
      <point x="699" y="-158"/>
      <point x="731" y="-201" type="curve"/>
      <point x="767" y="-181" type="line"/>
      <point x="728" y="-116"/>
      <point x="666" y="-58"/>
      <point x="583" y="-58" type="curve" smooth="yes"/>
      <point x="491" y="-58"/>
      <point x="440" y="-107"/>
      <point x="440" y="-183" type="curve" smooth="yes"/>
      <point x="440" y="-310"/>
      <point x="572" y="-335"/>
      <point x="667" y="-276" type="curve"/>
      <point x="626" y="-213" type="line"/>
    </contour>
    <component base="uni0926094D092C"/>
    <contour>
      <point x="422" y="570" type="move" name="top"/>
    </contour>
    <contour>
      <point x="482" y="-94" type="move" name="bottom"/>
    </contour>
  </outline>
</glyph>
<glyph name="uni0926094D_bhadeva_uuvowelsign" format="1">
  <advance width="798"/>
  <outline>
    <contour>
      <point x="622" y="241"/>
      <point x="587" y="267"/>
      <point x="555" y="267" type="curve" smooth="yes"/>
      <point x="515" y="267"/>
      <point x="460" y="232"/>
      <point x="486" y="153" type="curve"/>
      <point x="644" y="-34" type="line"/>
      <point x="722" y="-16" type="line"/>
      <point x="574" y="125" type="line"/>
      <point x="596" y="140"/>
      <point x="622" y="163"/>
      <point x="622" y="199" type="curve" smooth="yes"/>
    </contour>
    <contour>
      <point x="545" y="445" type="line"/>
      <point x="397" y="445" type="line" smooth="yes"/>
      <point x="285" y="445"/>
      <point x="194" y="390"/>
      <point x="194" y="289" type="curve" smooth="yes"/>
      <point x="194" y="188"/>
      <point x="284" y="81"/>
      <point x="430" y="81" type="curve" smooth="yes"/>
      <point x="482" y="81"/>
      <point x="524" y="94"/>
      <point x="571" y="124" type="curve"/>
      <point x="525" y="189" type="line"/>
      <point x="481" y="155"/>
      <point x="442" y="136"/>
      <point x="392" y="136" type="curve" smooth="yes"/>
      <point x="322" y="136"/>
      <point x="267" y="187"/>
      <point x="267" y="251" type="curve" smooth="yes"/>
      <point x="267" y="318"/>
      <point x="315" y="373"/>
      <point x="396" y="373" type="curve" smooth="yes"/>
      <point x="545" y="373" type="line"/>
    </contour>
    <contour>
      <point x="545" y="373" type="line"/>
      <point x="545" y="506" type="line"/>
      <point x="689" y="506" type="line"/>
      <point x="661" y="570" type="line"/>
      <point x="10" y="570" type="line"/>
      <point x="38" y="506" type="line"/>
      <point x="466" y="506" type="line"/>
      <point x="466" y="396" type="line"/>
    </contour>
    <contour>
      <point x="204" y="43" type="line"/>
      <point x="140" y="26"/>
      <point x="94" y="70"/>
      <point x="94" y="99" type="curve" smooth="yes"/>
      <point x="94" y="113"/>
      <point x="103" y="124"/>
      <point x="122" y="124" type="curve" smooth="yes"/>
      <point x="163" y="124"/>
      <point x="217" y="33"/>
      <point x="244" y="-104" type="curve"/>
      <point x="571" y="63" type="line"/>
      <point x="533" y="113" type="line"/>
      <point x="298" y="0" type="line"/>
      <point x="264" y="70" type="line" smooth="yes"/>
      <point x="231" y="137"/>
      <point x="168" y="157"/>
      <point x="109" y="157" type="curve" smooth="yes"/>
      <point x="56" y="157"/>
      <point x="13" y="132"/>
      <point x="21" y="79" type="curve" smooth="yes"/>
      <point x="30" y="28"/>
      <point x="122" y="-22"/>
      <point x="218" y="4" type="curve"/>
    </contour>
    <contour>
      <point x="366" y="-154"/>
      <point x="364" y="-135"/>
      <point x="347" y="-101" type="curve" smooth="yes"/>
      <point x="313" y="-31" type="line"/>
      <point x="258" y="-19" type="line"/>
      <point x="195" y="-51" type="line" smooth="yes"/>
      <point x="165" y="-66"/>
      <point x="160" y="-82"/>
      <point x="169" y="-100" type="curve" smooth="yes"/>
      <point x="195" y="-150"/>
      <point x="309" y="-185"/>
      <point x="344" y="-166" type="curve" smooth="yes"/>
    </contour>
    <contour>
      <point x="639" y="-188"/>
      <point x="582" y="-191"/>
      <point x="567" y="-149" type="curve" smooth="yes"/>
      <point x="551" y="-105"/>
      <point x="600" y="-63"/>
      <point x="673" y="-63" type="curve" smooth="yes"/>
      <point x="720" y="-63"/>
      <point x="776" y="-95"/>
      <point x="808" y="-138" type="curve"/>
      <point x="844" y="-118" type="line"/>
      <point x="805" y="-53"/>
      <point x="743" y="5"/>
      <point x="660" y="5" type="curve" smooth="yes"/>
      <point x="568" y="5"/>
      <point x="517" y="-44"/>
      <point x="517" y="-120" type="curve" smooth="yes"/>
      <point x="517" y="-247"/>
      <point x="649" y="-272"/>
      <point x="744" y="-213" type="curve"/>
      <point x="703" y="-150" type="line"/>
    </contour>
    <contour>
      <point x="509" y="570" type="move" name="top"/>
    </contour>
  </outline>
</glyph>
<glyph name="uni0926094D_dadeva_uvowelsignde" format="1">
  <advance width="525"/>
  <outline>
    <contour>
      <point x="357" y="-5" type="line"/>
      <point x="385" y="-49"/>
      <point x="414" y="-82"/>
      <point x="442" y="-106" type="curve"/>
      <point x="515" y="-112" type="line"/>
      <point x="475" y="-67"/>
      <point x="434" y="-23"/>
      <point x="394" y="22" type="curve"/>
    </contour>
    <contour>
      <point x="382" y="-8" type="line"/>
      <point x="438" y="16"/>
      <point x="461" y="48"/>
      <point x="461" y="96" type="curve" smooth="yes"/>
      <point x="461" y="136"/>
      <point x="426" y="167"/>
      <point x="387" y="167" type="curve" smooth="yes"/>
      <point x="338" y="167"/>
      <point x="293" y="122"/>
      <point x="319" y="58" type="curve"/>
    </contour>
    <contour>
      <point x="105" y="153"/>
      <point x="144" y="206"/>
      <point x="260" y="213" type="curve"/>
      <point x="244" y="289" type="line"/>
      <point x="200" y="278"/>
      <point x="154" y="270"/>
      <point x="129" y="270" type="curve" smooth="yes"/>
      <point x="109" y="270"/>
      <point x="91" y="284"/>
      <point x="84" y="303" type="curve" smooth="yes"/>
      <point x="70" y="339"/>
      <point x="85" y="391"/>
      <point x="156" y="391" type="curve" smooth="yes"/>
      <point x="400" y="391" type="line"/>
      <point x="400" y="506" type="line"/>
      <point x="524" y="506" type="line"/>
      <point x="496" y="570" type="line"/>
      <point x="-45" y="570" type="line"/>
      <point x="-17" y="506" type="line"/>
      <point x="321" y="506" type="line"/>
      <point x="321" y="455" type="line"/>
      <point x="134" y="455" type="line" smooth="yes"/>
      <point x="0" y="455"/>
      <point x="-31" y="352"/>
      <point x="19" y="284" type="curve" smooth="yes"/>
      <point x="36" y="262"/>
      <point x="61" y="245"/>
      <point x="91" y="238" type="curve"/>
      <point x="61" y="217"/>
      <point x="42" y="176"/>
      <point x="42" y="136" type="curve" smooth="yes"/>
      <point x="42" y="52"/>
      <point x="123" y="-37"/>
      <point x="263" y="-37" type="curve" smooth="yes"/>
      <point x="326" y="-37"/>
      <point x="366" y="-19"/>
      <point x="411" y="9" type="curve"/>
      <point x="411" y="114" type="line"/>
      <point x="345" y="61"/>
      <point x="273" y="33"/>
      <point x="202" y="33" type="curve" smooth="yes"/>
      <point x="137" y="33"/>
      <point x="105" y="56"/>
      <point x="105" y="109" type="curve" smooth="yes"/>
    </contour>
    <contour>
      <point x="451" y="-103"/>
      <point x="515" y="-103"/>
      <point x="530" y="-145" type="curve" smooth="yes"/>
      <point x="546" y="-189"/>
      <point x="497" y="-231"/>
      <point x="424" y="-231" type="curve" smooth="yes"/>
      <point x="377" y="-231"/>
      <point x="321" y="-199"/>
      <point x="289" y="-156" type="curve"/>
      <point x="253" y="-176" type="line"/>
      <point x="292" y="-241"/>
      <point x="354" y="-299"/>
      <point x="437" y="-299" type="curve" smooth="yes"/>
      <point x="560" y="-299"/>
      <point x="602" y="-205"/>
      <point x="573" y="-130" type="curve" smooth="yes"/>
      <point x="544" y="-41"/>
      <point x="423" y="-25"/>
      <point x="332" y="-85" type="curve"/>
      <point x="377" y="-151" type="line"/>
    </contour>
    <contour>
      <point x="356" y="570" type="move" name="top"/>
    </contour>
    <contour>
      <point x="430" y="-57" type="move" name="bottom"/>
    </contour>
  </outline>
</glyph>
<glyph name="uni0926094D_dadeva_uuvowelsignd" format="1">
  <advance width="585"/>
  <outline>
    <contour>
      <point x="417" y="-5" type="line"/>
      <point x="445" y="-49"/>
      <point x="474" y="-82"/>
      <point x="502" y="-106" type="curve"/>
      <point x="575" y="-112" type="line"/>
      <point x="535" y="-67"/>
      <point x="494" y="-23"/>
      <point x="454" y="22" type="curve"/>
    </contour>
    <contour>
      <point x="442" y="-8" type="line"/>
      <point x="498" y="16"/>
      <point x="521" y="48"/>
      <point x="521" y="96" type="curve" smooth="yes"/>
      <point x="521" y="136"/>
      <point x="486" y="167"/>
      <point x="447" y="167" type="curve" smooth="yes"/>
      <point x="398" y="167"/>
      <point x="353" y="122"/>
      <point x="379" y="58" type="curve"/>
    </contour>
    <contour>
      <point x="165" y="153"/>
      <point x="204" y="206"/>
      <point x="320" y="213" type="curve"/>
      <point x="304" y="289" type="line"/>
      <point x="260" y="278"/>
      <point x="214" y="270"/>
      <point x="189" y="270" type="curve" smooth="yes"/>
      <point x="169" y="270"/>
      <point x="151" y="284"/>
      <point x="144" y="303" type="curve" smooth="yes"/>
      <point x="130" y="339"/>
      <point x="145" y="391"/>
      <point x="216" y="391" type="curve" smooth="yes"/>
      <point x="460" y="391" type="line"/>
      <point x="460" y="506" type="line"/>
      <point x="584" y="506" type="line"/>
      <point x="556" y="570" type="line"/>
      <point x="15" y="570" type="line"/>
      <point x="43" y="506" type="line"/>
      <point x="381" y="506" type="line"/>
      <point x="381" y="455" type="line"/>
      <point x="194" y="455" type="line" smooth="yes"/>
      <point x="60" y="455"/>
      <point x="29" y="352"/>
      <point x="79" y="284" type="curve" smooth="yes"/>
      <point x="96" y="262"/>
      <point x="121" y="245"/>
      <point x="151" y="238" type="curve"/>
      <point x="121" y="217"/>
      <point x="102" y="176"/>
      <point x="102" y="136" type="curve" smooth="yes"/>
      <point x="102" y="52"/>
      <point x="183" y="-37"/>
      <point x="323" y="-37" type="curve" smooth="yes"/>
      <point x="386" y="-37"/>
      <point x="426" y="-19"/>
      <point x="471" y="9" type="curve"/>
      <point x="471" y="114" type="line"/>
      <point x="405" y="61"/>
      <point x="333" y="33"/>
      <point x="262" y="33" type="curve" smooth="yes"/>
      <point x="197" y="33"/>
      <point x="165" y="56"/>
      <point x="165" y="109" type="curve" smooth="yes"/>
    </contour>
    <contour>
      <point x="474" y="-248"/>
      <point x="410" y="-248"/>
      <point x="395" y="-206" type="curve" smooth="yes"/>
      <point x="379" y="-162"/>
      <point x="428" y="-120"/>
      <point x="501" y="-120" type="curve" smooth="yes"/>
      <point x="548" y="-120"/>
      <point x="604" y="-152"/>
      <point x="636" y="-195" type="curve"/>
      <point x="672" y="-175" type="line"/>
      <point x="633" y="-110"/>
      <point x="571" y="-52"/>
      <point x="488" y="-52" type="curve" smooth="yes"/>
      <point x="365" y="-52"/>
      <point x="323" y="-146"/>
      <point x="352" y="-221" type="curve" smooth="yes"/>
      <point x="381" y="-310"/>
      <point x="502" y="-326"/>
      <point x="593" y="-266" type="curve"/>
      <point x="548" y="-200" type="line"/>
    </contour>
    <contour>
      <point x="416" y="570" type="move" name="top"/>
    </contour>
    <contour>
      <point x="490" y="-57" type="move" name="bottom"/>
    </contour>
  </outline>
</glyph>
<glyph name="uni0926094D0927094D0930094D092F" format="1">
  <advance width="1095"/>
  <outline>
    <contour>
      <point x="356" y="-220" type="line"/>
      <point x="433" y="-259" type="line"/>
      <point x="557" y="-24" type="line"/>
      <point x="520" y="12" type="line"/>
    </contour>
    <component base="uni0926094D0927094D092F"/>
  </outline>
</glyph>
<glyph name="uni0926094D0927094D092F" format="1">
  <advance width="1179"/>
  <note>
    dDDhYa
  </note>
  <outline>
    <contour>
      <point x="473" y="445" type="line"/>
      <point x="499" y="373" type="line"/>
      <point x="711" y="373" type="line" smooth="yes"/>
      <point x="775" y="373"/>
      <point x="796" y="362"/>
      <point x="803" y="337" type="curve" smooth="yes"/>
      <point x="810" y="303"/>
      <point x="796" y="267"/>
      <point x="682" y="232" type="curve"/>
      <point x="736" y="56"/>
      <point x="875" y="15"/>
      <point x="972" y="99" type="curve"/>
      <point x="972" y="0" type="line"/>
      <point x="1051" y="0" type="line"/>
      <point x="1051" y="506" type="line"/>
      <point x="1164" y="506" type="line"/>
      <point x="1136" y="570" type="line"/>
      <point x="625" y="570" type="line"/>
      <point x="653" y="506" type="line"/>
      <point x="972" y="506" type="line"/>
      <point x="972" y="192" type="line"/>
      <point x="902" y="117"/>
      <point x="790" y="88"/>
      <point x="750" y="185" type="curve"/>
      <point x="859" y="225"/>
      <point x="880" y="292"/>
      <point x="854" y="369" type="curve" smooth="yes"/>
      <point x="834" y="415"/>
      <point x="791" y="445"/>
      <point x="719" y="445" type="curve" smooth="yes"/>
    </contour>
    <component base="uni0926094D_dhadeva"/>
    <contour>
      <point x="1012" y="570" type="move" name="top"/>
    </contour>
    <contour>
      <point x="1012" y="0" type="move" name="bottom"/>
    </contour>
  </outline>
</glyph>
<glyph name="uni0926094D_dhadeva_uvowelsignd" format="1">
  <advance width="720"/>
  <outline>
    <contour>
      <point x="619" y="241"/>
      <point x="584" y="267"/>
      <point x="552" y="267" type="curve" smooth="yes"/>
      <point x="512" y="267"/>
      <point x="457" y="232"/>
      <point x="483" y="153" type="curve" smooth="yes"/>
      <point x="502" y="94"/>
      <point x="597" y="-8"/>
      <point x="643" y="-76" type="curve"/>
      <point x="706" y="-22" type="line"/>
      <point x="571" y="125" type="line"/>
      <point x="593" y="140"/>
      <point x="619" y="163"/>
      <point x="619" y="199" type="curve" smooth="yes"/>
    </contour>
    <contour>
      <point x="479" y="445" type="line"/>
      <point x="394" y="445" type="line" smooth="yes"/>
      <point x="282" y="445"/>
      <point x="191" y="390"/>
      <point x="191" y="289" type="curve" smooth="yes"/>
      <point x="191" y="188"/>
      <point x="281" y="81"/>
      <point x="427" y="81" type="curve" smooth="yes"/>
      <point x="479" y="81"/>
      <point x="521" y="94"/>
      <point x="568" y="124" type="curve"/>
      <point x="512" y="202" type="line"/>
      <point x="468" y="158"/>
      <point x="429" y="139"/>
      <point x="379" y="139" type="curve" smooth="yes"/>
      <point x="309" y="139"/>
      <point x="264" y="177"/>
      <point x="264" y="241" type="curve" smooth="yes"/>
      <point x="264" y="308"/>
      <point x="312" y="373"/>
      <point x="393" y="373" type="curve" smooth="yes"/>
      <point x="546" y="373" type="line"/>
    </contour>
    <contour>
      <point x="293" y="79" type="line"/>
      <point x="136" y="64"/>
      <point x="212" y="-147"/>
      <point x="367" y="-147" type="curve" smooth="yes"/>
      <point x="461" y="-147"/>
      <point x="536" y="-71"/>
      <point x="584" y="22" type="curve"/>
      <point x="528" y="96" type="line"/>
      <point x="482" y="-38"/>
      <point x="411" y="-108"/>
      <point x="342" y="-108" type="curve" smooth="yes"/>
      <point x="252" y="-108"/>
      <point x="230" y="27"/>
      <point x="337" y="33" type="curve"/>
    </contour>
    <contour>
      <point x="120" y="182"/>
      <point x="77" y="137"/>
      <point x="77" y="90" type="curve" smooth="yes"/>
      <point x="77" y="36"/>
      <point x="126" y="-11"/>
      <point x="221" y="-15" type="curve"/>
      <point x="228" y="19" type="line"/>
      <point x="172" y="19"/>
      <point x="143" y="42"/>
      <point x="143" y="76" type="curve" smooth="yes"/>
      <point x="143" y="107"/>
      <point x="167" y="130"/>
      <point x="218" y="114" type="curve"/>
      <point x="206" y="158" type="line"/>
    </contour>
    <contour>
      <point x="467" y="373" type="line"/>
      <point x="546" y="373" type="line"/>
      <point x="546" y="506" type="line"/>
      <point x="684" y="506" type="line"/>
      <point x="656" y="570" type="line"/>
      <point x="15" y="570" type="line"/>
      <point x="43" y="506" type="line"/>
      <point x="467" y="506" type="line"/>
    </contour>
    <contour>
      <point x="691" y="-63"/>
      <point x="755" y="-63"/>
      <point x="770" y="-105" type="curve" smooth="yes"/>
      <point x="786" y="-149"/>
      <point x="737" y="-191"/>
      <point x="664" y="-191" type="curve" smooth="yes"/>
      <point x="617" y="-191"/>
      <point x="561" y="-159"/>
      <point x="529" y="-116" type="curve"/>
      <point x="493" y="-136" type="line"/>
      <point x="532" y="-201"/>
      <point x="594" y="-259"/>
      <point x="677" y="-259" type="curve" smooth="yes"/>
      <point x="800" y="-259"/>
      <point x="842" y="-165"/>
      <point x="813" y="-90" type="curve" smooth="yes"/>
      <point x="784" y="-1"/>
      <point x="663" y="15"/>
      <point x="572" y="-45" type="curve"/>
      <point x="617" y="-111" type="line"/>
    </contour>
    <contour>
      <point x="452" y="580" type="move" name="top"/>
    </contour>
    <contour>
      <point x="506" y="-29" type="move" name="bottom"/>
    </contour>
  </outline>
</glyph>
<glyph name="uni0926094D_gadeva_uvowelsignde" format="1">
  <advance width="619"/>
  <outline>
    <contour>
      <point x="509" y="134"/>
      <point x="479" y="156"/>
      <point x="447" y="156" type="curve" smooth="yes"/>
      <point x="407" y="156"/>
      <point x="361" y="125"/>
      <point x="387" y="46" type="curve" smooth="yes"/>
      <point x="398" y="5"/>
      <point x="422" y="-32"/>
      <point x="450" y="-70" type="curve"/>
      <point x="510" y="-27" type="line"/>
      <point x="490" y="-6"/>
      <point x="486" y="-3"/>
      <point x="466" y="18" type="curve"/>
      <point x="488" y="33"/>
      <point x="509" y="56"/>
      <point x="509" y="91" type="curve" smooth="yes"/>
    </contour>
    <contour>
      <point x="428" y="104" type="line"/>
      <point x="382" y="67"/>
      <point x="344" y="56"/>
      <point x="306" y="56" type="curve" smooth="yes"/>
      <point x="225" y="56"/>
      <point x="174" y="105"/>
      <point x="174" y="187" type="curve" smooth="yes"/>
      <point x="174" y="273"/>
      <point x="228" y="323"/>
      <point x="309" y="323" type="curve" smooth="yes"/>
      <point x="460" y="323" type="line"/>
      <point x="460" y="506" type="line"/>
      <point x="604" y="506" type="line"/>
      <point x="576" y="570" type="line"/>
      <point x="15" y="570" type="line"/>
      <point x="43" y="506" type="line"/>
      <point x="381" y="506" type="line"/>
      <point x="381" y="396" type="line"/>
      <point x="310" y="396" type="line" smooth="yes"/>
      <point x="198" y="396"/>
      <point x="113" y="337"/>
      <point x="113" y="224" type="curve" smooth="yes"/>
      <point x="113" y="110"/>
      <point x="198" y="-6"/>
      <point x="346" y="-6" type="curve" smooth="yes"/>
      <point x="392" y="-6"/>
      <point x="431" y="6"/>
      <point x="471" y="33" type="curve"/>
    </contour>
    <contour>
      <point x="215" y="59" type="line"/>
      <point x="222" y="-42" type="line"/>
      <point x="154" y="-34"/>
      <point x="125" y="-50"/>
      <point x="123" y="-85" type="curve" smooth="yes"/>
      <point x="122" y="-130"/>
      <point x="177" y="-167"/>
      <point x="223" y="-174" type="curve" smooth="yes"/>
      <point x="285" y="-181"/>
      <point x="283" y="-70"/>
      <point x="271" y="31" type="curve"/>
    </contour>
    <contour>
      <point x="501" y="-63"/>
      <point x="565" y="-63"/>
      <point x="580" y="-105" type="curve" smooth="yes"/>
      <point x="596" y="-149"/>
      <point x="547" y="-191"/>
      <point x="474" y="-191" type="curve" smooth="yes"/>
      <point x="427" y="-191"/>
      <point x="371" y="-159"/>
      <point x="339" y="-116" type="curve"/>
      <point x="303" y="-136" type="line"/>
      <point x="342" y="-201"/>
      <point x="404" y="-259"/>
      <point x="487" y="-259" type="curve" smooth="yes"/>
      <point x="610" y="-259"/>
      <point x="652" y="-165"/>
      <point x="623" y="-90" type="curve" smooth="yes"/>
      <point x="594" y="-1"/>
      <point x="473" y="15"/>
      <point x="382" y="-45" type="curve"/>
      <point x="427" y="-111" type="line"/>
    </contour>
    <contour>
      <point x="420" y="570" type="move" name="top"/>
    </contour>
    <contour>
      <point x="517" y="-239" type="move" name="bottom"/>
    </contour>
  </outline>
</glyph>
<glyph name="uni0926094D_ghadeva_uvowelsignd" format="1">
  <advance width="643"/>
  <outline>
    <contour>
      <point x="662" y="-86"/>
      <point x="726" y="-86"/>
      <point x="741" y="-128" type="curve" smooth="yes"/>
      <point x="757" y="-172"/>
      <point x="708" y="-214"/>
      <point x="635" y="-214" type="curve" smooth="yes"/>
      <point x="588" y="-214"/>
      <point x="532" y="-182"/>
      <point x="500" y="-139" type="curve"/>
      <point x="464" y="-159" type="line"/>
      <point x="503" y="-224"/>
      <point x="565" y="-282"/>
      <point x="648" y="-282" type="curve" smooth="yes"/>
      <point x="771" y="-282"/>
      <point x="813" y="-188"/>
      <point x="784" y="-113" type="curve" smooth="yes"/>
      <point x="755" y="-24"/>
      <point x="634" y="-8"/>
      <point x="543" y="-68" type="curve"/>
      <point x="588" y="-134" type="line"/>
    </contour>
    <component base="uni0926094D_ghadeva"/>
    <contour>
      <point x="506" y="570" type="move" name="top"/>
    </contour>
    <contour>
      <point x="600" y="-84" type="move" name="bottom"/>
    </contour>
  </outline>
</glyph>
<glyph name="uni0926094D_ghadeva_uuvowelsign" format="1">
  <advance width="702"/>
  <outline>
    <contour>
      <point x="654" y="-228"/>
      <point x="590" y="-228"/>
      <point x="575" y="-186" type="curve" smooth="yes"/>
      <point x="559" y="-142"/>
      <point x="608" y="-100"/>
      <point x="681" y="-100" type="curve" smooth="yes"/>
      <point x="728" y="-100"/>
      <point x="784" y="-132"/>
      <point x="816" y="-175" type="curve"/>
      <point x="852" y="-155" type="line"/>
      <point x="813" y="-90"/>
      <point x="751" y="-32"/>
      <point x="668" y="-32" type="curve" smooth="yes"/>
      <point x="545" y="-32"/>
      <point x="503" y="-126"/>
      <point x="532" y="-201" type="curve" smooth="yes"/>
      <point x="561" y="-290"/>
      <point x="682" y="-306"/>
      <point x="773" y="-246" type="curve"/>
      <point x="728" y="-180" type="line"/>
    </contour>
    <component base="uni0926094D_ghadeva"/>
    <contour>
      <point x="506" y="570" type="move" name="top"/>
    </contour>
    <contour>
      <point x="600" y="-64" type="move" name="bottom"/>
    </contour>
  </outline>
</glyph>
<glyph name="uni0926094D_nadeva_uvowelsignde" format="1">
  <advance width="595"/>
  <outline>
    <contour>
      <point x="509" y="134"/>
      <point x="479" y="156"/>
      <point x="447" y="156" type="curve" smooth="yes"/>
      <point x="407" y="156"/>
      <point x="361" y="125"/>
      <point x="387" y="46" type="curve" smooth="yes"/>
      <point x="400" y="5"/>
      <point x="431" y="-40"/>
      <point x="464" y="-87" type="curve"/>
      <point x="538" y="-59" type="line"/>
      <point x="466" y="18" type="line"/>
      <point x="488" y="33"/>
      <point x="509" y="56"/>
      <point x="509" y="91" type="curve" smooth="yes"/>
    </contour>
    <contour>
      <point x="428" y="104" type="line"/>
      <point x="382" y="67"/>
      <point x="344" y="56"/>
      <point x="306" y="56" type="curve" smooth="yes"/>
      <point x="225" y="56"/>
      <point x="174" y="105"/>
      <point x="174" y="187" type="curve" smooth="yes"/>
      <point x="174" y="273"/>
      <point x="228" y="323"/>
      <point x="309" y="323" type="curve" smooth="yes"/>
      <point x="460" y="323" type="line"/>
      <point x="460" y="506" type="line"/>
      <point x="604" y="506" type="line"/>
      <point x="576" y="570" type="line"/>
      <point x="15" y="570" type="line"/>
      <point x="43" y="506" type="line"/>
      <point x="381" y="506" type="line"/>
      <point x="381" y="396" type="line"/>
      <point x="310" y="396" type="line" smooth="yes"/>
      <point x="198" y="396"/>
      <point x="113" y="337"/>
      <point x="113" y="224" type="curve" smooth="yes"/>
      <point x="113" y="110"/>
      <point x="198" y="-6"/>
      <point x="346" y="-6" type="curve" smooth="yes"/>
      <point x="392" y="-6"/>
      <point x="431" y="6"/>
      <point x="471" y="33" type="curve"/>
    </contour>
    <contour>
      <point x="210" y="-15"/>
      <point x="57" y="-45"/>
      <point x="89" y="-143" type="curve" smooth="yes"/>
      <point x="103" y="-186"/>
      <point x="175" y="-211"/>
      <point x="215" y="-187" type="curve" smooth="yes"/>
      <point x="245" y="-170"/>
      <point x="244" y="-137"/>
      <point x="204" y="-81" type="curve"/>
      <point x="402" y="1" type="line"/>
      <point x="353" y="36" type="line"/>
    </contour>
    <contour>
      <point x="488" y="-87"/>
      <point x="545" y="-84"/>
      <point x="560" y="-126" type="curve" smooth="yes"/>
      <point x="576" y="-170"/>
      <point x="527" y="-212"/>
      <point x="454" y="-212" type="curve" smooth="yes"/>
      <point x="407" y="-212"/>
      <point x="351" y="-180"/>
      <point x="319" y="-137" type="curve"/>
      <point x="283" y="-157" type="line"/>
      <point x="322" y="-222"/>
      <point x="384" y="-280"/>
      <point x="467" y="-280" type="curve" smooth="yes"/>
      <point x="559" y="-280"/>
      <point x="610" y="-231"/>
      <point x="610" y="-155" type="curve" smooth="yes"/>
      <point x="610" y="-28"/>
      <point x="478" y="-3"/>
      <point x="383" y="-62" type="curve"/>
      <point x="424" y="-125" type="line"/>
    </contour>
    <contour>
      <point x="52" y="0" type="move" name="nukta"/>
    </contour>
    <contour>
      <point x="457" y="-235" type="move" name="bottom"/>
    </contour>
    <contour>
      <point x="423" y="570" type="move" name="top"/>
    </contour>
  </outline>
</glyph>
<glyph name="uni0926094D0930094D092F" format="1">
  <advance width="689"/>
  <note>
    dDRYa
  </note>
  <outline>
    <contour>
      <point x="185" y="-62" type="line"/>
      <point x="245" y="-134" type="line"/>
      <point x="471" y="49" type="line"/>
      <point x="441" y="106" type="line"/>
    </contour>
    <component base="uni0926094D092F"/>
  </outline>
</glyph>
<glyph name="uni0926094D_radeva_uuvowelsignd" format="1">
  <advance width="599"/>
  <outline>
    <contour>
      <point x="537" y="241"/>
      <point x="502" y="267"/>
      <point x="470" y="267" type="curve" smooth="yes"/>
      <point x="430" y="267"/>
      <point x="375" y="232"/>
      <point x="401" y="153" type="curve"/>
      <point x="561" y="-76" type="line"/>
      <point x="644" y="-72" type="line"/>
      <point x="489" y="125" type="line"/>
      <point x="511" y="140"/>
      <point x="537" y="163"/>
      <point x="537" y="199" type="curve" smooth="yes"/>
    </contour>
    <contour>
      <point x="460" y="445" type="line"/>
      <point x="312" y="445" type="line" smooth="yes"/>
      <point x="200" y="445"/>
      <point x="109" y="390"/>
      <point x="109" y="289" type="curve" smooth="yes"/>
      <point x="109" y="188"/>
      <point x="199" y="81"/>
      <point x="345" y="81" type="curve" smooth="yes"/>
      <point x="397" y="81"/>
      <point x="439" y="94"/>
      <point x="486" y="124" type="curve"/>
      <point x="440" y="189" type="line"/>
      <point x="396" y="155"/>
      <point x="357" y="136"/>
      <point x="307" y="136" type="curve" smooth="yes"/>
      <point x="237" y="136"/>
      <point x="182" y="187"/>
      <point x="182" y="251" type="curve" smooth="yes"/>
      <point x="182" y="318"/>
      <point x="230" y="373"/>
      <point x="311" y="373" type="curve" smooth="yes"/>
      <point x="460" y="373" type="line"/>
    </contour>
    <contour>
      <point x="460" y="373" type="line"/>
      <point x="460" y="506" type="line"/>
      <point x="604" y="506" type="line"/>
      <point x="576" y="570" type="line"/>
      <point x="15" y="570" type="line"/>
      <point x="43" y="506" type="line"/>
      <point x="381" y="506" type="line"/>
      <point x="381" y="396" type="line"/>
    </contour>
    <contour>
      <point x="479" y="174" type="line"/>
      <point x="177" y="-46" type="line"/>
      <point x="235" y="-107" type="line"/>
      <point x="479" y="95" type="line"/>
    </contour>
    <contour>
      <point x="525" y="-225"/>
      <point x="468" y="-228"/>
      <point x="453" y="-186" type="curve" smooth="yes"/>
      <point x="437" y="-142"/>
      <point x="486" y="-100"/>
      <point x="559" y="-100" type="curve" smooth="yes"/>
      <point x="606" y="-100"/>
      <point x="662" y="-132"/>
      <point x="694" y="-175" type="curve"/>
      <point x="730" y="-155" type="line"/>
      <point x="691" y="-90"/>
      <point x="629" y="-32"/>
      <point x="546" y="-32" type="curve" smooth="yes"/>
      <point x="454" y="-32"/>
      <point x="403" y="-81"/>
      <point x="403" y="-157" type="curve" smooth="yes"/>
      <point x="403" y="-284"/>
      <point x="535" y="-309"/>
      <point x="630" y="-250" type="curve"/>
      <point x="589" y="-187" type="line"/>
    </contour>
    <contour>
      <point x="419" y="570" type="move" name="top"/>
    </contour>
  </outline>
</glyph>
<glyph name="uni0926094D0935094D092F" format="1">
  <advance width="1079"/>
  <note>
    dDVYa
  </note>
  <outline>
    <contour>
      <point x="373" y="445" type="line" smooth="yes"/>
      <point x="399" y="373" type="line" smooth="yes"/>
      <point x="611" y="373" type="line"/>
      <point x="675" y="373"/>
      <point x="696" y="362"/>
      <point x="703" y="337" type="curve"/>
      <point x="710" y="303"/>
      <point x="696" y="267"/>
      <point x="582" y="232" type="curve" smooth="yes"/>
      <point x="636" y="56"/>
      <point x="775" y="15"/>
      <point x="872" y="99" type="curve" smooth="yes"/>
      <point x="872" y="0" type="line" smooth="yes"/>
      <point x="951" y="0" type="line" smooth="yes"/>
      <point x="951" y="506" type="line" smooth="yes"/>
      <point x="1064" y="506" type="line" smooth="yes"/>
      <point x="1036" y="570" type="line" smooth="yes"/>
      <point x="525" y="570" type="line" smooth="yes"/>
      <point x="553" y="506" type="line" smooth="yes"/>
      <point x="872" y="506" type="line" smooth="yes"/>
      <point x="872" y="192" type="line" smooth="yes"/>
      <point x="802" y="117"/>
      <point x="690" y="88"/>
      <point x="650" y="185" type="curve" smooth="yes"/>
      <point x="759" y="225"/>
      <point x="780" y="292"/>
      <point x="754" y="369" type="curve"/>
      <point x="734" y="415"/>
      <point x="691" y="445"/>
      <point x="619" y="445" type="curve"/>
    </contour>
    <component base="uni0926094D_vadeva"/>
    <contour>
      <point x="912" y="570" type="move" name="top"/>
    </contour>
    <contour>
      <point x="912" y="0" type="move" name="bottom"/>
    </contour>
  </outline>
</glyph>
<glyph name="dadeva_uvowelsigndeva" format="1">
  <advance width="558"/>
  <note>
    dDMatraU
  </note>
  <outline>
    <contour>
      <point x="402" y="120" type="line"/>
      <point x="417" y="-19" type="line"/>
      <point x="494" y="-50" type="line"/>
      <point x="453" y="130" type="line"/>
    </contour>
    <contour>
      <point x="416" y="81"/>
      <point x="537" y="117"/>
      <point x="537" y="199" type="curve" smooth="yes"/>
      <point x="537" y="241"/>
      <point x="502" y="267"/>
      <point x="470" y="267" type="curve" smooth="yes"/>
      <point x="431" y="267"/>
      <point x="379" y="234"/>
      <point x="399" y="161" type="curve"/>
      <point x="370" y="145"/>
      <point x="341" y="136"/>
      <point x="307" y="136" type="curve" smooth="yes"/>
      <point x="237" y="136"/>
      <point x="182" y="187"/>
      <point x="182" y="251" type="curve" smooth="yes"/>
      <point x="182" y="318"/>
      <point x="230" y="373"/>
      <point x="311" y="373" type="curve" smooth="yes"/>
      <point x="460" y="373" type="line"/>
      <point x="461" y="373" type="line"/>
      <point x="461" y="506" type="line"/>
      <point x="605" y="506" type="line"/>
      <point x="577" y="570" type="line"/>
      <point x="16" y="570" type="line"/>
      <point x="44" y="506" type="line"/>
      <point x="382" y="506" type="line"/>
      <point x="382" y="445" type="line"/>
      <point x="312" y="445" type="line" smooth="yes"/>
      <point x="200" y="445"/>
      <point x="109" y="390"/>
      <point x="109" y="289" type="curve" smooth="yes"/>
      <point x="109" y="188"/>
      <point x="199" y="81"/>
      <point x="345" y="81" type="curve" smooth="yes"/>
    </contour>
    <contour>
      <point x="411" y="-63"/>
      <point x="475" y="-63"/>
      <point x="490" y="-105" type="curve" smooth="yes"/>
      <point x="506" y="-149"/>
      <point x="457" y="-191"/>
      <point x="384" y="-191" type="curve" smooth="yes"/>
      <point x="337" y="-191"/>
      <point x="281" y="-159"/>
      <point x="249" y="-116" type="curve"/>
      <point x="213" y="-136" type="line"/>
      <point x="252" y="-201"/>
      <point x="314" y="-259"/>
      <point x="397" y="-259" type="curve" smooth="yes"/>
      <point x="520" y="-259"/>
      <point x="562" y="-165"/>
      <point x="533" y="-90" type="curve" smooth="yes"/>
      <point x="504" y="-1"/>
      <point x="383" y="15"/>
      <point x="292" y="-45" type="curve"/>
      <point x="337" y="-111" type="line"/>
    </contour>
    <contour>
      <point x="417" y="570" type="move" name="top"/>
    </contour>
  </outline>
</glyph>
<glyph name="dadeva_uuvowelsigndeva" format="1">
  <advance width="585"/>
  <note>
    dDMatraUu
  </note>
  <outline>
    <contour>
      <point x="402" y="120" type="line"/>
      <point x="417" y="-19" type="line"/>
      <point x="494" y="-50" type="line"/>
      <point x="453" y="130" type="line"/>
    </contour>
    <contour>
      <point x="416" y="81"/>
      <point x="537" y="117"/>
      <point x="537" y="199" type="curve" smooth="yes"/>
      <point x="537" y="241"/>
      <point x="502" y="267"/>
      <point x="470" y="267" type="curve" smooth="yes"/>
      <point x="431" y="267"/>
      <point x="379" y="234"/>
      <point x="399" y="161" type="curve"/>
      <point x="370" y="145"/>
      <point x="341" y="136"/>
      <point x="307" y="136" type="curve" smooth="yes"/>
      <point x="237" y="136"/>
      <point x="182" y="187"/>
      <point x="182" y="251" type="curve" smooth="yes"/>
      <point x="182" y="318"/>
      <point x="230" y="373"/>
      <point x="311" y="373" type="curve" smooth="yes"/>
      <point x="460" y="373" type="line"/>
      <point x="461" y="373" type="line"/>
      <point x="461" y="506" type="line"/>
      <point x="605" y="506" type="line"/>
      <point x="577" y="570" type="line"/>
      <point x="16" y="570" type="line"/>
      <point x="44" y="506" type="line"/>
      <point x="382" y="506" type="line"/>
      <point x="382" y="445" type="line"/>
      <point x="312" y="445" type="line" smooth="yes"/>
      <point x="200" y="445"/>
      <point x="109" y="390"/>
      <point x="109" y="289" type="curve" smooth="yes"/>
      <point x="109" y="188"/>
      <point x="199" y="81"/>
      <point x="345" y="81" type="curve" smooth="yes"/>
    </contour>
    <contour>
      <point x="424" y="-205"/>
      <point x="360" y="-205"/>
      <point x="345" y="-163" type="curve" smooth="yes"/>
      <point x="329" y="-119"/>
      <point x="378" y="-77"/>
      <point x="451" y="-77" type="curve" smooth="yes"/>
      <point x="498" y="-77"/>
      <point x="554" y="-109"/>
      <point x="586" y="-152" type="curve"/>
      <point x="622" y="-132" type="line"/>
      <point x="583" y="-67"/>
      <point x="521" y="-9"/>
      <point x="438" y="-9" type="curve" smooth="yes"/>
      <point x="315" y="-9"/>
      <point x="273" y="-103"/>
      <point x="302" y="-178" type="curve" smooth="yes"/>
      <point x="331" y="-267"/>
      <point x="452" y="-283"/>
      <point x="543" y="-223" type="curve"/>
      <point x="498" y="-157" type="line"/>
    </contour>
    <contour>
      <point x="425" y="570" type="move" name="top"/>
    </contour>
  </outline>
</glyph>
<glyph name="uni0921094D_ghadeva" format="1">
  <advance width="574"/>
  <note>
    dDdGha
  </note>
  <outline>
    <contour>
      <point x="424" y="196" type="line"/>
      <point x="424" y="-255" type="line"/>
      <point x="503" y="-255" type="line"/>
      <point x="503" y="233" type="line"/>
    </contour>
    <contour>
      <point x="70" y="276" type="line"/>
      <point x="125" y="185"/>
      <point x="208" y="107"/>
      <point x="345" y="107" type="curve"/>
      <point x="467" y="107"/>
      <point x="504" y="171"/>
      <point x="503" y="233" type="curve" smooth="yes"/>
      <point x="502" y="304"/>
      <point x="426" y="353"/>
      <point x="363" y="353" type="curve" smooth="yes"/>
      <point x="298" y="353"/>
      <point x="275" y="321"/>
      <point x="228" y="321" type="curve" smooth="yes"/>
      <point x="207" y="321"/>
      <point x="194" y="333"/>
      <point x="194" y="356" type="curve" smooth="yes"/>
      <point x="194" y="390"/>
      <point x="222" y="412"/>
      <point x="272" y="412" type="curve" smooth="yes"/>
      <point x="460" y="412" type="line"/>
      <point x="395" y="473" type="line"/>
      <point x="253" y="473" type="line" smooth="yes"/>
      <point x="172" y="473"/>
      <point x="133" y="434"/>
      <point x="135" y="383" type="curve" smooth="yes"/>
      <point x="138" y="310"/>
      <point x="230" y="266"/>
      <point x="283" y="266" type="curve" smooth="yes"/>
      <point x="329" y="266"/>
      <point x="368" y="295"/>
      <point x="409" y="294" type="curve" smooth="yes"/>
      <point x="439" y="294"/>
      <point x="449" y="280"/>
      <point x="449" y="254" type="curve" smooth="yes"/>
      <point x="449" y="224"/>
      <point x="410" y="178"/>
      <point x="318" y="178" type="curve" smooth="yes"/>
      <point x="246" y="178"/>
      <point x="168" y="200"/>
      <point x="100" y="297" type="curve"/>
    </contour>
    <contour>
      <point x="531" y="570" type="line"/>
      <point x="15" y="570" type="line"/>
      <point x="43" y="506" type="line"/>
      <point x="381" y="506" type="line"/>
      <point x="381" y="412" type="line"/>
      <point x="460" y="412" type="line"/>
      <point x="460" y="506" type="line"/>
      <point x="559" y="506" type="line"/>
    </contour>
    <contour>
      <point x="166" y="51"/>
      <point x="95" y="-11"/>
      <point x="95" y="-90" type="curve" smooth="yes"/>
      <point x="95" y="-153"/>
      <point x="140" y="-235"/>
      <point x="262" y="-235" type="curve" smooth="yes"/>
      <point x="359" y="-235"/>
      <point x="418" y="-183"/>
      <point x="482" y="-123" type="curve"/>
      <point x="432" y="-65" type="line"/>
      <point x="369" y="-127"/>
      <point x="305" y="-168"/>
      <point x="227" y="-168" type="curve" smooth="yes"/>
      <point x="175" y="-168"/>
      <point x="155" y="-150"/>
      <point x="155" y="-117" type="curve" smooth="yes"/>
      <point x="155" y="-74"/>
      <point x="188" y="-20"/>
      <point x="295" y="-19" type="curve"/>
      <point x="273" y="53" type="line"/>
    </contour>
    <contour>
      <point x="142" y="222" type="line"/>
      <point x="98" y="202"/>
      <point x="64" y="167"/>
      <point x="64" y="108" type="curve" smooth="yes"/>
      <point x="64" y="53"/>
      <point x="94" y="10"/>
      <point x="155" y="-20" type="curve"/>
      <point x="189" y="-2" type="line"/>
      <point x="148" y="24"/>
      <point x="129" y="55"/>
      <point x="129" y="87" type="curve" smooth="yes"/>
      <point x="129" y="119"/>
      <point x="149" y="153"/>
      <point x="194" y="173" type="curve"/>
    </contour>
    <contour>
      <point x="420" y="570" type="move" name="top"/>
    </contour>
    <contour>
      <point x="464" y="-279" type="move" name="bottom"/>
    </contour>
  </outline>
</glyph>
<glyph name="uni0921094D_madeva" format="1">
  <advance width="995"/>
  <note>
    dDdMa
  </note>
  <outline>
    <contour>
      <point x="454" y="381" type="line"/>
      <point x="591" y="381"/>
      <point x="648" y="386"/>
      <point x="597" y="200" type="curve"/>
      <point x="797" y="200" type="line"/>
      <point x="797" y="0" type="line"/>
      <point x="876" y="0" type="line"/>
      <point x="876" y="506" type="line"/>
      <point x="980" y="506" type="line"/>
      <point x="952" y="570" type="line"/>
      <point x="663" y="570" type="line"/>
      <point x="691" y="506" type="line"/>
      <point x="797" y="506" type="line"/>
      <point x="797" y="264" type="line"/>
      <point x="676" y="264" type="line"/>
      <point x="678" y="396"/>
      <point x="593" y="445"/>
      <point x="488" y="445" type="curve" smooth="yes"/>
      <point x="453" y="445" type="line"/>
    </contour>
    <component base="ddadeva"/>
    <component base="deva_knot" xOffset="483" yOffset="-59"/>
    <contour>
      <point x="839" y="570" type="move" name="top"/>
    </contour>
    <contour>
      <point x="839" y="0" type="move" name="bottom"/>
    </contour>
  </outline>
</glyph>
<glyph name="uni0921094D_nadeva" format="1">
  <advance width="684"/>
  <note>
    dDdNa
  </note>
  <outline>
    <contour>
      <point x="597" y="466"/>
      <point x="571" y="465"/>
      <point x="546" y="440" type="curve" smooth="yes"/>
      <point x="520" y="414"/>
      <point x="520" y="389"/>
      <point x="549" y="360" type="curve" smooth="yes"/>
      <point x="578" y="331"/>
      <point x="603" y="331"/>
      <point x="629" y="357" type="curve" smooth="yes"/>
      <point x="654" y="382"/>
      <point x="657" y="406"/>
      <point x="626" y="437" type="curve" smooth="yes"/>
    </contour>
    <contour>
      <point x="424" y="196" type="line"/>
      <point x="424" y="-255" type="line"/>
      <point x="503" y="-255" type="line"/>
      <point x="503" y="233" type="line"/>
    </contour>
    <contour>
      <point x="70" y="276" type="line"/>
      <point x="125" y="185"/>
      <point x="208" y="107"/>
      <point x="345" y="107" type="curve"/>
      <point x="467" y="107"/>
      <point x="504" y="171"/>
      <point x="503" y="233" type="curve" smooth="yes"/>
      <point x="502" y="304"/>
      <point x="426" y="353"/>
      <point x="363" y="353" type="curve" smooth="yes"/>
      <point x="298" y="353"/>
      <point x="275" y="321"/>
      <point x="228" y="321" type="curve" smooth="yes"/>
      <point x="207" y="321"/>
      <point x="194" y="333"/>
      <point x="194" y="356" type="curve" smooth="yes"/>
      <point x="194" y="390"/>
      <point x="222" y="412"/>
      <point x="272" y="412" type="curve" smooth="yes"/>
      <point x="460" y="412" type="line"/>
      <point x="395" y="473" type="line"/>
      <point x="253" y="473" type="line" smooth="yes"/>
      <point x="172" y="473"/>
      <point x="133" y="434"/>
      <point x="135" y="383" type="curve" smooth="yes"/>
      <point x="138" y="310"/>
      <point x="230" y="266"/>
      <point x="283" y="266" type="curve" smooth="yes"/>
      <point x="329" y="266"/>
      <point x="368" y="295"/>
      <point x="409" y="294" type="curve" smooth="yes"/>
      <point x="439" y="294"/>
      <point x="449" y="280"/>
      <point x="449" y="254" type="curve" smooth="yes"/>
      <point x="449" y="224"/>
      <point x="410" y="178"/>
      <point x="318" y="178" type="curve" smooth="yes"/>
      <point x="246" y="178"/>
      <point x="168" y="200"/>
      <point x="100" y="297" type="curve"/>
    </contour>
    <contour>
      <point x="641" y="570" type="line"/>
      <point x="15" y="570" type="line"/>
      <point x="43" y="506" type="line"/>
      <point x="381" y="506" type="line"/>
      <point x="381" y="412" type="line"/>
      <point x="460" y="412" type="line"/>
      <point x="460" y="506" type="line"/>
      <point x="669" y="506" type="line"/>
    </contour>
    <contour>
      <point x="457" y="-20" type="line"/>
      <point x="129" y="-20" type="line" smooth="yes"/>
      <point x="102" y="-20"/>
      <point x="92" y="-28"/>
      <point x="92" y="-45" type="curve" smooth="yes"/>
      <point x="92" y="-89"/>
      <point x="176" y="-157"/>
      <point x="208" y="-157" type="curve" smooth="yes"/>
      <point x="228" y="-157"/>
      <point x="234" y="-142"/>
      <point x="234" y="-112" type="curve" smooth="yes"/>
      <point x="234" y="-84" type="line"/>
      <point x="457" y="-84" type="line"/>
    </contour>
    <contour>
      <point x="418" y="570" type="move" name="top"/>
    </contour>
    <contour>
      <point x="469" y="-266" type="move" name="bottom"/>
    </contour>
  </outline>
</glyph>
<glyph name="uni0922094D0922094D092F" format="1">
  <advance width="1079"/>
  <note>
    dDdhDdhYa
  </note>
  <outline>
    <contour>
      <point x="373" y="461" type="line"/>
      <point x="399" y="397" type="line"/>
      <point x="611" y="397" type="line" smooth="yes"/>
      <point x="675" y="397"/>
      <point x="696" y="385"/>
      <point x="703" y="360" type="curve" smooth="yes"/>
      <point x="713" y="326"/>
      <point x="693" y="278"/>
      <point x="552" y="232" type="curve"/>
      <point x="612" y="56"/>
      <point x="766" y="15"/>
      <point x="872" y="99" type="curve"/>
      <point x="872" y="0" type="line"/>
      <point x="951" y="0" type="line"/>
      <point x="951" y="506" type="line"/>
      <point x="1064" y="506" type="line"/>
      <point x="1036" y="570" type="line"/>
      <point x="525" y="570" type="line"/>
      <point x="553" y="506" type="line"/>
      <point x="872" y="506" type="line"/>
      <point x="872" y="192" type="line"/>
      <point x="793" y="117"/>
      <point x="666" y="88"/>
      <point x="620" y="185" type="curve"/>
      <point x="759" y="236"/>
      <point x="788" y="308"/>
      <point x="754" y="385" type="curve" smooth="yes"/>
      <point x="734" y="431"/>
      <point x="691" y="461"/>
      <point x="619" y="461" type="curve" smooth="yes"/>
    </contour>
    <component base="uni0922094D_ddhadeva"/>
    <contour>
      <point x="909" y="570" type="move" name="top"/>
    </contour>
    <contour>
      <point x="918" y="0" type="move" name="bottom"/>
    </contour>
  </outline>
</glyph>
<glyph name="uni0922094D092F" format="1">
  <advance width="1059"/>
  <note>
    dDdhYa
  </note>
  <outline>
    <contour>
      <point x="554" y="570" type="line"/>
      <point x="15" y="570" type="line"/>
      <point x="43" y="506" type="line"/>
      <point x="381" y="506" type="line"/>
      <point x="381" y="423" type="line"/>
      <point x="293" y="423" type="line" smooth="yes"/>
      <point x="168" y="423"/>
      <point x="96" y="348"/>
      <point x="96" y="257" type="curve" smooth="yes"/>
      <point x="96" y="147"/>
      <point x="188" y="-9"/>
      <point x="364" y="-7" type="curve" smooth="yes"/>
      <point x="458" y="-6"/>
      <point x="512" y="44"/>
      <point x="512" y="114" type="curve" smooth="yes"/>
      <point x="512" y="188"/>
      <point x="453" y="268"/>
      <point x="368" y="267" type="curve" smooth="yes"/>
      <point x="302" y="266"/>
      <point x="264" y="225"/>
      <point x="264" y="173" type="curve" smooth="yes"/>
      <point x="264" y="138"/>
      <point x="281" y="97"/>
      <point x="318" y="58" type="curve"/>
      <point x="245" y="63"/>
      <point x="173" y="106"/>
      <point x="173" y="216" type="curve" smooth="yes"/>
      <point x="173" y="296"/>
      <point x="211" y="355"/>
      <point x="309" y="355" type="curve" smooth="yes"/>
      <point x="431" y="355" type="line"/>
      <point x="460" y="425" type="line"/>
      <point x="460" y="506" type="line"/>
      <point x="576" y="506" type="line"/>
    </contour>
    <contour>
      <point x="441" y="213"/>
      <point x="456" y="184"/>
      <point x="456" y="148" type="curve" smooth="yes"/>
      <point x="456" y="99"/>
      <point x="420" y="67"/>
      <point x="369" y="59" type="curve"/>
      <point x="346" y="88"/>
      <point x="336" y="117"/>
      <point x="336" y="144" type="curve" smooth="yes"/>
      <point x="336" y="184"/>
      <point x="356" y="215"/>
      <point x="393" y="214" type="curve" smooth="yes"/>
    </contour>
    <contour>
      <point x="373" y="423" type="line"/>
      <point x="399" y="355" type="line"/>
      <point x="611" y="355" type="line" smooth="yes"/>
      <point x="675" y="355"/>
      <point x="696" y="338"/>
      <point x="703" y="313" type="curve" smooth="yes"/>
      <point x="713" y="279"/>
      <point x="693" y="222"/>
      <point x="552" y="176" type="curve"/>
      <point x="612" y="0"/>
      <point x="766" y="15"/>
      <point x="872" y="69" type="curve"/>
      <point x="872" y="0" type="line"/>
      <point x="951" y="0" type="line"/>
      <point x="951" y="506" type="line"/>
      <point x="1064" y="506" type="line"/>
      <point x="1036" y="570" type="line"/>
      <point x="525" y="570" type="line"/>
      <point x="553" y="506" type="line"/>
      <point x="872" y="506" type="line"/>
      <point x="872" y="162" type="line"/>
      <point x="783" y="107"/>
      <point x="680" y="77"/>
      <point x="625" y="134" type="curve"/>
      <point x="764" y="185"/>
      <point x="788" y="270"/>
      <point x="754" y="347" type="curve" smooth="yes"/>
      <point x="734" y="393"/>
      <point x="691" y="423"/>
      <point x="619" y="423" type="curve" smooth="yes"/>
    </contour>
    <contour>
      <point x="914" y="570" type="move" name="top"/>
    </contour>
    <contour>
      <point x="914" y="0" type="move" name="bottom"/>
    </contour>
  </outline>
</glyph>
<glyph name="uni0927094D" format="1">
  <advance width="465"/>
  <outline>
    <contour>
      <point x="464" y="506" type="line"/>
      <point x="436" y="570" type="line"/>
      <point x="321" y="570" type="line"/>
      <point x="349" y="506" type="line"/>
    </contour>
    <contour>
      <point x="184" y="356"/>
      <point x="108" y="310"/>
      <point x="108" y="216" type="curve" smooth="yes"/>
      <point x="108" y="122"/>
      <point x="185" y="57"/>
      <point x="280" y="57" type="curve" smooth="yes"/>
      <point x="365" y="57"/>
      <point x="443" y="116"/>
      <point x="495" y="203" type="curve"/>
      <point x="435" y="261" type="line"/>
      <point x="395" y="161"/>
      <point x="311" y="118"/>
      <point x="248" y="118" type="curve" smooth="yes"/>
      <point x="197" y="118"/>
      <point x="169" y="146"/>
      <point x="169" y="191" type="curve" smooth="yes"/>
      <point x="169" y="244"/>
      <point x="208" y="296"/>
      <point x="318" y="301" type="curve"/>
      <point x="298" y="364" type="line"/>
    </contour>
    <contour>
      <point x="141" y="353"/>
      <point x="109" y="404"/>
      <point x="109" y="457" type="curve" smooth="yes"/>
      <point x="109" y="516"/>
      <point x="148" y="551"/>
      <point x="193" y="551" type="curve" smooth="yes"/>
      <point x="223" y="551"/>
      <point x="237" y="535"/>
      <point x="237" y="513" type="curve" smooth="yes"/>
      <point x="237" y="486"/>
      <point x="217" y="452"/>
      <point x="181" y="426" type="curve"/>
      <point x="220" y="388" type="line"/>
      <point x="260" y="416"/>
      <point x="284" y="448"/>
      <point x="284" y="491" type="curve" smooth="yes"/>
      <point x="284" y="546"/>
      <point x="235" y="597"/>
      <point x="159" y="597" type="curve" smooth="yes"/>
      <point x="80" y="597"/>
      <point x="40" y="541"/>
      <point x="40" y="477" type="curve" smooth="yes"/>
      <point x="40" y="412"/>
      <point x="82" y="339"/>
      <point x="167" y="308" type="curve"/>
      <point x="193" y="332" type="line"/>
    </contour>
  </outline>
</glyph>
<glyph name="evowelsigndeva_uni0930094D" format="1">
  <advance width="614"/>
  <outline>
    <contour>
      <point x="431" y="596" type="line"/>
      <point x="346" y="779"/>
      <point x="491" y="772"/>
      <point x="572" y="711" type="curve"/>
      <point x="557" y="782" type="line"/>
      <point x="529" y="806"/>
      <point x="490" y="820"/>
      <point x="459" y="820" type="curve" smooth="yes"/>
      <point x="384" y="820"/>
      <point x="326" y="756"/>
      <point x="382" y="635" type="curve"/>
    </contour>
    <component base="evowelsigndeva"/>
    <contour>
      <point x="429" y="555" type="move" name="_top"/>
    </contour>
  </outline>
</glyph>
<glyph name="evowelsigndeva_uni0930094D_anus" format="1">
  <advance width="275"/>
  <outline>
    <component base="evowelsigndeva_uni0930094D" xOffset="-247"/>
    <component base="anusvaradeva" xOffset="121" yOffset="-45"/>
    <contour>
      <point x="183" y="555" type="move" name="_top"/>
    </contour>
  </outline>
</glyph>
<glyph name="eightdeva.loclNEP" format="1">
  <advance width="515"/>
  <outline>
    <contour>
      <point x="15" y="570" type="line"/>
      <point x="43" y="506" type="line"/>
      <point x="500" y="506" type="line"/>
      <point x="472" y="570" type="line"/>
    </contour>
    <contour>
      <point x="257" y="530" type="line"/>
      <point x="101" y="401"/>
      <point x="28" y="284"/>
      <point x="28" y="188" type="curve" smooth="yes"/>
      <point x="28" y="86"/>
      <point x="116" y="0"/>
      <point x="229" y="0" type="curve" smooth="yes"/>
      <point x="296" y="0"/>
      <point x="366" y="32"/>
      <point x="413" y="98" type="curve"/>
      <point x="365" y="170" type="line"/>
      <point x="328" y="105"/>
      <point x="255" y="57"/>
      <point x="193" y="57" type="curve" smooth="yes"/>
      <point x="124" y="57"/>
      <point x="93" y="95"/>
      <point x="93" y="149" type="curve" smooth="yes"/>
      <point x="93" y="256"/>
      <point x="210" y="427"/>
      <point x="383" y="508" type="curve"/>
    </contour>
  </outline>
</glyph>
<glyph name="uni0917094D0928094D" format="1">
  <advance width="303"/>
  <note>
    dGN.half
  </note>
  <outline>
    <component base="nadeva.post2" xOffset="562"/>
    <component base="uni0917094D"/>
    <contour>
      <point x="172" y="0" type="move" name="nukta"/>
    </contour>
  </outline>
</glyph>
<glyph name="uni0917094D_radeva" format="1">
  <advance width="614"/>
  <note>
    dGRa
  </note>
  <outline>
    <contour>
      <point x="120" y="23" type="line"/>
      <point x="178" y="-48" type="line"/>
      <point x="452" y="180" type="line"/>
      <point x="423" y="224" type="line"/>
    </contour>
    <component base="gadeva"/>
  </outline>
</glyph>
<glyph name="uni0918094D0930094D" format="1">
  <advance width="374"/>
  <note>
    dGhR.half
  </note>
  <outline>
    <contour>
      <point x="172" y="-43" type="line"/>
      <point x="209" y="-86" type="line"/>
      <point x="451" y="119" type="line"/>
      <point x="416" y="159" type="line"/>
    </contour>
    <component base="uni0918094D"/>
  </outline>
</glyph>
<glyph name="uni0939094D0932" format="1">
  <advance width="604"/>
  <note>
    dHLa
  </note>
  <outline>
    <contour>
      <point x="199" y="240" type="line"/>
      <point x="179" y="262"/>
      <point x="158" y="298"/>
      <point x="158" y="326" type="curve" smooth="yes"/>
      <point x="158" y="364"/>
      <point x="180" y="381"/>
      <point x="222" y="381" type="curve" smooth="yes"/>
      <point x="420" y="381" type="line"/>
      <point x="420" y="506" type="line"/>
      <point x="544" y="506" type="line"/>
      <point x="516" y="570" type="line"/>
      <point x="15" y="570" type="line"/>
      <point x="43" y="506" type="line"/>
      <point x="341" y="506" type="line"/>
      <point x="341" y="445" type="line"/>
      <point x="213" y="445" type="line" smooth="yes"/>
      <point x="127" y="445"/>
      <point x="97" y="410"/>
      <point x="99" y="347" type="curve" smooth="yes"/>
      <point x="100" y="301"/>
      <point x="129" y="253"/>
      <point x="172" y="202" type="curve"/>
    </contour>
    <contour>
      <point x="640" y="191"/>
      <point x="498" y="331"/>
      <point x="316" y="331" type="curve" smooth="yes"/>
      <point x="196" y="331"/>
      <point x="84" y="248"/>
      <point x="84" y="126" type="curve" smooth="yes"/>
      <point x="84" y="14"/>
      <point x="160" y="-94"/>
      <point x="332" y="-144" type="curve"/>
      <point x="348" y="-108" type="line"/>
      <point x="210" y="-56"/>
      <point x="174" y="14"/>
      <point x="171" y="95" type="curve" smooth="yes"/>
      <point x="167" y="201"/>
      <point x="246" y="288"/>
      <point x="373" y="277" type="curve" smooth="yes"/>
      <point x="488" y="267"/>
      <point x="562" y="167"/>
      <point x="507" y="71" type="curve"/>
      <point x="572" y="32" type="line"/>
    </contour>
    <contour>
      <point x="385" y="189"/>
      <point x="352" y="214"/>
      <point x="302" y="214" type="curve" smooth="yes"/>
      <point x="254" y="214"/>
      <point x="222" y="174"/>
      <point x="223" y="130" type="curve" smooth="yes"/>
      <point x="222" y="71"/>
      <point x="277" y="13"/>
      <point x="323" y="-12" type="curve"/>
      <point x="338" y="4" type="line"/>
      <point x="303" y="35"/>
      <point x="282" y="73"/>
      <point x="282" y="105" type="curve" smooth="yes"/>
      <point x="282" y="140"/>
      <point x="301" y="158"/>
      <point x="326" y="158" type="curve" smooth="yes"/>
      <point x="349" y="158"/>
      <point x="378" y="143"/>
      <point x="405" y="110" type="curve"/>
      <point x="432" y="135" type="line"/>
    </contour>
    <contour>
      <point x="563" y="161" type="line"/>
      <point x="543" y="186"/>
      <point x="518" y="197"/>
      <point x="494" y="197" type="curve" smooth="yes"/>
      <point x="441" y="197"/>
      <point x="387" y="140"/>
      <point x="376" y="50" type="curve"/>
      <point x="425" y="31" type="line"/>
      <point x="439" y="102"/>
      <point x="476" y="147"/>
      <point x="516" y="147" type="curve" smooth="yes"/>
      <point x="533" y="147"/>
      <point x="550" y="139"/>
      <point x="566" y="122" type="curve"/>
    </contour>
    <contour>
      <point x="375" y="570" type="move" name="top"/>
    </contour>
    <contour>
      <point x="317" y="-151" type="move" name="bottom"/>
    </contour>
  </outline>
</glyph>
<glyph name="uni0939094D_madeva" format="1">
  <advance width="702"/>
  <note>
    dHMa
  </note>
  <outline>
    <contour>
      <point x="189" y="270" type="line"/>
      <point x="175" y="283"/>
      <point x="158" y="298"/>
      <point x="158" y="326" type="curve" smooth="yes"/>
      <point x="158" y="364"/>
      <point x="180" y="381"/>
      <point x="222" y="381" type="curve" smooth="yes"/>
      <point x="420" y="381" type="line"/>
      <point x="420" y="506" type="line"/>
      <point x="724" y="506" type="line"/>
      <point x="696" y="570" type="line"/>
      <point x="15" y="570" type="line"/>
      <point x="43" y="506" type="line"/>
      <point x="341" y="506" type="line"/>
      <point x="341" y="445" type="line"/>
      <point x="213" y="445" type="line" smooth="yes"/>
      <point x="127" y="445"/>
      <point x="97" y="410"/>
      <point x="99" y="347" type="curve" smooth="yes"/>
      <point x="100" y="301"/>
      <point x="129" y="253"/>
      <point x="162" y="232" type="curve"/>
    </contour>
    <contour>
      <point x="404" y="258"/>
      <point x="325" y="331"/>
      <point x="241" y="331" type="curve" smooth="yes"/>
      <point x="130" y="331"/>
      <point x="83" y="254"/>
      <point x="83" y="142" type="curve" smooth="yes"/>
      <point x="83" y="23"/>
      <point x="159" y="-91"/>
      <point x="331" y="-144" type="curve"/>
      <point x="347" y="-108" type="line"/>
      <point x="209" y="-53"/>
      <point x="163" y="14"/>
      <point x="160" y="141" type="curve" smooth="yes"/>
      <point x="158" y="236"/>
      <point x="216" y="287"/>
      <point x="278" y="287" type="curve" smooth="yes"/>
      <point x="311" y="287"/>
      <point x="325" y="267"/>
      <point x="325" y="199" type="curve" smooth="yes"/>
      <point x="325" y="120" type="line"/>
      <point x="404" y="120" type="line"/>
      <point x="404" y="139" type="line" smooth="yes"/>
    </contour>
    <contour>
      <point x="519" y="546" type="line"/>
      <point x="519" y="184" type="line"/>
      <point x="319" y="184" type="line"/>
      <point x="319" y="120" type="line"/>
      <point x="519" y="120" type="line"/>
      <point x="519" y="0" type="line"/>
      <point x="598" y="0" type="line"/>
      <point x="598" y="546" type="line"/>
    </contour>
    <component base="deva_knot" xOffset="225" yOffset="-115" xScale="0.93" yScale="0.93"/>
    <contour>
      <point x="557" y="570" type="move" name="top"/>
    </contour>
    <contour>
      <point x="557" y="0" type="move" name="bottom"/>
    </contour>
  </outline>
</glyph>
<glyph name="uni0939094D_nadeva" format="1">
  <advance width="559"/>
  <note>
    dHNa
  </note>
  <outline>
    <contour>
      <point x="199" y="240" type="line"/>
      <point x="179" y="262"/>
      <point x="158" y="298"/>
      <point x="158" y="326" type="curve" smooth="yes"/>
      <point x="158" y="364"/>
      <point x="180" y="381"/>
      <point x="222" y="381" type="curve" smooth="yes"/>
      <point x="420" y="381" type="line"/>
      <point x="420" y="506" type="line"/>
      <point x="544" y="506" type="line"/>
      <point x="516" y="570" type="line"/>
      <point x="15" y="570" type="line"/>
      <point x="43" y="506" type="line"/>
      <point x="341" y="506" type="line"/>
      <point x="341" y="445" type="line"/>
      <point x="213" y="445" type="line" smooth="yes"/>
      <point x="127" y="445"/>
      <point x="97" y="410"/>
      <point x="99" y="347" type="curve" smooth="yes"/>
      <point x="100" y="301"/>
      <point x="129" y="253"/>
      <point x="172" y="202" type="curve"/>
    </contour>
    <contour>
      <point x="578" y="136"/>
      <point x="504" y="331"/>
      <point x="312" y="331" type="curve" smooth="yes"/>
      <point x="207" y="331"/>
      <point x="94" y="248"/>
      <point x="94" y="126" type="curve" smooth="yes"/>
      <point x="94" y="14"/>
      <point x="167" y="-94"/>
      <point x="332" y="-144" type="curve"/>
      <point x="348" y="-108" type="line"/>
      <point x="218" y="-56"/>
      <point x="184" y="14"/>
      <point x="181" y="95" type="curve" smooth="yes"/>
      <point x="177" y="201"/>
      <point x="272" y="277"/>
      <point x="353" y="277" type="curve" smooth="yes"/>
      <point x="468" y="277"/>
      <point x="480" y="147"/>
      <point x="389" y="56" type="curve"/>
      <point x="442" y="2" type="line"/>
    </contour>
    <contour>
      <point x="261" y="150"/>
      <point x="236" y="110"/>
      <point x="244" y="64" type="curve"/>
      <point x="252" y="30"/>
      <point x="285" y="12"/>
      <point x="317" y="18" type="curve"/>
      <point x="343" y="23"/>
      <point x="366" y="46"/>
      <point x="360" y="76" type="curve"/>
      <point x="357" y="95"/>
      <point x="345" y="112"/>
      <point x="322" y="122" type="curve"/>
      <point x="450" y="255" type="line"/>
      <point x="411" y="285" type="line"/>
    </contour>
    <contour>
      <point x="379" y="570" type="move" name="top"/>
    </contour>
    <contour>
      <point x="322" y="-110" type="move" name="bottom"/>
    </contour>
  </outline>
</glyph>
<glyph name="uni0939094D_radeva" format="1">
  <advance width="559"/>
  <note>
    dHRa
  </note>
  <outline>
    <contour>
      <point x="199" y="240" type="line"/>
      <point x="179" y="262"/>
      <point x="158" y="298"/>
      <point x="158" y="326" type="curve" smooth="yes"/>
      <point x="158" y="364"/>
      <point x="180" y="381"/>
      <point x="222" y="381" type="curve" smooth="yes"/>
      <point x="420" y="381" type="line"/>
      <point x="420" y="506" type="line"/>
      <point x="544" y="506" type="line"/>
      <point x="516" y="570" type="line"/>
      <point x="15" y="570" type="line"/>
      <point x="43" y="506" type="line"/>
      <point x="341" y="506" type="line"/>
      <point x="341" y="445" type="line"/>
      <point x="213" y="445" type="line" smooth="yes"/>
      <point x="127" y="445"/>
      <point x="97" y="410"/>
      <point x="99" y="347" type="curve" smooth="yes"/>
      <point x="100" y="301"/>
      <point x="129" y="253"/>
      <point x="172" y="202" type="curve"/>
    </contour>
    <contour>
      <point x="255" y="113" type="line"/>
      <point x="301" y="69" type="line"/>
      <point x="445" y="243" type="line"/>
      <point x="399" y="277" type="line"/>
    </contour>
    <contour>
      <point x="504" y="331"/>
      <point x="312" y="331" type="curve" smooth="yes"/>
      <point x="207" y="331"/>
      <point x="94" y="248"/>
      <point x="94" y="126" type="curve" smooth="yes"/>
      <point x="94" y="14"/>
      <point x="167" y="-94"/>
      <point x="332" y="-144" type="curve"/>
      <point x="348" y="-108" type="line"/>
      <point x="218" y="-56"/>
      <point x="184" y="14"/>
      <point x="181" y="95" type="curve" smooth="yes"/>
      <point x="177" y="201"/>
      <point x="272" y="277"/>
      <point x="353" y="277" type="curve" smooth="yes"/>
      <point x="468" y="277"/>
      <point x="480" y="147"/>
      <point x="389" y="56" type="curve"/>
      <point x="442" y="2" type="line"/>
      <point x="578" y="136"/>
    </contour>
    <contour>
      <point x="381" y="570" type="move" name="top"/>
    </contour>
    <contour>
      <point x="322" y="-109" type="move" name="bottom"/>
    </contour>
  </outline>
</glyph>
<glyph name="uni0939094D_vadeva" format="1">
  <advance width="559"/>
  <note>
    dHVa
  </note>
  <outline>
    <contour>
      <point x="199" y="240" type="line"/>
      <point x="179" y="262"/>
      <point x="158" y="298"/>
      <point x="158" y="326" type="curve" smooth="yes"/>
      <point x="158" y="364"/>
      <point x="170" y="381"/>
      <point x="212" y="381" type="curve" smooth="yes"/>
      <point x="420" y="381" type="line"/>
      <point x="420" y="506" type="line"/>
      <point x="544" y="506" type="line"/>
      <point x="516" y="570" type="line"/>
      <point x="15" y="570" type="line"/>
      <point x="43" y="506" type="line"/>
      <point x="341" y="506" type="line"/>
      <point x="341" y="445" type="line"/>
      <point x="213" y="445" type="line" smooth="yes"/>
      <point x="127" y="445"/>
      <point x="97" y="410"/>
      <point x="99" y="347" type="curve" smooth="yes"/>
      <point x="100" y="301"/>
      <point x="129" y="253"/>
      <point x="172" y="202" type="curve"/>
    </contour>
    <contour>
      <point x="285" y="211"/>
      <point x="245" y="161"/>
      <point x="245" y="115" type="curve" smooth="yes"/>
      <point x="245" y="50"/>
      <point x="293" y="-2"/>
      <point x="380" y="-2" type="curve" smooth="yes"/>
      <point x="410" y="-2"/>
      <point x="450" y="7"/>
      <point x="481" y="44" type="curve"/>
      <point x="481" y="113" type="line"/>
      <point x="439" y="59"/>
      <point x="375" y="41"/>
      <point x="342" y="41" type="curve" smooth="yes"/>
      <point x="311" y="41"/>
      <point x="294" y="56"/>
      <point x="294" y="85" type="curve" smooth="yes"/>
      <point x="294" y="129"/>
      <point x="328" y="150"/>
      <point x="373" y="150" type="curve" smooth="yes"/>
      <point x="408" y="150"/>
      <point x="450" y="138"/>
      <point x="487" y="115" type="curve"/>
      <point x="488" y="159" type="line"/>
      <point x="438" y="197"/>
      <point x="401" y="211"/>
      <point x="354" y="211" type="curve" smooth="yes"/>
    </contour>
    <contour>
      <point x="504" y="331"/>
      <point x="312" y="331" type="curve" smooth="yes"/>
      <point x="207" y="331"/>
      <point x="94" y="248"/>
      <point x="94" y="126" type="curve" smooth="yes"/>
      <point x="94" y="14"/>
      <point x="167" y="-94"/>
      <point x="332" y="-144" type="curve"/>
      <point x="348" y="-108" type="line"/>
      <point x="218" y="-56"/>
      <point x="184" y="14"/>
      <point x="181" y="95" type="curve" smooth="yes"/>
      <point x="177" y="201"/>
      <point x="263" y="298"/>
      <point x="373" y="275" type="curve" smooth="yes"/>
      <point x="487" y="251"/>
      <point x="510" y="104"/>
      <point x="429" y="-34" type="curve"/>
      <point x="493" y="-57" type="line"/>
      <point x="609" y="113"/>
    </contour>
    <contour>
      <point x="375" y="570" type="move" name="top"/>
    </contour>
    <contour>
      <point x="335" y="-117" type="move" name="bottom"/>
    </contour>
  </outline>
</glyph>
<glyph name="uni0939094D092F" format="1">
  <advance width="719"/>
  <note>
    dHYa
  </note>
  <outline>
    <contour>
      <point x="189" y="270" type="line"/>
      <point x="175" y="283"/>
      <point x="158" y="298"/>
      <point x="158" y="326" type="curve" smooth="yes"/>
      <point x="158" y="364"/>
      <point x="181" y="381"/>
      <point x="223" y="381" type="curve" smooth="yes"/>
      <point x="420" y="381" type="line"/>
      <point x="420" y="506" type="line"/>
      <point x="704" y="506" type="line"/>
      <point x="676" y="570" type="line"/>
      <point x="15" y="570" type="line"/>
      <point x="43" y="506" type="line"/>
      <point x="341" y="506" type="line"/>
      <point x="341" y="445" type="line"/>
      <point x="213" y="445" type="line" smooth="yes"/>
      <point x="127" y="445"/>
      <point x="97" y="410"/>
      <point x="99" y="347" type="curve" smooth="yes"/>
      <point x="100" y="301"/>
      <point x="129" y="253"/>
      <point x="162" y="232" type="curve"/>
    </contour>
    <contour>
      <point x="538" y="506" type="line"/>
      <point x="538" y="192" type="line"/>
      <point x="463" y="117"/>
      <point x="378" y="109"/>
      <point x="336" y="165" type="curve"/>
      <point x="401" y="218"/>
      <point x="387" y="283"/>
      <point x="343" y="314" type="curve" smooth="yes"/>
      <point x="259" y="374"/>
      <point x="83" y="306"/>
      <point x="83" y="142" type="curve" smooth="yes"/>
      <point x="83" y="23"/>
      <point x="159" y="-91"/>
      <point x="331" y="-144" type="curve"/>
      <point x="347" y="-108" type="line"/>
      <point x="209" y="-53"/>
      <point x="163" y="14"/>
      <point x="161" y="121" type="curve" smooth="yes"/>
      <point x="158" y="258"/>
      <point x="273" y="314"/>
      <point x="320" y="285" type="curve" smooth="yes"/>
      <point x="346" y="263"/>
      <point x="320" y="222"/>
      <point x="262" y="192" type="curve"/>
      <point x="321" y="50"/>
      <point x="451" y="51"/>
      <point x="538" y="99" type="curve"/>
      <point x="538" y="0" type="line"/>
      <point x="617" y="0" type="line"/>
      <point x="617" y="506" type="line"/>
    </contour>
    <contour>
      <point x="577" y="570" type="move" name="top"/>
    </contour>
    <contour>
      <point x="578" y="0" type="move" name="bottom"/>
    </contour>
  </outline>
</glyph>
<glyph name="hadeva_rvocalicvowelsigndeva" format="1">
  <advance width="599"/>
  <note>
    dHMatraVocalicR
  </note>
  <outline>
    <contour>
      <point x="189" y="270" type="line"/>
      <point x="175" y="283"/>
      <point x="158" y="298"/>
      <point x="158" y="326" type="curve" smooth="yes"/>
      <point x="158" y="364"/>
      <point x="181" y="381"/>
      <point x="223" y="381" type="curve" smooth="yes"/>
      <point x="420" y="381" type="line"/>
      <point x="420" y="506" type="line"/>
      <point x="584" y="506" type="line"/>
      <point x="556" y="570" type="line"/>
      <point x="15" y="570" type="line"/>
      <point x="43" y="506" type="line"/>
      <point x="341" y="506" type="line"/>
      <point x="341" y="445" type="line"/>
      <point x="213" y="445" type="line" smooth="yes"/>
      <point x="127" y="445"/>
      <point x="97" y="410"/>
      <point x="99" y="347" type="curve" smooth="yes"/>
      <point x="100" y="301"/>
      <point x="129" y="253"/>
      <point x="162" y="232" type="curve"/>
    </contour>
    <contour>
      <point x="462" y="50" type="line"/>
      <point x="397" y="-20"/>
      <point x="351" y="-20"/>
      <point x="331" y="0" type="curve" smooth="yes"/>
      <point x="316" y="15"/>
      <point x="323" y="49"/>
      <point x="363" y="79" type="curve" smooth="yes"/>
      <point x="443" y="139"/>
      <point x="438" y="225"/>
      <point x="356" y="276" type="curve" smooth="yes"/>
      <point x="272" y="328"/>
      <point x="102" y="266"/>
      <point x="87" y="138" type="curve" smooth="yes"/>
      <point x="72" y="9"/>
      <point x="159" y="-91"/>
      <point x="331" y="-144" type="curve"/>
      <point x="347" y="-108" type="line"/>
      <point x="209" y="-53"/>
      <point x="162" y="14"/>
      <point x="161" y="101" type="curve" smooth="yes"/>
      <point x="159" y="226"/>
      <point x="288" y="273"/>
      <point x="338" y="246" type="curve" smooth="yes"/>
      <point x="379" y="224"/>
      <point x="386" y="170"/>
      <point x="320" y="121" type="curve" smooth="yes"/>
      <point x="262" y="78"/>
      <point x="264" y="16"/>
      <point x="303" y="-23" type="curve" smooth="yes"/>
      <point x="348" y="-68"/>
      <point x="430" y="-64"/>
      <point x="500" y="7" type="curve"/>
    </contour>
    <contour>
      <point x="378" y="570" type="move" name="top"/>
    </contour>
    <contour>
      <point x="319" y="-115" type="move" name="bottom"/>
    </contour>
  </outline>
</glyph>
<glyph name="hadeva_uvowelsigndeva" format="1">
  <advance width="599"/>
  <note>
    dHaMatraU
  </note>
  <outline>
    <contour>
      <point x="234" y="237" type="line"/>
      <point x="209" y="261"/>
      <point x="196" y="288"/>
      <point x="196" y="311" type="curve" smooth="yes"/>
      <point x="196" y="340"/>
      <point x="218" y="362"/>
      <point x="262" y="362" type="curve" smooth="yes"/>
      <point x="460" y="362" type="line"/>
      <point x="460" y="506" type="line"/>
      <point x="584" y="506" type="line"/>
      <point x="556" y="570" type="line"/>
      <point x="15" y="570" type="line"/>
      <point x="43" y="506" type="line"/>
      <point x="381" y="506" type="line"/>
      <point x="381" y="426" type="line"/>
      <point x="233" y="426" type="line" smooth="yes"/>
      <point x="149" y="426"/>
      <point x="106" y="386"/>
      <point x="106" y="337" type="curve" smooth="yes"/>
      <point x="106" y="296"/>
      <point x="134" y="250"/>
      <point x="192" y="212" type="curve"/>
    </contour>
    <contour>
      <point x="237" y="-46"/>
      <point x="209" y="4"/>
      <point x="209" y="71" type="curve" smooth="yes"/>
      <point x="209" y="167"/>
      <point x="270" y="201"/>
      <point x="343" y="201" type="curve" smooth="yes"/>
      <point x="417" y="201"/>
      <point x="454" y="167"/>
      <point x="454" y="132" type="curve" smooth="yes"/>
      <point x="454" y="108"/>
      <point x="437" y="83"/>
      <point x="402" y="68" type="curve"/>
      <point x="446" y="19" type="line"/>
      <point x="490" y="47"/>
      <point x="509" y="84"/>
      <point x="509" y="123" type="curve" smooth="yes"/>
      <point x="509" y="228"/>
      <point x="412" y="282"/>
      <point x="315" y="282" type="curve" smooth="yes"/>
      <point x="219" y="282"/>
      <point x="123" y="229"/>
      <point x="123" y="108" type="curve" smooth="yes"/>
      <point x="123" y="-16"/>
      <point x="223" y="-96"/>
      <point x="343" y="-118" type="curve" smooth="yes"/>
      <point x="419" y="-132"/>
      <point x="443" y="-155"/>
      <point x="443" y="-181" type="curve" smooth="yes"/>
      <point x="443" y="-216"/>
      <point x="406" y="-243"/>
      <point x="331" y="-243" type="curve" smooth="yes"/>
      <point x="268" y="-243"/>
      <point x="194" y="-211"/>
      <point x="139" y="-125" type="curve"/>
      <point x="107" y="-147" type="line"/>
      <point x="155" y="-239"/>
      <point x="227" y="-315"/>
      <point x="345" y="-315" type="curve" smooth="yes"/>
      <point x="465" y="-315"/>
      <point x="490" y="-252"/>
      <point x="489" y="-189" type="curve" smooth="yes"/>
      <point x="488" y="-120"/>
      <point x="431" y="-85"/>
      <point x="351" y="-69" type="curve" smooth="yes"/>
    </contour>
    <contour>
      <point x="419" y="570" type="move" name="top"/>
    </contour>
  </outline>
</glyph>
<glyph name="uni093F.0" format="1">
  <advance width="232"/>
  <note>
    dMatraI.0
  </note>
  <outline>
    <contour>
      <point x="91" y="-19" type="line"/>
      <point x="166" y="-50" type="line"/>
      <point x="166" y="514" type="line"/>
      <point x="256" y="514" type="line"/>
      <point x="232" y="580" type="line"/>
      <point x="-28" y="580" type="line"/>
      <point x="0" y="514" type="line"/>
      <point x="91" y="514" type="line"/>
    </contour>
    <contour>
      <point x="146" y="577" type="line"/>
      <point x="125" y="616"/>
      <point x="112" y="647"/>
      <point x="112" y="679" type="curve" smooth="yes"/>
      <point x="112" y="727"/>
      <point x="145" y="761"/>
      <point x="201" y="761" type="curve" smooth="yes"/>
      <point x="270" y="761"/>
      <point x="356" y="697"/>
      <point x="445" y="610" type="curve"/>
      <point x="472" y="643" type="line"/>
      <point x="425" y="699"/>
      <point x="302" y="835"/>
      <point x="171" y="835" type="curve" smooth="yes"/>
      <point x="77" y="835"/>
      <point x="32" y="771"/>
      <point x="32" y="711" type="curve" smooth="yes"/>
      <point x="32" y="667"/>
      <point x="68" y="608"/>
      <point x="99" y="568" type="curve"/>
    </contour>
    <contour>
      <point x="472" y="643" type="move" name="imatra"/>
    </contour>
    <contour>
      <point x="459" y="628" type="move" name="top"/>
    </contour>
  </outline>
</glyph>
<glyph name="uni093F.01" format="1">
  <advance width="232"/>
  <note>
    dMatraI.1
  </note>
  <outline>
    <contour>
      <point x="149" y="565" type="line"/>
      <point x="82" y="673"/>
      <point x="86" y="771"/>
      <point x="197" y="771" type="curve" smooth="yes"/>
      <point x="276" y="772"/>
      <point x="390" y="698"/>
      <point x="494" y="610" type="curve"/>
      <point x="521" y="644" type="line"/>
      <point x="461" y="703"/>
      <point x="316" y="835"/>
      <point x="177" y="835" type="curve" smooth="yes"/>
      <point x="12" y="835"/>
      <point x="-7" y="684"/>
      <point x="102" y="556" type="curve"/>
    </contour>
    <component base="uni093E" xOffset="-57"/>
    <contour>
      <point x="521" y="644" type="move" name="imatra"/>
    </contour>
    <contour>
      <point x="508" y="628" type="move" name="top"/>
    </contour>
  </outline>
</glyph>
<glyph name="uni093F.03" format="1">
  <advance width="232"/>
  <note>
    dMatraI.3
  </note>
  <outline>
    <contour>
      <point x="159" y="555" type="line"/>
      <point x="130" y="602"/>
      <point x="113" y="646"/>
      <point x="113" y="682" type="curve" smooth="yes"/>
      <point x="113" y="730"/>
      <point x="145" y="762"/>
      <point x="227" y="762" type="curve" smooth="yes"/>
      <point x="338" y="763"/>
      <point x="497" y="706"/>
      <point x="640" y="610" type="curve"/>
      <point x="666" y="645" type="line"/>
      <point x="562" y="720"/>
      <point x="364" y="835"/>
      <point x="194" y="835" type="curve" smooth="yes"/>
      <point x="83" y="835"/>
      <point x="35" y="787"/>
      <point x="35" y="720" type="curve" smooth="yes"/>
      <point x="35" y="669"/>
      <point x="63" y="607"/>
      <point x="112" y="546" type="curve"/>
    </contour>
    <component base="uni093E" xOffset="-57"/>
    <contour>
      <point x="666" y="645" type="move" name="imatra"/>
    </contour>
    <contour>
      <point x="654" y="628" type="move" name="top"/>
    </contour>
  </outline>
</glyph>
<glyph name="uni093F.05" format="1">
  <advance width="232"/>
  <note>
    dMatraI.5
  </note>
  <outline>
    <contour>
      <point x="147" y="547" type="line"/>
      <point x="87" y="678"/>
      <point x="86" y="772"/>
      <point x="238" y="772" type="curve" smooth="yes"/>
      <point x="380" y="772"/>
      <point x="598" y="693"/>
      <point x="736" y="610" type="curve"/>
      <point x="763" y="645" type="line"/>
      <point x="613" y="738"/>
      <point x="362" y="837"/>
      <point x="197" y="837" type="curve" smooth="yes"/>
      <point x="101" y="837"/>
      <point x="34" y="803"/>
      <point x="34" y="715" type="curve" smooth="yes"/>
      <point x="34" y="661"/>
      <point x="59" y="600"/>
      <point x="101" y="538" type="curve"/>
    </contour>
    <component base="uni093E" xOffset="-61"/>
    <contour>
      <point x="763" y="645" type="move" name="imatra"/>
    </contour>
    <contour>
      <point x="747" y="628" type="move" name="top"/>
    </contour>
  </outline>
</glyph>
<glyph name="uni093F.08" format="1">
  <advance width="232"/>
  <note>
    dMatraI.8
  </note>
  <outline>
    <contour>
      <point x="148" y="567" type="line"/>
      <point x="125" y="603"/>
      <point x="112" y="646"/>
      <point x="112" y="675" type="curve" smooth="yes"/>
      <point x="112" y="731"/>
      <point x="154" y="763"/>
      <point x="258" y="764" type="curve" smooth="yes"/>
      <point x="420" y="766"/>
      <point x="668" y="721"/>
      <point x="882" y="610" type="curve"/>
      <point x="908" y="646" type="line"/>
      <point x="724" y="743"/>
      <point x="444" y="835"/>
      <point x="223" y="835" type="curve" smooth="yes"/>
      <point x="98" y="835"/>
      <point x="32" y="780"/>
      <point x="32" y="708" type="curve" smooth="yes"/>
      <point x="32" y="666"/>
      <point x="64" y="602"/>
      <point x="101" y="558" type="curve"/>
    </contour>
    <component base="uni093E" xOffset="-59"/>
    <contour>
      <point x="908" y="646" type="move" name="imatra"/>
    </contour>
    <contour>
      <point x="894" y="628" type="move" name="top"/>
    </contour>
  </outline>
</glyph>
<glyph name="uni093F.10" format="1">
  <advance width="232"/>
  <note>
    dMatraI.10
  </note>
  <outline>
    <contour>
      <point x="148" y="567" type="line"/>
      <point x="125" y="606"/>
      <point x="112" y="643"/>
      <point x="112" y="674" type="curve" smooth="yes"/>
      <point x="112" y="732"/>
      <point x="156" y="764"/>
      <point x="271" y="765" type="curve" smooth="yes"/>
      <point x="456" y="767"/>
      <point x="738" y="724"/>
      <point x="979" y="609" type="curve"/>
      <point x="1004" y="647" type="line"/>
      <point x="788" y="750"/>
      <point x="477" y="835"/>
      <point x="234" y="835" type="curve" smooth="yes"/>
      <point x="103" y="835"/>
      <point x="32" y="782"/>
      <point x="32" y="707" type="curve" smooth="yes"/>
      <point x="32" y="663"/>
      <point x="63" y="605"/>
      <point x="102" y="558" type="curve"/>
    </contour>
    <component base="uni093E" xOffset="-59"/>
    <contour>
      <point x="1004" y="647" type="move" name="imatra"/>
    </contour>
    <contour>
      <point x="991" y="628" type="move" name="top"/>
    </contour>
  </outline>
</glyph>
<glyph name="uni093F.20" format="1">
  <advance width="232"/>
  <note>
    dMatraI.20
  </note>
  <outline>
    <contour>
      <point x="149" y="546" type="line"/>
      <point x="126" y="591"/>
      <point x="113" y="639"/>
      <point x="113" y="668" type="curve" smooth="yes"/>
      <point x="113" y="737"/>
      <point x="167" y="767"/>
      <point x="335" y="769" type="curve" smooth="yes"/>
      <point x="621" y="772"/>
      <point x="1076" y="724"/>
      <point x="1463" y="608" type="curve"/>
      <point x="1486" y="650" type="line"/>
      <point x="1104" y="772"/>
      <point x="640" y="836"/>
      <point x="292" y="836" type="curve" smooth="yes"/>
      <point x="125" y="836"/>
      <point x="31" y="792"/>
      <point x="31" y="703" type="curve" smooth="yes"/>
      <point x="31" y="655"/>
      <point x="59" y="598"/>
      <point x="103" y="537" type="curve"/>
    </contour>
    <component base="uni093E" xOffset="-59"/>
    <contour>
      <point x="1486" y="650" type="move" name="imatra"/>
    </contour>
    <contour>
      <point x="1475" y="628" type="move" name="top"/>
    </contour>
  </outline>
</glyph>
<glyph name="uni093F.30" format="1">
  <advance width="232"/>
  <note>
    dMatraI.30
  </note>
  <outline>
    <contour>
      <point x="151" y="556" type="line"/>
      <point x="126" y="592"/>
      <point x="113" y="640"/>
      <point x="113" y="664" type="curve" smooth="yes"/>
      <point x="113" y="743"/>
      <point x="177" y="770"/>
      <point x="399" y="773" type="curve" smooth="yes"/>
      <point x="788" y="778"/>
      <point x="1411" y="729"/>
      <point x="1946" y="607" type="curve"/>
      <point x="1956" y="653" type="line"/>
      <point x="1415" y="783"/>
      <point x="801" y="836"/>
      <point x="349" y="836" type="curve" smooth="yes"/>
      <point x="147" y="836"/>
      <point x="31" y="803"/>
      <point x="31" y="700" type="curve" smooth="yes"/>
      <point x="31" y="658"/>
      <point x="54" y="609"/>
      <point x="105" y="547" type="curve"/>
    </contour>
    <component base="uni093E" xOffset="-59"/>
    <contour>
      <point x="1956" y="653" type="move" name="imatra"/>
    </contour>
    <contour>
      <point x="1948" y="633" type="move" name="top"/>
    </contour>
  </outline>
</glyph>
<glyph name="uni091C094D" format="1">
  <advance width="590"/>
  <outline>
    <contour>
      <point x="524" y="570" type="line"/>
      <point x="15" y="570" type="line"/>
      <point x="43" y="506" type="line"/>
      <point x="552" y="506" type="line"/>
    </contour>
    <contour>
      <point x="568" y="338" type="line"/>
      <point x="541" y="402" type="line"/>
      <point x="206" y="402" type="line"/>
      <point x="234" y="338" type="line"/>
      <point x="386" y="276"/>
      <point x="385" y="116"/>
      <point x="292" y="116" type="curve" smooth="yes"/>
      <point x="209" y="116"/>
      <point x="154" y="191"/>
      <point x="91" y="317" type="curve"/>
      <point x="55" y="304" type="line"/>
      <point x="112" y="153"/>
      <point x="194" y="42"/>
      <point x="316" y="42" type="curve" smooth="yes"/>
      <point x="465" y="42"/>
      <point x="500" y="239"/>
      <point x="303" y="338" type="curve"/>
    </contour>
  </outline>
</glyph>
<glyph name="uni091C094D091E094D" format="1">
  <advance width="448"/>
  <note>
    dJNy.half
  </note>
  <outline>
    <contour>
      <point x="454" y="570" type="line"/>
      <point x="15" y="570" type="line"/>
      <point x="43" y="506" type="line"/>
      <point x="482" y="506" type="line"/>
    </contour>
    <contour>
      <point x="498" y="338" type="line"/>
      <point x="471" y="402" type="line"/>
      <point x="206" y="402" type="line"/>
      <point x="234" y="338" type="line"/>
      <point x="327" y="298"/>
      <point x="364" y="240"/>
      <point x="364" y="192" type="curve" smooth="yes"/>
      <point x="364" y="126"/>
      <point x="329" y="95"/>
      <point x="284" y="95" type="curve" smooth="yes"/>
      <point x="245" y="95"/>
      <point x="198" y="120"/>
      <point x="160" y="167" type="curve"/>
      <point x="124" y="154" type="line"/>
      <point x="166" y="89"/>
      <point x="226" y="42"/>
      <point x="316" y="42" type="curve" smooth="yes"/>
      <point x="393" y="42"/>
      <point x="439" y="94"/>
      <point x="439" y="159" type="curve" smooth="yes"/>
      <point x="439" y="219"/>
      <point x="398" y="290"/>
      <point x="303" y="338" type="curve"/>
    </contour>
    <contour>
      <point x="224" y="194"/>
      <point x="195" y="217"/>
      <point x="162" y="217" type="curve" smooth="yes"/>
      <point x="129" y="217"/>
      <point x="102" y="197"/>
      <point x="102" y="155" type="curve" smooth="yes"/>
      <point x="102" y="87"/>
      <point x="169" y="-8"/>
      <point x="243" y="-92" type="curve"/>
      <point x="296" y="-48" type="line"/>
      <point x="244" y="-5"/>
      <point x="215" y="26"/>
      <point x="184" y="87" type="curve"/>
      <point x="207" y="100"/>
      <point x="224" y="117"/>
      <point x="224" y="152" type="curve" smooth="yes"/>
    </contour>
  </outline>
</glyph>
<glyph name="uni091C094D091E094D_radeva" format="1">
  <advance width="757"/>
  <outline>
    <contour>
      <point x="80" y="101" type="line"/>
      <point x="126" y="55"/>
      <point x="171" y="31"/>
      <point x="236" y="32" type="curve" smooth="yes"/>
      <point x="417" y="32"/>
      <point x="452" y="231"/>
      <point x="337" y="328" type="curve"/>
      <point x="539" y="328" type="line"/>
      <point x="539" y="0" type="line"/>
      <point x="618" y="0" type="line"/>
      <point x="618" y="506" type="line"/>
      <point x="742" y="506" type="line"/>
      <point x="714" y="570" type="line"/>
      <point x="15" y="570" type="line"/>
      <point x="43" y="506" type="line"/>
      <point x="539" y="506" type="line"/>
      <point x="539" y="401" type="line"/>
      <point x="217" y="401" type="line"/>
      <point x="224" y="358" type="line"/>
      <point x="369" y="284"/>
      <point x="355" y="100"/>
      <point x="211" y="100" type="curve" smooth="yes"/>
      <point x="180" y="100"/>
      <point x="144" y="107"/>
      <point x="106" y="123" type="curve"/>
    </contour>
    <contour>
      <point x="143" y="187"/>
      <point x="114" y="211"/>
      <point x="81" y="211" type="curve" smooth="yes"/>
      <point x="50" y="211"/>
      <point x="23" y="190"/>
      <point x="23" y="152" type="curve" smooth="yes"/>
      <point x="23" y="93"/>
      <point x="89" y="-14"/>
      <point x="152" y="-108" type="curve"/>
      <point x="215" y="-54" type="line"/>
      <point x="103" y="81" type="line"/>
      <point x="126" y="94"/>
      <point x="143" y="111"/>
      <point x="143" y="146" type="curve" smooth="yes"/>
    </contour>
    <contour>
      <point x="550" y="234" type="line"/>
      <point x="368" y="22" type="line"/>
      <point x="425" y="-20" type="line"/>
      <point x="560" y="155" type="line"/>
    </contour>
    <contour>
      <point x="565" y="580" type="move" name="top"/>
    </contour>
    <contour>
      <point x="565" y="0" type="move" name="bottom"/>
    </contour>
  </outline>
</glyph>
<glyph name="uni091C094D_nyadeva" format="1">
  <advance width="757"/>
  <note>
    dJNya
  </note>
  <outline>
    <contour>
      <point x="110" y="91" type="line"/>
      <point x="159" y="45"/>
      <point x="226" y="22"/>
      <point x="286" y="22" type="curve" smooth="yes"/>
      <point x="374" y="22"/>
      <point x="450" y="69"/>
      <point x="450" y="164" type="curve" smooth="yes"/>
      <point x="450" y="220"/>
      <point x="421" y="284"/>
      <point x="367" y="328" type="curve"/>
      <point x="539" y="328" type="line"/>
      <point x="539" y="0" type="line"/>
      <point x="618" y="0" type="line"/>
      <point x="618" y="506" type="line"/>
      <point x="742" y="506" type="line"/>
      <point x="714" y="570" type="line"/>
      <point x="15" y="570" type="line"/>
      <point x="43" y="506" type="line"/>
      <point x="539" y="506" type="line"/>
      <point x="539" y="401" type="line"/>
      <point x="217" y="401" type="line"/>
      <point x="224" y="358" type="line"/>
      <point x="323" y="346"/>
      <point x="380" y="265"/>
      <point x="380" y="202" type="curve" smooth="yes"/>
      <point x="380" y="131"/>
      <point x="330" y="90"/>
      <point x="251" y="90" type="curve" smooth="yes"/>
      <point x="217" y="90"/>
      <point x="178" y="97"/>
      <point x="136" y="113" type="curve"/>
    </contour>
    <contour>
      <point x="173" y="177"/>
      <point x="144" y="201"/>
      <point x="111" y="201" type="curve" smooth="yes"/>
      <point x="80" y="201"/>
      <point x="53" y="180"/>
      <point x="53" y="142" type="curve" smooth="yes"/>
      <point x="53" y="83"/>
      <point x="119" y="-24"/>
      <point x="182" y="-118" type="curve"/>
      <point x="245" y="-64" type="line"/>
      <point x="133" y="71" type="line"/>
      <point x="156" y="84"/>
      <point x="173" y="101"/>
      <point x="173" y="136" type="curve" smooth="yes"/>
    </contour>
    <contour>
      <point x="581" y="570" type="move" name="top"/>
    </contour>
    <contour>
      <point x="581" y="-20" type="move" name="bottom"/>
    </contour>
  </outline>
</glyph>
<glyph name="uni091C094D0930094D" format="1">
  <advance width="577"/>
  <note>
    dJR.half
  </note>
  <outline>
    <contour>
      <point x="534" y="570" type="line"/>
      <point x="15" y="570" type="line"/>
      <point x="43" y="506" type="line"/>
      <point x="562" y="506" type="line"/>
    </contour>
    <contour>
      <point x="506" y="387" type="line"/>
      <point x="479" y="451" type="line"/>
      <point x="213" y="451" type="line"/>
      <point x="241" y="387" type="line"/>
      <point x="373" y="345"/>
      <point x="386" y="243"/>
      <point x="293" y="243" type="curve" smooth="yes"/>
      <point x="228" y="243"/>
      <point x="172" y="263"/>
      <point x="98" y="366" type="curve"/>
      <point x="62" y="353" type="line"/>
      <point x="141" y="221"/>
      <point x="208" y="169"/>
      <point x="317" y="169" type="curve" smooth="yes"/>
      <point x="466" y="169"/>
      <point x="487" y="328"/>
      <point x="320" y="387" type="curve"/>
    </contour>
    <contour>
      <point x="243" y="14" type="line"/>
      <point x="283" y="-36" type="line"/>
      <point x="529" y="158" type="line"/>
      <point x="529" y="232" type="line"/>
    </contour>
  </outline>
</glyph>
<glyph name="jhadeva_uvowelsigndeva" format="1">
  <advance width="813"/>
  <outline>
    <contour>
      <point x="373" y="280" type="line"/>
      <point x="409" y="234" type="line"/>
      <point x="596" y="216" type="line"/>
      <point x="596" y="280" type="line"/>
    </contour>
    <contour>
      <point x="193" y="154"/>
      <point x="163" y="177"/>
      <point x="131" y="177" type="curve" smooth="yes"/>
      <point x="94" y="177"/>
      <point x="62" y="146"/>
      <point x="88" y="67" type="curve" smooth="yes"/>
      <point x="107" y="8"/>
      <point x="156" y="-74"/>
      <point x="202" y="-142" type="curve"/>
      <point x="265" y="-88" type="line"/>
      <point x="153" y="47" type="line"/>
      <point x="176" y="60"/>
      <point x="193" y="77"/>
      <point x="193" y="112" type="curve" smooth="yes"/>
    </contour>
    <contour>
      <point x="770" y="570" type="line"/>
      <point x="-8" y="570" type="line"/>
      <point x="20" y="506" type="line"/>
      <point x="355" y="506" type="line"/>
      <point x="355" y="375" type="line"/>
      <point x="434" y="375" type="line"/>
      <point x="434" y="506" type="line"/>
      <point x="589" y="506" type="line"/>
      <point x="589" y="-40" type="line"/>
      <point x="668" y="-40" type="line"/>
      <point x="668" y="506" type="line"/>
      <point x="798" y="506" type="line"/>
    </contour>
    <contour>
      <point x="357.191" y="438" type="line"/>
      <point x="206" y="438" type="line"/>
      <point x="149.768" y="438"/>
      <point x="106" y="395.274"/>
      <point x="106" y="334" type="curve"/>
      <point x="106" y="249.279"/>
      <point x="190.915" y="191.987"/>
      <point x="257.3" y="202.045" type="curve"/>
      <point x="275.068" y="206.014"/>
      <point x="293.085" y="214.022"/>
      <point x="310.564" y="219.163" type="curve"/>
      <point x="370.921" y="238.969"/>
      <point x="388" y="221"/>
      <point x="388" y="185" type="curve" smooth="yes"/>
      <point x="388" y="66"/>
      <point x="256" y="67"/>
      <point x="138" y="116" type="curve"/>
      <point x="92" y="112" type="line"/>
      <point x="192" y="-11"/>
      <point x="449" y="-22"/>
      <point x="449" y="149" type="curve"/>
      <point x="449" y="214.634"/>
      <point x="397.521" y="297"/>
      <point x="330" y="297" type="curve"/>
      <point x="274.798" y="297"/>
      <point x="218.917" y="246.108"/>
      <point x="185.064" y="267.387" type="curve"/>
      <point x="173.701" y="275.581"/>
      <point x="164" y="287.927"/>
      <point x="164" y="313" type="curve"/>
      <point x="164" y="350.975"/>
      <point x="184.328" y="375"/>
      <point x="245" y="375" type="curve"/>
      <point x="428.209" y="375" type="line"/>
    </contour>
    <contour>
      <point x="598" y="156" type="line"/>
      <point x="386" y="3" type="line"/>
      <point x="444" y="-48" type="line"/>
      <point x="598" y="94" type="line"/>
    </contour>
    <component base="uvowelsigndeva" xOffset="475"/>
    <contour>
      <point x="75" y="-59" type="move" name="nukta"/>
    </contour>
    <contour>
      <point x="630" y="0" type="move" name="bottom"/>
    </contour>
    <contour>
      <point x="630" y="570" type="move" name="top"/>
    </contour>
  </outline>
</glyph>
